<?xml version="1.0" encoding="utf-8"?>
<!-- Generator: Adobe Illustrator 16.0.0, SVG Export Plug-In . SVG Version: 6.00 Build 0)  -->
<!DOCTYPE svg PUBLIC "-//W3C//DTD SVG 1.1//EN" "http://www.w3.org/Graphics/SVG/1.1/DTD/svg11.dtd">
<svg version="1.1" id="Layer_1" xmlns="http://www.w3.org/2000/svg" xmlns:xlink="http://www.w3.org/1999/xlink" x="0px" y="0px"
	 width="14.443px" height="14.412px" viewBox="0 0 14.443 14.412" enable-background="new 0 0 14.443 14.412" xml:space="preserve">
<g>
	<path fill="#36CEE9" d="M13.672,4.269c-0.057-0.102-0.102-0.203-0.158-0.293c0.033,0.045,0.066,0.09,0.09,0.146
		C13.625,4.167,13.649,4.224,13.672,4.269z"/>
	<path fill="#36CEE9" d="M6.719,3.587c-0.326,0-0.591,0.265-0.591,0.591v4.134c0,0.326,0.265,0.589,0.591,0.589h3.094
		c0.326,0,0.592-0.264,0.592-0.589c0-0.326-0.408-0.591-0.732-0.591H7.31l0.122-3.453C7.504,3.835,7.045,3.587,6.719,3.587z"/>
	<path fill="#36CEE9" d="M6.86,3.827c-0.326,0-0.591-0.239-0.591,0.086v4.135c0,0.327,0.265,0.59,0.591,0.59l3.514-0.152
		c0.031-0.173,0.031-0.111,0.031-0.438c0-0.326-0.266-0.591-0.592-0.591H7.451v-3.04C7.451,4.092,7.187,3.827,6.86,3.827z"/>
	<path fill="#36CEE9" d="M13.717,4.393c-0.012-0.044-0.023-0.09-0.045-0.124c-0.057-0.102-0.102-0.203-0.158-0.293
		c-0.928-1.717-1.967-2.417-2.227-2.576c-0.033-0.023-0.057-0.034-0.057-0.034c-1.174-0.802-2.586-1.243-4.009-1.243
		c-3.908,0-7.083,3.174-7.083,7.083c0,3.909,3.174,7.083,7.083,7.083c3.908,0,7.082-3.174,7.082-7.083
		C14.303,6.223,14.112,5.274,13.717,4.393z M7.222,12.519c-2.925,0-5.312-2.387-5.312-5.313c0-2.925,2.387-5.312,5.312-5.312
		c1.087,0,2.132,0.325,3.015,0.934c0.021,0.021,0.051,0.041,0.072,0.062c0.844,0.649,1.584,1.869,1.777,2.204
		c0,0.01,0.01,0.01,0.01,0.02c0.285,0.66,0.438,1.361,0.438,2.093C12.534,10.132,10.147,12.519,7.222,12.519z"/>
</g>
</svg>
