<?xml version="1.0" encoding="utf-8"?>
<!-- Generator: Adobe Illustrator 16.0.0, SVG Export Plug-In . SVG Version: 6.00 Build 0)  -->
<!DOCTYPE svg PUBLIC "-//W3C//DTD SVG 1.1//EN" "http://www.w3.org/Graphics/SVG/1.1/DTD/svg11.dtd">
<svg version="1.1" id="Layer_1" xmlns="http://www.w3.org/2000/svg" xmlns:xlink="http://www.w3.org/1999/xlink" x="0px" y="0px"
	 width="97.055px" height="106.353px" viewBox="0 0 97.055 106.353" enable-background="new 0 0 97.055 106.353"
	 xml:space="preserve">
<g>
	<g>
		<path fill="#3B4B56" d="M52.059,29.246c-0.051,0.122-0.023,0.261,0.07,0.354l1.035,1.036L52.65,31.92
			c-0.053,0.129-0.016,0.276,0.092,0.368c0.105,0.091,0.258,0.103,0.377,0.03l1.316-0.79l1.316,0.79
			c0.119,0.072,0.271,0.061,0.377-0.03c0.107-0.092,0.143-0.239,0.092-0.368l-0.514-1.285l1.035-1.036
			c0.092-0.093,0.121-0.231,0.07-0.354c-0.051-0.121-0.168-0.199-0.301-0.199H55.25l-0.514-1.28
			c-0.049-0.124-0.168-0.204-0.301-0.204l0,0c-0.133,0-0.252,0.08-0.301,0.204l-0.512,1.28h-1.266
			C52.227,29.046,52.109,29.125,52.059,29.246z M53.842,29.695c0.133,0,0.252-0.08,0.301-0.205l0.293-0.729l0.293,0.729
			c0.049,0.125,0.168,0.205,0.301,0.205h0.699l-0.633,0.633c-0.092,0.092-0.119,0.229-0.07,0.35l0.234,0.59l-0.658-0.396
			c-0.102-0.061-0.23-0.061-0.334,0l-0.656,0.396l0.234-0.59c0.049-0.12,0.021-0.258-0.072-0.35l-0.631-0.633H53.842z"/>
		<path fill="#3B4B56" d="M44.997,29.246c-0.051-0.121-0.168-0.199-0.3-0.199h-1.264l-0.513-1.28
			c-0.048-0.124-0.168-0.204-0.301-0.204l0,0c-0.133,0-0.253,0.08-0.302,0.204l-0.512,1.28h-1.264c-0.131,0-0.25,0.078-0.3,0.199
			c-0.05,0.122-0.022,0.261,0.071,0.354l1.035,1.036l-0.514,1.285c-0.052,0.129-0.016,0.276,0.09,0.368
			c0.106,0.091,0.258,0.103,0.378,0.03l1.316-0.79l1.317,0.79c0.119,0.072,0.27,0.061,0.377-0.03
			c0.105-0.092,0.143-0.239,0.091-0.368l-0.515-1.285l1.037-1.036C45.019,29.506,45.046,29.368,44.997,29.246L44.997,29.246z
			 M43.281,30.328c-0.092,0.092-0.121,0.229-0.072,0.35l0.235,0.59l-0.657-0.396c-0.104-0.061-0.231-0.061-0.334,0l-0.657,0.396
			l0.235-0.59c0.049-0.12,0.02-0.258-0.07-0.35l-0.635-0.633h0.699c0.134,0,0.254-0.08,0.303-0.205l0.291-0.729l0.293,0.729
			c0.049,0.125,0.168,0.205,0.301,0.205h0.7L43.281,30.328z"/>
		<path fill="#3B4B56" d="M51.729,25.835c-0.051-0.119-0.168-0.199-0.301-0.199h-1.867l-0.752-1.873
			c-0.049-0.123-0.168-0.202-0.303-0.202c-0.131,0-0.25,0.078-0.3,0.202l-0.753,1.873h-1.867c-0.132,0-0.249,0.08-0.3,0.199
			c-0.05,0.123-0.022,0.263,0.069,0.354l1.52,1.528l-0.756,1.889c-0.053,0.13-0.016,0.277,0.091,0.367s0.259,0.104,0.378,0.032
			l1.918-1.152l1.922,1.152c0.119,0.071,0.27,0.058,0.377-0.032s0.143-0.237,0.09-0.367l-0.754-1.889l1.518-1.528
			C51.752,26.098,51.779,25.958,51.729,25.835z M49.529,27.413c-0.092,0.09-0.119,0.228-0.07,0.348l0.475,1.192l-1.26-0.757
			c-0.104-0.062-0.23-0.062-0.334,0l-1.26,0.757l0.477-1.192c0.049-0.12,0.02-0.258-0.071-0.348l-1.118-1.126h1.306
			c0.132,0,0.251-0.08,0.3-0.203l0.534-1.328l0.533,1.328c0.051,0.123,0.17,0.203,0.303,0.203h1.307L49.529,27.413z"/>
	</g>
	<g>
		<path fill="#3B4B56" d="M29.492,80.094C24.509,77.084,20.294,72.93,17.209,68c3.81-0.58,6.497-4.104,6.019-7.951l-0.381-3.068
			c-0.086-0.691-0.436-1.307-0.984-1.734s-1.231-0.615-1.924-0.531l-0.693,0.088c-2.823,0.352-5.062,2.313-5.906,4.848
			c-0.949-2.982-1.531-6.127-1.688-9.383l0.102,0.033c0.74,0.246,1.502,0.369,2.26,0.369c1.099,0,2.189-0.257,3.199-0.764
			c1.708-0.855,2.98-2.325,3.582-4.139l0.975-2.936c0.453-1.361-0.289-2.84-1.652-3.294l-0.664-0.22
			c-1.813-0.603-3.752-0.462-5.459,0.394c-0.585,0.294-1.117,0.661-1.59,1.087c1.02-4.829,3.003-9.407,5.881-13.508
			c0.58-0.826,1.191-1.624,1.828-2.395c0.894,1.644,2.361,2.854,4.148,3.411c0.705,0.22,1.426,0.329,2.143,0.329
			c1.141,0,2.27-0.276,3.311-0.821l2.738-1.434c1.273-0.666,1.767-2.243,1.1-3.517l-0.324-0.62
			c-1.246-2.377-3.648-3.761-6.157-3.828c2.554-1.825,5.345-3.325,8.321-4.458c0.725-0.276,1.09-1.088,0.813-1.812
			c-0.275-0.726-1.086-1.09-1.811-0.813c-2.424,0.923-4.73,2.072-6.899,3.425v-1.933c0-3.943-3.208-7.152-7.153-7.152h-0.699
			c-1.437,0-2.604,1.17-2.604,2.606v3.093c0,3.402,2.391,6.258,5.579,6.976c-1.929,1.661-3.702,3.513-5.298,5.534V23.78
			c0-3.943-3.208-7.151-7.15-7.151H9.47c-1.438,0-2.605,1.17-2.605,2.605v3.093c0,3.814,3,6.94,6.766,7.141
			c-1.242,2.276-2.255,4.657-3.023,7.116c-1.248-2.102-3.536-3.512-6.151-3.512h-0.7c-1.436,0-2.604,1.168-2.604,2.606v3.091
			c0,3.943,3.208,7.153,7.152,7.153H8.88c-0.053,0.845-0.08,1.694-0.08,2.549c0,1.558,0.092,3.095,0.268,4.606
			c-0.237-0.142-0.484-0.271-0.74-0.388c-1.74-0.787-3.684-0.85-5.471-0.173l-0.654,0.246c-0.652,0.245-1.168,0.73-1.455,1.364
			c-0.287,0.635-0.309,1.344-0.063,1.994l1.092,2.893c1.08,2.861,3.807,4.627,6.698,4.627c0.837,0,1.689-0.148,2.519-0.461
			l0.547-0.207c0.629,1.598,1.359,3.145,2.182,4.633c-2.212-0.377-4.568,0.283-6.272,1.988l-0.495,0.494
			c-1.015,1.016-1.015,2.668,0,3.684l2.188,2.188c1.395,1.393,3.226,2.092,5.057,2.092c1.832,0,3.664-0.699,5.058-2.092l0.315-0.318
			c1.095,1.166,2.257,2.266,3.482,3.291c-1.758,0.5-3.326,1.666-4.287,3.385l-0.342,0.611c-0.701,1.254-0.252,2.842,1.002,3.545
			l2.699,1.508c1.102,0.617,2.299,0.91,3.479,0.91c1.452,0,2.88-0.445,4.081-1.275 M19.844,11.373V8.481h0.497
			c2.396,0,4.346,1.95,4.346,4.345v2.89h-0.498C21.794,15.715,19.844,13.765,19.844,11.373z M24.876,21.716
			c2.121-1.111,4.752-0.29,5.863,1.831l0.23,0.44l-2.56,1.343c-1.028,0.538-2.204,0.643-3.311,0.298
			c-1.108-0.347-2.015-1.103-2.554-2.131l-0.23-0.44L24.876,21.716z M9.671,22.327v-2.891h0.498c2.395,0,4.344,1.949,4.344,4.344
			v2.892h-0.498C11.621,26.671,9.671,24.722,9.671,22.327z M13.078,44.738c0.365-1.102,1.138-1.995,2.174-2.515
			c1.038-0.521,2.216-0.605,3.316-0.239l0.473,0.157l-0.911,2.741c-0.366,1.102-1.138,1.995-2.176,2.516
			c-1.037,0.521-2.216,0.604-3.315,0.238l-0.473-0.156L13.078,44.738z M8.8,43.114H8.302c-2.396,0-4.344-1.948-4.344-4.344v-2.891
			h0.496c2.396,0,4.346,1.949,4.346,4.343V43.114z M10.001,60.551c-2.241,0.848-4.752-0.289-5.598-2.529l-1.021-2.703l0.464-0.176
			c1.086-0.41,2.266-0.373,3.323,0.105s1.864,1.34,2.276,2.426l1.02,2.701L10.001,60.551z M19.592,57.59l0.493-0.063l0.355,2.867
			c0.297,2.377-1.396,4.553-3.774,4.848l-0.493,0.061l-0.356-2.867C15.521,60.059,17.215,57.883,19.592,57.59z M17.272,73.973
			c-1.694,1.693-4.45,1.693-6.145,0L9.083,71.93l0.352-0.352c1.695-1.695,4.45-1.693,6.144,0l2.044,2.043L17.272,73.973z
			 M23.498,85.531l-2.521-1.41l0.242-0.436c1.169-2.088,3.82-2.838,5.912-1.67l2.521,1.41l-0.243,0.434
			C28.239,85.951,25.587,86.701,23.498,85.531z"/>
		<path fill="#3B4B56" d="M67.369,87.617c1.199,0.828,2.627,1.273,4.08,1.273c1.18,0,2.377-0.293,3.479-0.91l2.699-1.508
			c1.254-0.703,1.705-2.291,1.002-3.545l-0.342-0.611c-0.959-1.719-2.531-2.883-4.291-3.381c1.227-1.027,2.393-2.127,3.486-3.293
			l0.316,0.316c1.393,1.395,3.227,2.092,5.057,2.092c1.832,0,3.664-0.697,5.059-2.092l2.186-2.188c1.016-1.016,1.016-2.668,0-3.684
			l-0.494-0.494c-1.705-1.705-4.061-2.365-6.273-1.986c0.824-1.49,1.555-3.037,2.184-4.635l0.547,0.207
			c0.828,0.313,1.68,0.461,2.518,0.461c2.891,0,5.619-1.766,6.699-4.625l1.092-2.895c0.246-0.65,0.223-1.359-0.063-1.994
			c-0.287-0.633-0.805-1.119-1.455-1.364l-0.654-0.246c-1.787-0.677-3.73-0.615-5.471,0.173c-0.258,0.116-0.504,0.246-0.742,0.388
			c0.176-1.511,0.27-3.049,0.27-4.606c0-0.854-0.029-1.704-0.082-2.549h0.58c3.941,0,7.15-3.21,7.15-7.152v-3.092
			c0-1.438-1.168-2.606-2.604-2.606H92.6c-2.615,0-4.904,1.41-6.15,3.512c-0.77-2.459-1.781-4.84-3.025-7.114
			c3.766-0.202,6.768-3.328,6.768-7.141v-3.095c0-1.436-1.17-2.605-2.605-2.605h-0.699c-3.943,0-7.152,3.208-7.152,7.153v0.102
			c-1.594-2.022-3.369-3.876-5.297-5.535c3.189-0.718,5.58-3.572,5.58-6.975V8.28c0-1.437-1.168-2.606-2.605-2.606h-0.699
			c-3.943,0-7.152,3.209-7.152,7.152v1.933c-2.17-1.353-4.475-2.502-6.898-3.425c-0.725-0.276-1.535,0.088-1.811,0.813
			c-0.277,0.724,0.088,1.535,0.813,1.812c2.977,1.133,5.766,2.633,8.32,4.458c-2.508,0.067-4.912,1.451-6.156,3.828l-0.324,0.62
			c-0.668,1.275-0.174,2.851,1.1,3.517l2.738,1.434c1.039,0.545,2.17,0.821,3.309,0.821c0.719,0,1.439-0.109,2.143-0.329
			c1.789-0.558,3.258-1.768,4.148-3.411c0.639,0.771,1.248,1.568,1.83,2.395c2.877,4.101,4.861,8.679,5.879,13.508
			c-0.471-0.426-1.004-0.793-1.588-1.087c-1.707-0.854-3.646-0.996-5.461-0.394l-0.664,0.22c-1.363,0.454-2.104,1.933-1.65,3.294
			l0.973,2.936c0.604,1.813,1.875,3.283,3.582,4.139c1.012,0.507,2.102,0.764,3.199,0.764c0.758,0,1.52-0.123,2.26-0.369
			l0.104-0.033c-0.158,3.256-0.738,6.401-1.689,9.383c-0.844-2.535-3.082-4.496-5.906-4.848l-0.693-0.088
			c-0.691-0.084-1.373,0.104-1.922,0.531c-0.551,0.428-0.898,1.043-0.984,1.734l-0.383,3.068C73.35,63.896,76.037,67.42,79.848,68
			c-3.086,4.928-7.303,9.084-12.281,12.092 M88.256,40.222c0-2.394,1.947-4.343,4.344-4.343h0.498v2.891
			c0,2.396-1.949,4.344-4.344,4.344h-0.498V40.222z M72.369,12.826c0-2.395,1.947-4.345,4.344-4.345h0.498v2.892
			c0,2.394-1.949,4.344-4.344,4.344h-0.498V12.826z M74.508,23.498c-0.537,1.028-1.445,1.784-2.551,2.131
			c-1.109,0.345-2.285,0.24-3.313-0.298l-2.561-1.343l0.232-0.44c1.109-2.121,3.74-2.942,5.863-1.831l2.559,1.341L74.508,23.498z
			 M82.543,26.671V23.78c0-2.396,1.947-4.344,4.344-4.344h0.496v2.891c0,2.396-1.949,4.345-4.344,4.345H82.543z M84.416,47.636
			c-1.1,0.366-2.277,0.282-3.314-0.238s-1.811-1.414-2.176-2.516l-0.91-2.741l0.471-0.157c1.102-0.366,2.279-0.281,3.316,0.239
			c1.037,0.52,1.811,1.413,2.176,2.515l0.91,2.742L84.416,47.636z M75.838,83.686l0.242,0.436l-2.521,1.41
			c-2.09,1.17-4.742,0.42-5.912-1.672l-0.242-0.434l2.521-1.41C72.018,80.848,74.668,81.598,75.838,83.686z M76.613,60.395
			l0.355-2.867l0.494,0.063c2.377,0.293,4.07,2.469,3.775,4.846l-0.357,2.867l-0.492-0.061
			C78.012,64.947,76.318,62.771,76.613,60.395z M87.619,71.578l0.352,0.352l-2.043,2.043c-1.693,1.693-4.449,1.693-6.145,0
			l-0.352-0.352l2.045-2.043C83.17,69.885,85.926,69.883,87.619,71.578z M92.652,58.021c-0.848,2.24-3.357,3.377-5.598,2.529
			l-0.467-0.176l1.021-2.701c0.41-1.086,1.217-1.947,2.275-2.426c1.057-0.479,2.238-0.516,3.322-0.105l0.465,0.176L92.652,58.021z"
			/>
	</g>
	<g>
		<path fill="#3B4B56" d="M39.806,88.893c1.687,0,3.053-1.367,3.054-3.055c0-1.688-1.366-3.055-3.054-3.055
			c-1.687,0-3.055,1.367-3.055,3.055l0,0C36.751,87.525,38.119,88.893,39.806,88.893z"/>
		<circle fill="#3B4B56" cx="57.023" cy="85.838" r="3.055"/>
		<path fill="#3B4B56" d="M31.197,85.838c0,4.754,3.854,8.607,8.609,8.607c2.17,0.002,4.26-0.816,5.85-2.293l2.76,3.002l2.76-3.002
			c1.59,1.479,3.68,2.295,5.848,2.293c4.754,0,8.611-3.854,8.611-8.607c0.004-2.422-1.018-4.732-2.809-6.363l2.816-3.063h-6.244
			c-6.621-4.508-15.326-4.508-21.948,0h-6.262l2.816,3.063C32.214,81.105,31.195,83.416,31.197,85.838z M62.848,85.838
			c0,3.219-2.607,5.826-5.824,5.826c-3.219,0-5.826-2.607-5.826-5.826c0-3.217,2.607-5.826,5.826-5.826
			C60.24,80.012,62.848,82.621,62.848,85.838L62.848,85.838z M48.414,75.848c2.221-0.002,4.42,0.438,6.467,1.293
			c-3.676,1.406-6.463,4.697-6.463,8.529c0-3.832-2.789-7.123-6.467-8.529C43.998,76.285,46.196,75.846,48.414,75.848z
			 M39.806,80.012c3.217,0,5.826,2.609,5.826,5.826c0,3.219-2.609,5.826-5.826,5.826c-3.219,0-5.826-2.607-5.826-5.826
			C33.98,82.621,36.587,80.012,39.806,80.012L39.806,80.012z"/>
	</g>
	<g>
		<path fill="#3B4B56" d="M75.104,103.344c-0.291,0-0.527,0.236-0.527,0.525c0,0.291,0.236,0.527,0.527,0.527
			s0.527-0.236,0.527-0.527l0,0C75.631,103.58,75.395,103.344,75.104,103.344z M75.104,104.314c-0.246,0-0.445-0.197-0.445-0.445
			c0-0.244,0.199-0.443,0.445-0.443s0.445,0.199,0.445,0.443C75.549,104.117,75.35,104.314,75.104,104.314L75.104,104.314z"/>
		<path fill="#3B4B56" d="M75.273,103.781c0.004-0.082-0.063-0.152-0.145-0.154c-0.008,0-0.016,0-0.021,0h-0.168v0.48h0.082v-0.174
			h0.09l0.086,0.174h0.09l-0.096-0.189C75.244,103.893,75.279,103.84,75.273,103.781z M75.104,103.859h-0.082v-0.158h0.082
			c0.055,0,0.09,0.027,0.09,0.08S75.158,103.859,75.104,103.859z"/>
		<path fill="#3B4B56" d="M30.006,99.822v-0.906h-1.391v5.402h1.393v-3.242c0-0.586,0.376-0.873,0.962-0.873h0.764v-1.287H31.08
			C30.571,98.916,30.127,99.18,30.006,99.822z"/>
		<path fill="#3B4B56" d="M33.035,96.781c-0.468-0.004-0.85,0.371-0.854,0.84s0.373,0.848,0.842,0.854
			c0.468,0.002,0.849-0.375,0.852-0.842c0.01-0.463-0.357-0.844-0.819-0.852C33.048,96.781,33.041,96.781,33.035,96.781z"/>
		<rect x="32.339" y="98.916" fill="#3B4B56" width="1.389" height="5.398"/>
		<path fill="#3B4B56" d="M37.55,98.824c-0.592-0.002-1.168,0.189-1.639,0.549v-0.457h-1.385v6.984h1.388v-2.043
			c0.471,0.357,1.045,0.551,1.636,0.551c1.541,0,2.791-1.252,2.791-2.793c0-1.539-1.25-2.789-2.791-2.789V98.824z M37.428,103.131
			c-0.837,0-1.517-0.68-1.517-1.516c0-0.838,0.68-1.518,1.517-1.518s1.517,0.68,1.517,1.518l0,0
			C38.945,102.451,38.265,103.131,37.428,103.131L37.428,103.131z"/>
		<path fill="#3B4B56" d="M64.471,101.143l-0.809-0.225c-0.533-0.137-0.74-0.303-0.74-0.584c0-0.279,0.291-0.465,0.709-0.465
			c0.396,0,0.709,0.26,0.709,0.594v0.031h1.279v-0.031c0-0.98-0.799-1.639-1.988-1.639c-1.178,0-2.033,0.658-2.033,1.564
			c0,0.703,0.467,1.236,1.281,1.455l0.777,0.213c0.588,0.162,0.807,0.342,0.807,0.668c0,0.342-0.316,0.572-0.787,0.572
			c-0.492,0-0.822-0.313-0.822-0.773v-0.033h-1.357v0.033c0,1.107,0.889,1.881,2.17,1.881c1.229,0,2.123-0.756,2.123-1.797
			C65.789,102.1,65.561,101.43,64.471,101.143z"/>
		<path fill="#3B4B56" d="M45.269,99.373c-0.473-0.359-1.049-0.551-1.639-0.549c-1.542,0-2.791,1.25-2.791,2.791
			s1.249,2.791,2.791,2.791c0.59,0.002,1.166-0.191,1.639-0.549v0.457h1.387v-5.402h-1.387V99.373z M45.269,101.615
			c0,0.836-0.68,1.516-1.518,1.516c-0.837,0-1.516-0.68-1.516-1.516c0-0.838,0.679-1.516,1.516-1.516c0,0,0,0,0.002,0
			C44.589,100.1,45.269,100.777,45.269,101.615L45.269,101.615z"/>
		<path fill="#3B4B56" d="M51.668,99.373c-0.471-0.359-1.047-0.551-1.639-0.549c-1.541,0-2.792,1.25-2.792,2.791
			s1.25,2.791,2.792,2.791c0.592,0.002,1.168-0.191,1.639-0.549v0.457h1.387v-7.322h-1.387V99.373z M50.15,103.131
			c-0.836,0-1.516-0.68-1.516-1.516c0-0.838,0.678-1.518,1.516-1.518s1.518,0.678,1.518,1.516v0.002
			C51.668,102.451,50.988,103.131,50.15,103.131L50.15,103.131z"/>
		<rect x="59.502" y="98.916" fill="#3B4B56" width="1.389" height="5.398"/>
		<path fill="#3B4B56" d="M60.195,96.781c-0.465-0.004-0.848,0.371-0.852,0.84c-0.002,0.469,0.373,0.848,0.84,0.854
			c0.469,0.002,0.85-0.375,0.854-0.842c0.01-0.463-0.357-0.844-0.82-0.852C60.211,96.781,60.203,96.781,60.195,96.781z"/>
		<path fill="#3B4B56" d="M68.998,98.824c-1.541,0-2.791,1.25-2.791,2.791s1.25,2.791,2.791,2.791s2.791-1.25,2.791-2.791l0,0
			C71.789,100.074,70.539,98.824,68.998,98.824z M68.998,103.131c-0.838,0-1.518-0.68-1.518-1.516c0-0.838,0.68-1.518,1.518-1.518
			c0.836,0,1.516,0.678,1.516,1.516v0.002C70.514,102.451,69.836,103.131,68.998,103.131z"/>
		<polygon fill="#3B4B56" points="29.294,96.992 23.968,96.992 23.968,98.23 25.941,98.23 25.941,104.314 27.324,104.314 
			27.324,98.23 29.294,98.23 		"/>
		<polygon fill="#3B4B56" points="56.229,102.836 54.994,98.916 53.535,98.916 55.387,104.314 57.059,104.314 58.922,98.916 
			57.463,98.916 		"/>
		<path fill="#3B4B56" d="M75.547,100.203v-1.287h-0.65c-0.508,0-0.953,0.264-1.072,0.906v-0.906h-1.391v5.402h1.391v-3.242
			c0-0.586,0.377-0.873,0.963-0.873H75.547z"/>
	</g>
	<g>
		<path fill="#3B4B56" d="M45.111,66.846v0.76H42.07v-0.602l1.552-1.467c0.164-0.158,0.276-0.293,0.333-0.406
			c0.058-0.115,0.087-0.225,0.087-0.336c0-0.162-0.056-0.283-0.165-0.371c-0.109-0.086-0.268-0.129-0.48-0.129
			c-0.176,0-0.335,0.031-0.477,0.102c-0.141,0.066-0.26,0.166-0.355,0.301l-0.679-0.438c0.157-0.234,0.373-0.418,0.649-0.549
			c0.276-0.133,0.593-0.197,0.949-0.197c0.299,0,0.561,0.047,0.783,0.146c0.225,0.098,0.399,0.232,0.523,0.414
			c0.125,0.178,0.188,0.387,0.188,0.629c0,0.219-0.047,0.422-0.139,0.613c-0.091,0.193-0.27,0.41-0.534,0.656l-0.925,0.873H45.111z"
			/>
		<path fill="#3B4B56" d="M46.317,67.428c-0.261-0.166-0.464-0.404-0.612-0.717c-0.146-0.311-0.221-0.686-0.221-1.119
			c0-0.43,0.074-0.803,0.221-1.117c0.148-0.313,0.352-0.551,0.612-0.715s0.558-0.246,0.892-0.246s0.63,0.082,0.891,0.246
			c0.26,0.164,0.465,0.402,0.612,0.715c0.148,0.314,0.221,0.688,0.221,1.117c0,0.434-0.072,0.809-0.221,1.119
			c-0.146,0.313-0.352,0.551-0.612,0.717c-0.261,0.164-0.557,0.246-0.891,0.246S46.578,67.592,46.317,67.428z M47.787,66.57
			c0.139-0.211,0.209-0.535,0.209-0.979c0-0.441-0.07-0.764-0.209-0.977c-0.141-0.211-0.332-0.316-0.578-0.316
			c-0.242,0-0.432,0.105-0.572,0.316c-0.14,0.213-0.209,0.535-0.209,0.977c0,0.443,0.069,0.768,0.209,0.979
			c0.141,0.211,0.33,0.316,0.572,0.316C47.455,66.887,47.646,66.781,47.787,66.57z"/>
		<path fill="#3B4B56" d="M50.904,63.582v4.023h-0.93v-3.277h-0.807v-0.746H50.904z"/>
		<path fill="#3B4B56" d="M54.816,65.881c0.105,0.162,0.158,0.348,0.158,0.557c0,0.25-0.07,0.467-0.213,0.652
			c-0.143,0.189-0.342,0.332-0.598,0.432c-0.256,0.104-0.555,0.152-0.891,0.152c-0.338,0-0.635-0.049-0.889-0.152
			c-0.256-0.1-0.453-0.242-0.592-0.432c-0.141-0.186-0.211-0.402-0.211-0.652c0-0.209,0.053-0.395,0.158-0.557
			c0.105-0.16,0.256-0.291,0.451-0.393c-0.148-0.09-0.264-0.205-0.344-0.346c-0.08-0.139-0.121-0.301-0.121-0.48
			c0-0.234,0.064-0.436,0.195-0.609c0.131-0.172,0.313-0.305,0.547-0.4c0.232-0.094,0.502-0.139,0.805-0.139
			c0.307,0,0.578,0.045,0.813,0.139c0.236,0.096,0.418,0.229,0.549,0.4c0.131,0.174,0.195,0.375,0.195,0.609
			c0,0.18-0.039,0.342-0.121,0.48c-0.08,0.141-0.195,0.256-0.35,0.346C54.559,65.59,54.711,65.721,54.816,65.881z M53.828,66.832
			c0.137-0.107,0.203-0.248,0.203-0.422c0-0.176-0.066-0.318-0.203-0.42c-0.137-0.104-0.322-0.156-0.555-0.156
			c-0.23,0-0.412,0.053-0.547,0.156c-0.135,0.102-0.201,0.244-0.201,0.42c0,0.18,0.066,0.32,0.201,0.426
			c0.135,0.104,0.316,0.154,0.547,0.154C53.506,66.99,53.691,66.938,53.828,66.832z M52.822,64.332
			c-0.113,0.09-0.17,0.213-0.17,0.371c0,0.152,0.055,0.273,0.166,0.363c0.111,0.084,0.264,0.131,0.455,0.131
			s0.344-0.047,0.459-0.131c0.115-0.09,0.174-0.211,0.174-0.363c0-0.158-0.059-0.281-0.174-0.371s-0.268-0.137-0.459-0.137
			C53.086,64.195,52.936,64.242,52.822,64.332z"/>
	</g>
	<g>
		<path fill="#3B4B56" d="M26.136,45.235h-1.571v-1.402h4.951v1.402h-1.571v3.963h-1.809V45.235z"/>
		<path fill="#3B4B56" d="M32.283,47.848h-0.49v1.35h-1.809v-5.365h2.582c0.496,0,0.928,0.084,1.296,0.245
			c0.368,0.164,0.651,0.399,0.851,0.706s0.299,0.665,0.299,1.074c0,0.382-0.087,0.718-0.26,1.003
			c-0.174,0.285-0.425,0.514-0.752,0.683l1.127,1.654h-1.932L32.283,47.848z M33.002,45.393c-0.122-0.109-0.306-0.164-0.552-0.164
			h-0.658v1.256h0.658c0.246,0,0.43-0.055,0.552-0.166c0.124-0.109,0.185-0.263,0.185-0.461
			C33.187,45.658,33.126,45.502,33.002,45.393z"/>
		<path fill="#3B4B56" d="M39.349,48.263H37.31l-0.359,0.935h-1.84l2.346-5.365h1.777l2.346,5.365h-1.87L39.349,48.263z
			 M38.851,46.959l-0.521-1.35l-0.521,1.35H38.851z"/>
		<path fill="#3B4B56" d="M47.297,43.833l-2.269,5.365H43.25l-2.269-5.365h1.947l1.278,3.135l1.312-3.135H47.297z"/>
		<path fill="#3B4B56" d="M51.936,47.834v1.363h-4.461v-5.365h4.362v1.364h-2.584v0.63h2.27v1.302h-2.27v0.706H51.936z"/>
		<path fill="#3B4B56" d="M52.633,43.833h1.809v3.964h2.422v1.401h-4.23V43.833z"/>
		<path fill="#3B4B56" d="M57.361,43.833h1.809v3.964h2.422v1.401h-4.23V43.833z"/>
		<path fill="#3B4B56" d="M66.551,47.834v1.363H62.09v-5.365h4.361v1.364h-2.584v0.63h2.27v1.302h-2.27v0.706H66.551z"/>
		<path fill="#3B4B56" d="M69.547,47.848h-0.49v1.35h-1.809v-5.365h2.584c0.494,0,0.926,0.084,1.295,0.245
			c0.367,0.164,0.65,0.399,0.85,0.706s0.299,0.665,0.299,1.074c0,0.382-0.086,0.718-0.26,1.003s-0.424,0.514-0.752,0.683
			l1.127,1.654h-1.932L69.547,47.848z M70.268,45.393c-0.123-0.109-0.307-0.164-0.553-0.164h-0.658v1.256h0.658
			c0.246,0,0.43-0.055,0.553-0.166c0.123-0.109,0.186-0.263,0.186-0.461C70.453,45.658,70.391,45.502,70.268,45.393z"/>
	</g>
	<g>
		<path fill="#3B4B56" d="M35.425,57.445h-2.246l-0.396,1.031h-2.026l2.584-5.912h1.959l2.583,5.912h-2.06L35.425,57.445z
			 M34.876,56.008l-0.574-1.484l-0.574,1.484H34.876z"/>
		<path fill="#3B4B56" d="M47.485,52.565l-1.892,5.912h-2.137l-0.955-3.16l-1.004,3.16h-2.137l-1.892-5.912h2.053l1.03,3.359
			l1.089-3.359h1.833l1.029,3.402l1.09-3.402H47.485z"/>
		<path fill="#3B4B56" d="M51.74,57.445h-2.246l-0.396,1.031h-2.026l2.583-5.912h1.961l2.584,5.912h-2.063L51.74,57.445z
			 M51.191,56.008l-0.574-1.484l-0.574,1.484H51.191z"/>
		<path fill="#3B4B56" d="M57.053,56.988h-0.541v1.488H54.52v-5.912h2.846c0.545,0,1.021,0.088,1.428,0.27
			c0.404,0.179,0.717,0.439,0.938,0.776c0.219,0.338,0.328,0.731,0.328,1.184c0,0.42-0.096,0.789-0.287,1.104
			c-0.191,0.316-0.467,0.568-0.826,0.752l1.24,1.826h-2.127L57.053,56.988z M57.846,54.283c-0.135-0.121-0.338-0.183-0.607-0.183
			h-0.727v1.386h0.727c0.27,0,0.473-0.063,0.607-0.182c0.137-0.121,0.203-0.293,0.203-0.51
			C58.049,54.574,57.982,54.404,57.846,54.283z"/>
		<path fill="#3B4B56" d="M60.811,52.565h2.914c0.658,0,1.24,0.12,1.742,0.357c0.504,0.24,0.896,0.583,1.174,1.026
			c0.279,0.444,0.42,0.967,0.42,1.571s-0.141,1.125-0.42,1.572c-0.277,0.443-0.67,0.785-1.174,1.025
			c-0.502,0.238-1.084,0.359-1.742,0.359h-2.914V52.565z M63.639,56.922c0.428,0,0.77-0.123,1.027-0.369
			c0.256-0.244,0.385-0.588,0.385-1.033s-0.129-0.789-0.385-1.033c-0.258-0.246-0.6-0.369-1.027-0.369h-0.836v2.804H63.639z"/>
	</g>
	<g>
		<path fill="#3B4B56" d="M33.8,35.643c0.328,0.149,0.581,0.359,0.759,0.633c0.177,0.272,0.266,0.596,0.266,0.97
			c0,0.369-0.089,0.691-0.266,0.966c-0.178,0.275-0.431,0.487-0.759,0.632c-0.327,0.146-0.715,0.219-1.16,0.219h-1.013v1.389h-1.164
			v-5.031h2.177C33.085,35.419,33.473,35.496,33.8,35.643z M33.374,37.888c0.183-0.15,0.272-0.364,0.272-0.643
			c0-0.282-0.09-0.499-0.272-0.65s-0.448-0.228-0.798-0.228h-0.948v1.746h0.948C32.925,38.114,33.191,38.04,33.374,37.888z"/>
		<path fill="#3B4B56" d="M36.748,40.198c-0.42-0.224-0.748-0.535-0.985-0.929c-0.237-0.396-0.355-0.841-0.355-1.334
			c0-0.492,0.118-0.938,0.355-1.333c0.237-0.395,0.565-0.705,0.985-0.929c0.418-0.228,0.889-0.339,1.412-0.339
			c0.521,0,0.99,0.111,1.408,0.339c0.417,0.224,0.744,0.534,0.984,0.929c0.238,0.396,0.359,0.841,0.359,1.333
			c0,0.493-0.121,0.938-0.359,1.334c-0.24,0.394-0.567,0.705-0.984,0.929c-0.418,0.226-0.887,0.339-1.408,0.339
			C37.636,40.537,37.166,40.423,36.748,40.198z M38.962,39.339c0.24-0.137,0.43-0.327,0.565-0.571
			c0.136-0.245,0.204-0.522,0.204-0.833c0-0.312-0.068-0.589-0.204-0.833c-0.136-0.245-0.325-0.435-0.565-0.571
			c-0.238-0.137-0.506-0.205-0.803-0.205s-0.566,0.068-0.805,0.205c-0.24,0.137-0.429,0.326-0.564,0.571
			c-0.137,0.244-0.206,0.521-0.206,0.833c0,0.311,0.069,0.588,0.206,0.833c0.136,0.244,0.324,0.435,0.564,0.571
			c0.238,0.138,0.508,0.205,0.805,0.205S38.724,39.477,38.962,39.339z"/>
		<path fill="#3B4B56" d="M45.125,35.643c0.328,0.149,0.581,0.359,0.758,0.633c0.178,0.272,0.267,0.596,0.267,0.97
			c0,0.369-0.089,0.691-0.267,0.966c-0.177,0.275-0.43,0.487-0.758,0.632c-0.328,0.146-0.715,0.219-1.16,0.219h-1.012v1.389h-1.165
			v-5.031h2.177C44.41,35.419,44.796,35.496,45.125,35.643z M44.698,37.888c0.182-0.15,0.272-0.364,0.272-0.643
			c0-0.282-0.091-0.499-0.272-0.65c-0.183-0.151-0.448-0.228-0.798-0.228h-0.947v1.746H43.9
			C44.25,38.114,44.515,38.04,44.698,37.888z"/>
		<path fill="#3B4B56" d="M47.511,39.94c-0.4-0.399-0.601-0.965-0.601-1.703v-2.817h1.165v2.774c0,0.9,0.374,1.351,1.122,1.351
			c0.363,0,0.641-0.109,0.832-0.326c0.191-0.219,0.287-0.561,0.287-1.024v-2.774h1.15v2.817c0,0.738-0.201,1.304-0.6,1.703
			c-0.4,0.397-0.961,0.597-1.678,0.597C48.471,40.537,47.911,40.337,47.511,39.94z"/>
		<path fill="#3B4B56" d="M52.617,35.419h1.164v4.082h2.521v0.949h-3.686V35.419z"/>
		<path fill="#3B4B56" d="M60.313,39.371h-2.336l-0.445,1.08h-1.193l2.242-5.031h1.15l2.248,5.031h-1.221L60.313,39.371z
			 M59.945,38.489l-0.799-1.927l-0.797,1.927H59.945z"/>
		<path fill="#3B4B56" d="M65.707,40.451l-0.969-1.4H64.68h-1.012v1.4h-1.164v-5.031h2.176c0.445,0,0.834,0.076,1.162,0.224
			c0.328,0.149,0.58,0.359,0.758,0.633c0.176,0.272,0.266,0.596,0.266,0.97c0,0.373-0.09,0.695-0.27,0.966s-0.436,0.479-0.766,0.622
			l1.129,1.617H65.707z M65.414,36.595c-0.182-0.151-0.449-0.228-0.799-0.228h-0.947v1.755h0.947c0.35,0,0.617-0.078,0.799-0.231
			c0.182-0.152,0.273-0.367,0.273-0.646C65.688,36.963,65.596,36.747,65.414,36.595z"/>
	</g>
	<path fill="#3B4B56" d="M57.283,6.539c-0.135-0.322-0.451-0.534-0.801-0.534h-4.99L49.48,0.996
		c-0.131-0.326-0.451-0.543-0.805-0.543c-0.354,0-0.672,0.216-0.805,0.543l-2.012,5.009h-4.99c-0.35,0-0.666,0.212-0.801,0.534
		c-0.135,0.324-0.061,0.696,0.186,0.943l4.059,4.083l-2.02,5.047c-0.137,0.345-0.039,0.741,0.244,0.981
		c0.283,0.241,0.689,0.276,1.008,0.084l5.131-3.077l5.129,3.077c0.32,0.192,0.725,0.157,1.01-0.084
		c0.283-0.24,0.381-0.637,0.242-0.981l-2.018-5.047l4.059-4.083C57.346,7.236,57.418,6.863,57.283,6.539z M51.406,10.747
		c-0.244,0.244-0.32,0.61-0.191,0.933l1.275,3.187l-3.367-2.022c-0.275-0.163-0.619-0.163-0.894,0l-3.369,2.022l1.274-3.187
		c0.129-0.322,0.055-0.688-0.19-0.933L42.955,7.74h3.489c0.354,0,0.673-0.216,0.806-0.544l1.426-3.549l1.426,3.549
		c0.131,0.328,0.449,0.544,0.803,0.544h3.492L51.406,10.747z"/>
</g>
</svg>
