<?xml version="1.0" encoding="utf-8"?>
<!-- Generator: Adobe Illustrator 16.0.0, SVG Export Plug-In . SVG Version: 6.00 Build 0)  -->
<!DOCTYPE svg PUBLIC "-//W3C//DTD SVG 1.1//EN" "http://www.w3.org/Graphics/SVG/1.1/DTD/svg11.dtd">
<svg version="1.1" id="Layer_1" xmlns="http://www.w3.org/2000/svg" xmlns:xlink="http://www.w3.org/1999/xlink" x="0px" y="0px"
	 width="45.289px" height="45.285px" viewBox="0 0 45.289 45.285" enable-background="new 0 0 45.289 45.285" xml:space="preserve">
<g>
	<path fill="#8794A3" d="M22.643,0.321c-12.327,0-22.321,9.993-22.321,22.32c0,12.33,9.994,22.324,22.321,22.324
		c12.328,0,22.323-9.994,22.323-22.324C44.966,10.314,34.971,0.321,22.643,0.321 M22.643,42.285C11.796,42.285,3,33.49,3,22.641
		C3,11.793,11.796,3,22.643,3c10.851,0,19.644,8.793,19.644,19.641C42.287,33.49,33.494,42.285,22.643,42.285"/>
	<rect x="12.822" y="18.282" fill="#8794A3" width="4.206" height="12.984"/>
	<path fill="#8794A3" d="M15.203,11.927c-1.44,0-2.381,0.97-2.381,2.242c0,1.247,0.913,2.245,2.324,2.245h0.028
		c1.466,0,2.38-0.998,2.38-2.245C17.527,12.897,16.64,11.927,15.203,11.927"/>
	<path fill="#8794A3" d="M27.625,18.282c-2.234,0-3.234,1.262-3.792,2.145v-1.839h-4.205c0.054,1.221,0,12.985,0,12.985h4.205v-7.25
		c0-0.389,0.028-0.778,0.14-1.055c0.303-0.775,0.993-1.576,2.157-1.576c1.521,0,2.13,1.189,2.13,2.932v6.947h4.204v-7.445
		C32.463,20.139,30.391,18.282,27.625,18.282"/>
</g>
<g display="none">
	<path display="inline" fill="#8794A3" d="M191.53,0.642c-12.328,0-22.322,9.993-22.322,22.32c0,12.33,9.994,22.323,22.322,22.323
		c12.327,0,22.32-9.993,22.32-22.323C213.85,10.635,203.857,0.642,191.53,0.642 M191.53,42.605c-10.85,0-19.643-8.794-19.643-19.644
		c0-10.848,8.793-19.641,19.643-19.641c10.848,0,19.643,8.793,19.643,19.641C211.172,33.812,202.377,42.605,191.53,42.605"/>
	<path display="inline" fill="#8794A3" d="M191.288,19.728l-0.709-0.089c-2.583-0.345-4.84-1.515-6.756-3.477l-0.937-0.974
		l-0.242,0.722c-0.51,1.601-0.185,3.294,0.881,4.432c0.567,0.628,0.44,0.72-0.54,0.344c-0.341-0.119-0.639-0.21-0.666-0.164
		c-0.101,0.106,0.24,1.468,0.51,2.006c0.37,0.748,1.122,1.482,1.945,1.917l0.695,0.345l-0.822,0.015
		c-0.796,0-0.824,0.015-0.738,0.329c0.282,0.974,1.404,2.006,2.654,2.458l0.88,0.314l-0.767,0.478
		c-1.137,0.688-2.471,1.079-3.805,1.109c-0.639,0.013-1.164,0.074-1.164,0.117c0,0.149,1.732,0.99,2.74,1.319
		c3.021,0.973,6.613,0.555,9.311-1.108c1.915-1.186,3.833-3.534,4.725-5.811c0.484-1.213,0.966-3.429,0.966-4.492
		c0-0.689,0.044-0.779,0.839-1.604c0.468-0.477,0.907-1.002,0.992-1.149c0.143-0.287,0.128-0.287-0.597-0.031
		c-1.206,0.448-1.376,0.389-0.78-0.284c0.44-0.478,0.965-1.35,0.965-1.604c0-0.044-0.211,0.032-0.453,0.167
		c-0.256,0.147-0.822,0.372-1.25,0.508l-0.766,0.255l-0.695-0.496c-0.385-0.267-0.924-0.567-1.207-0.657
		c-0.723-0.21-1.83-0.182-2.482,0.059c-1.776,0.676-2.896,2.413-2.769,4.313"/>
</g>
<g display="none">
	<path display="inline" fill="#8794A3" d="M135.127,0.642c-12.33,0-22.322,9.993-22.322,22.32c0,12.33,9.992,22.323,22.322,22.323
		c12.328,0,22.32-9.993,22.32-22.323C157.448,10.635,147.456,0.642,135.127,0.642 M135.127,42.605
		c-10.85,0-19.644-8.794-19.644-19.644c0-10.848,8.794-19.641,19.644-19.641c10.848,0,19.642,8.793,19.642,19.641
		C154.769,33.812,145.975,42.605,135.127,42.605"/>
	<path display="inline" fill="#8794A3" d="M135.127,28.29c-2.6,0-4.713-2.111-4.713-4.711s2.113-4.714,4.713-4.714
		c2.598,0,4.711,2.114,4.711,4.714S137.725,28.29,135.127,28.29 M135.127,20.395c-1.756,0-3.183,1.429-3.183,3.185
		c0,1.754,1.427,3.183,3.183,3.183c1.754,0,3.182-1.429,3.182-3.183C138.309,21.823,136.881,20.395,135.127,20.395"/>
	<path display="inline" fill="#8794A3" d="M135.127,28.29c-2.6,0-4.713-2.111-4.713-4.711s2.113-4.714,4.713-4.714
		c2.598,0,4.711,2.114,4.711,4.714S137.725,28.29,135.127,28.29z M135.127,20.395c-1.756,0-3.183,1.429-3.183,3.185
		c0,1.754,1.427,3.183,3.183,3.183c1.754,0,3.182-1.429,3.182-3.183C138.309,21.823,136.881,20.395,135.127,20.395z"/>
	<path display="inline" fill="#8794A3" d="M141.184,33.309h-12.113c-2.529,0-4.588-2.058-4.588-4.588V17.202
		c0-2.528,2.059-4.584,4.588-4.584h12.113c2.529,0,4.586,2.056,4.586,4.584v11.519C145.77,31.251,143.713,33.309,141.184,33.309
		 M129.071,14.146c-1.688,0-3.059,1.372-3.059,3.057v11.519c0,1.688,1.371,3.061,3.059,3.061h12.113
		c1.686,0,3.058-1.373,3.058-3.061V17.202c0-1.685-1.372-3.057-3.058-3.057H129.071z"/>
	<path display="inline" fill="#8794A3" d="M141.184,33.309h-12.113c-2.529,0-4.588-2.058-4.588-4.588V17.202
		c0-2.528,2.059-4.584,4.588-4.584h12.113c2.529,0,4.586,2.056,4.586,4.584v11.519C145.77,31.251,143.713,33.309,141.184,33.309z
		 M129.071,14.146c-1.688,0-3.059,1.372-3.059,3.057v11.519c0,1.688,1.371,3.061,3.059,3.061h12.113
		c1.686,0,3.058-1.373,3.058-3.061V17.202c0-1.685-1.372-3.057-3.058-3.057H129.071z"/>
	<path display="inline" fill="#8794A3" d="M131.945,21.719h-6.44c-0.423,0-0.768-0.344-0.768-0.763c0-0.423,0.345-0.767,0.768-0.767
		h6.44c0.421,0,0.763,0.344,0.763,0.767C132.708,21.375,132.366,21.719,131.945,21.719"/>
	<path display="inline" fill="#8794A3" d="M131.945,21.719h-6.44c-0.423,0-0.768-0.344-0.768-0.763c0-0.423,0.345-0.767,0.768-0.767
		h6.44c0.421,0,0.763,0.344,0.763,0.767C132.708,21.375,132.366,21.719,131.945,21.719z"/>
	<path display="inline" fill="#8794A3" d="M144.823,21.719h-6.513c-0.423,0-0.765-0.344-0.765-0.763
		c0-0.423,0.342-0.767,0.765-0.767h6.513c0.422,0,0.766,0.344,0.766,0.767C145.588,21.375,145.245,21.719,144.823,21.719"/>
	<path display="inline" fill="#8794A3" d="M144.823,21.719h-6.513c-0.423,0-0.765-0.344-0.765-0.763
		c0-0.423,0.342-0.767,0.765-0.767h6.513c0.422,0,0.766,0.344,0.766,0.767C145.588,21.375,145.245,21.719,144.823,21.719z"/>
	<path display="inline" fill="#8794A3" d="M139.388,16.438c0-0.42,0.345-0.766,0.767-0.766h1.297c0.42,0,0.766,0.346,0.766,0.766
		v1.297c0,0.422-0.346,0.764-0.766,0.764h-1.297c-0.422,0-0.767-0.342-0.767-0.764V16.438z"/>
</g>
</svg>
