<?xml version="1.0" encoding="utf-8"?>
<!-- Generator: Adobe Illustrator 16.0.0, SVG Export Plug-In . SVG Version: 6.00 Build 0)  -->
<!DOCTYPE svg PUBLIC "-//W3C//DTD SVG 1.1//EN" "http://www.w3.org/Graphics/SVG/1.1/DTD/svg11.dtd">
<svg version="1.1" id="Layer_1" xmlns="http://www.w3.org/2000/svg" xmlns:xlink="http://www.w3.org/1999/xlink" x="0px" y="0px"
	 width="33.89px" height="35.214px" viewBox="0 0 33.89 35.214" enable-background="new 0 0 33.89 35.214" xml:space="preserve">
<g>
	<path fill="#8794A3" d="M2.595,14.518c1.298,0.918,2.575,1.82,3.914,2.769V16.93c0-2.74,0-5.482,0.001-8.223
		c0-1.498,0.992-2.493,2.487-2.494c5.31-0.001,10.619-0.001,15.93,0c1.46,0.001,2.454,0.996,2.455,2.456c0.001,2.74,0,5.482,0,8.223
		v0.398c1.333-0.942,2.621-1.854,3.936-2.782c-0.828-0.699-1.632-1.356-2.409-2.047c-0.189-0.169-0.352-0.425-0.415-0.67
		c-0.097-0.369,0.122-0.73,0.451-0.913c0.351-0.194,0.727-0.155,1.068,0.129c0.69,0.58,1.374,1.164,2.062,1.745
		c0.415,0.354,0.83,0.709,1.249,1.059c0.258,0.216,0.373,0.481,0.373,0.822c-0.005,5.714-0.002,11.429-0.004,17.144
		c-0.001,1.747-1.433,3.188-3.185,3.188c-9.043,0.006-18.086,0.006-27.128,0c-1.757,0-3.183-1.436-3.184-3.188
		c-0.004-5.713,0-11.428-0.005-17.143c0-0.341,0.113-0.605,0.371-0.823c1.118-0.934,2.229-1.871,3.349-2.804
		c0.441-0.365,0.977-0.324,1.322,0.08c0.342,0.403,0.289,0.946-0.146,1.316c-0.747,0.637-1.5,1.265-2.251,1.896
		C2.762,14.363,2.692,14.43,2.595,14.518 M21.597,23.636c1.428,1.092,2.826,2.159,4.224,3.227c1.038,0.79,2.072,1.583,3.111,2.373
		c0.311,0.237,0.449,0.548,0.38,0.929c-0.065,0.354-0.286,0.599-0.634,0.704c-0.353,0.106-0.647-0.01-0.929-0.227
		c-2.48-1.899-4.965-3.791-7.441-5.697c-0.216-0.165-0.349-0.171-0.567-0.008c-0.712,0.533-1.443,1.041-2.167,1.555
		c-0.457,0.323-0.791,0.321-1.251-0.008c-0.741-0.525-1.484-1.051-2.217-1.589c-0.167-0.121-0.271-0.129-0.442,0.002
		c-1.423,1.102-2.855,2.19-4.285,3.284c-1.101,0.84-2.196,1.688-3.303,2.521c-0.582,0.438-1.346,0.149-1.48-0.552
		c-0.085-0.445,0.155-0.742,0.49-0.997c2.121-1.619,4.239-3.244,6.356-4.867c0.275-0.213,0.548-0.426,0.846-0.659
		c-3.43-2.427-6.826-4.827-10.272-7.266v0.384c0,4.935,0,9.871,0,14.808c0,1.033,0.558,1.589,1.595,1.589c8.891,0,17.781,0,26.672,0
		c1.035,0,1.592-0.558,1.592-1.593c0.001-4.937,0.001-9.871,0.001-14.808v-0.38C28.42,18.808,25.018,21.215,21.597,23.636
		 M16.96,8.073c-2.66,0-5.318,0-7.979,0c-0.489,0-0.655,0.167-0.655,0.654c-0.001,3.193,0.002,6.389-0.005,9.585
		c-0.001,0.207,0.07,0.324,0.235,0.439c2.717,1.916,5.431,3.834,8.141,5.762c0.188,0.133,0.307,0.133,0.495,0
		c2.701-1.922,5.406-3.836,8.116-5.743c0.185-0.13,0.263-0.257,0.262-0.49c-0.009-3.164-0.006-6.328-0.006-9.492
		c0-0.565-0.148-0.715-0.718-0.715C22.217,8.073,19.588,8.073,16.96,8.073"/>
	<path fill="#8794A3" d="M16.939,2.381c-0.847,0.717-1.687,1.426-2.527,2.137c-0.177,0.149-0.349,0.307-0.533,0.448
		c-0.414,0.317-0.959,0.263-1.277-0.118c-0.321-0.384-0.294-0.939,0.101-1.278c1.203-1.033,2.413-2.059,3.63-3.076
		c0.395-0.331,0.844-0.329,1.218-0.014c1.207,1.014,2.408,2.035,3.606,3.059c0.352,0.301,0.446,0.709,0.278,1.089
		c-0.163,0.366-0.525,0.604-0.927,0.532c-0.214-0.038-0.438-0.158-0.609-0.298C18.956,4.083,18.027,3.29,17.093,2.5
		C17.048,2.463,17,2.427,16.939,2.381"/>
	<path fill="#8794A3" d="M16.942,10.442c1.598,0,3.196-0.002,4.792,0.001c0.565,0.001,0.943,0.322,0.985,0.817
		c0.046,0.548-0.336,0.988-0.89,1.007c-0.292,0.01-0.584,0.002-0.878,0.002c-2.922,0-5.845,0.001-8.767,0
		c-0.592,0-0.986-0.333-1.018-0.854c-0.034-0.561,0.355-0.97,0.954-0.972c1.546-0.006,3.093-0.002,4.641-0.002
		C16.82,10.442,16.881,10.442,16.942,10.442"/>
	<path fill="#8794A3" d="M16.946,15.924c-1.608,0-3.215,0.002-4.822-0.002c-0.571-0.002-0.962-0.381-0.96-0.907
		c0.001-0.519,0.388-0.909,0.927-0.915c0.728-0.006,1.456-0.002,2.183-0.002c2.498,0,4.995,0,7.492,0.002
		c0.446,0,0.784,0.232,0.916,0.613c0.128,0.376,0.016,0.813-0.324,1.021c-0.185,0.114-0.431,0.18-0.65,0.182
		C20.119,15.93,18.533,15.924,16.946,15.924"/>
	<path fill="#8794A3" d="M15.43,19.606c-1.091,0-2.182,0.004-3.273-0.002c-0.653-0.004-1.063-0.456-0.981-1.065
		c0.06-0.46,0.435-0.769,0.967-0.776c0.596-0.008,1.192-0.002,1.788-0.002c1.556,0,3.111-0.002,4.667,0
		c0.538,0.002,0.884,0.227,1.015,0.649c0.191,0.621-0.246,1.187-0.939,1.192C17.591,19.612,16.511,19.606,15.43,19.606"/>
</g>
</svg>
