<?xml version="1.0" encoding="utf-8"?>
<!-- Generator: Adobe Illustrator 16.0.0, SVG Export Plug-In . SVG Version: 6.00 Build 0)  -->
<!DOCTYPE svg PUBLIC "-//W3C//DTD SVG 1.1//EN" "http://www.w3.org/Graphics/SVG/1.1/DTD/svg11.dtd">
<svg version="1.1" id="Layer_1" xmlns="http://www.w3.org/2000/svg" xmlns:xlink="http://www.w3.org/1999/xlink" x="0px" y="0px"
	 width="34.431px" height="34.433px" viewBox="0 0 34.431 34.433" enable-background="new 0 0 34.431 34.433" xml:space="preserve">
<g>
	<path fill="#8794A3" d="M27.137,21.3c-0.699-0.73-1.543-1.119-2.438-1.119c-0.888,0-1.739,0.382-2.467,1.109l-2.279,2.274
		c-0.188-0.102-0.375-0.195-0.555-0.289c-0.259-0.131-0.505-0.253-0.714-0.384c-2.136-1.355-4.076-3.122-5.936-5.409
		c-0.901-1.139-1.507-2.098-1.947-3.071c0.591-0.542,1.139-1.104,1.674-1.646c0.201-0.201,0.402-0.411,0.605-0.613
		c1.515-1.514,1.515-3.476,0-4.992l-1.97-1.968c-0.224-0.223-0.454-0.455-0.671-0.686C10.006,4.061,9.552,3.6,9.083,3.167
		c-0.7-0.693-1.536-1.061-2.416-1.061S4.936,2.473,4.215,3.167C4.208,3.173,4.208,3.173,4.202,3.18L1.749,5.654
		C0.825,6.578,0.298,7.703,0.183,9.008c-0.172,2.106,0.448,4.068,0.924,5.351c1.168,3.153,2.914,6.075,5.517,9.206
		c3.159,3.771,6.961,6.75,11.303,8.849c1.659,0.786,3.873,1.716,6.346,1.875c0.152,0.008,0.312,0.015,0.456,0.015
		c1.665,0,3.065-0.599,4.161-1.789c0.008-0.013,0.021-0.021,0.029-0.036c0.375-0.454,0.808-0.866,1.262-1.305
		c0.31-0.297,0.628-0.605,0.938-0.931c0.714-0.742,1.089-1.608,1.089-2.496c0-0.895-0.384-1.752-1.111-2.474L27.137,21.3z
		 M29.719,28.894C29.712,28.894,29.712,28.901,29.719,28.894c-0.281,0.302-0.569,0.576-0.88,0.88
		c-0.468,0.447-0.945,0.916-1.392,1.442c-0.729,0.778-1.587,1.147-2.712,1.147c-0.108,0-0.224,0-0.331-0.009
		c-2.144-0.136-4.133-0.974-5.626-1.687c-4.083-1.977-7.667-4.782-10.646-8.338c-2.46-2.964-4.105-5.705-5.193-8.648
		c-0.671-1.796-0.917-3.194-0.808-4.515c0.072-0.844,0.396-1.544,0.996-2.142l2.459-2.461c0.353-0.332,0.729-0.511,1.096-0.511
		c0.455,0,0.823,0.273,1.053,0.505C7.742,4.565,7.75,4.573,7.757,4.581c0.439,0.41,0.858,0.836,1.298,1.289
		c0.223,0.232,0.454,0.463,0.686,0.701l1.968,1.969c0.766,0.765,0.766,1.472,0,2.235c-0.208,0.21-0.412,0.419-0.62,0.621
		c-0.606,0.62-1.182,1.197-1.811,1.76c-0.014,0.014-0.029,0.021-0.036,0.037c-0.62,0.619-0.505,1.226-0.375,1.637
		c0.008,0.021,0.014,0.042,0.021,0.063c0.513,1.241,1.233,2.41,2.33,3.802l0.008,0.008c1.99,2.452,4.09,4.363,6.404,5.827
		c0.296,0.188,0.599,0.34,0.887,0.483c0.261,0.131,0.505,0.253,0.715,0.384c0.028,0.013,0.058,0.035,0.087,0.049
		c0.244,0.122,0.476,0.18,0.713,0.18c0.599,0,0.974-0.374,1.097-0.496l2.466-2.467c0.244-0.245,0.635-0.541,1.089-0.541
		c0.447,0,0.813,0.28,1.039,0.526c0.006,0.006,0.006,0.006,0.014,0.015l3.974,3.974C30.455,27.373,30.455,28.129,29.719,28.894"/>
	<path fill="#8794A3" d="M18.597,8.258c1.889,0.317,3.607,1.212,4.977,2.583s2.257,3.086,2.582,4.977
		c0.079,0.476,0.49,0.808,0.959,0.808c0.058,0,0.109-0.007,0.166-0.016c0.534-0.086,0.888-0.59,0.801-1.124
		c-0.39-2.286-1.471-4.37-3.123-6.022s-3.736-2.733-6.023-3.124c-0.534-0.086-1.031,0.268-1.125,0.794
		C17.716,7.661,18.064,8.172,18.597,8.258"/>
	<path fill="#8794A3" d="M34.264,15.204c-0.642-3.765-2.417-7.19-5.143-9.917c-2.726-2.726-6.152-4.5-9.917-5.143
		c-0.527-0.094-1.024,0.267-1.117,0.793c-0.087,0.535,0.265,1.032,0.8,1.126c3.361,0.569,6.426,2.164,8.864,4.594
		c2.438,2.438,4.025,5.503,4.594,8.865c0.079,0.477,0.491,0.809,0.959,0.809c0.058,0,0.109-0.009,0.166-0.016
		C33.996,16.236,34.356,15.731,34.264,15.204"/>
</g>
</svg>
