<?xml version="1.0" encoding="utf-8"?>
<!-- Generator: Adobe Illustrator 16.0.0, SVG Export Plug-In . SVG Version: 6.00 Build 0)  -->
<!DOCTYPE svg PUBLIC "-//W3C//DTD SVG 1.1//EN" "http://www.w3.org/Graphics/SVG/1.1/DTD/svg11.dtd">
<svg version="1.1" id="Layer_1" xmlns="http://www.w3.org/2000/svg" xmlns:xlink="http://www.w3.org/1999/xlink" x="0px" y="0px"
	 width="45.289px" height="45.285px" viewBox="0 0 45.289 45.285" enable-background="new 0 0 45.289 45.285" xml:space="preserve">
<g display="none">
	<path display="inline" fill="#8794A3" d="M191.53,0.642c-12.328,0-22.322,9.993-22.322,22.32c0,12.33,9.994,22.323,22.322,22.323
		c12.327,0,22.32-9.993,22.32-22.323C213.85,10.635,203.857,0.642,191.53,0.642 M191.53,42.605c-10.85,0-19.643-8.794-19.643-19.644
		c0-10.848,8.793-19.641,19.643-19.641c10.848,0,19.643,8.793,19.643,19.641C211.172,33.812,202.377,42.605,191.53,42.605"/>
	<path display="inline" fill="#8794A3" d="M191.288,19.728l-0.709-0.089c-2.583-0.345-4.84-1.515-6.756-3.477l-0.937-0.974
		l-0.242,0.722c-0.51,1.601-0.185,3.294,0.881,4.432c0.567,0.628,0.44,0.72-0.54,0.344c-0.341-0.119-0.639-0.21-0.666-0.164
		c-0.101,0.106,0.24,1.468,0.51,2.006c0.37,0.748,1.122,1.482,1.945,1.917l0.695,0.345l-0.822,0.015
		c-0.796,0-0.824,0.015-0.738,0.329c0.282,0.974,1.404,2.006,2.654,2.458l0.88,0.314l-0.767,0.478
		c-1.137,0.688-2.471,1.079-3.805,1.109c-0.639,0.013-1.164,0.074-1.164,0.117c0,0.149,1.732,0.99,2.74,1.319
		c3.021,0.973,6.613,0.555,9.311-1.108c1.915-1.186,3.833-3.534,4.725-5.811c0.484-1.213,0.966-3.429,0.966-4.492
		c0-0.689,0.044-0.779,0.839-1.604c0.468-0.477,0.907-1.002,0.992-1.149c0.143-0.287,0.128-0.287-0.597-0.031
		c-1.206,0.448-1.376,0.389-0.78-0.284c0.44-0.478,0.965-1.35,0.965-1.604c0-0.044-0.211,0.032-0.453,0.167
		c-0.256,0.147-0.822,0.372-1.25,0.508l-0.766,0.255l-0.695-0.496c-0.385-0.267-0.924-0.567-1.207-0.657
		c-0.723-0.21-1.83-0.182-2.482,0.059c-1.776,0.676-2.896,2.413-2.769,4.313"/>
</g>
<g>
	<path fill="#8794A3" d="M22.645,0.321c-12.33,0-22.322,9.993-22.322,22.32c0,12.33,9.992,22.324,22.322,22.324
		c12.328,0,22.32-9.994,22.32-22.324C44.965,10.314,34.973,0.321,22.645,0.321 M22.645,42.285c-10.85,0-19.644-8.795-19.644-19.644
		C3.001,11.793,11.795,3,22.645,3c10.848,0,19.642,8.793,19.642,19.641C42.287,33.49,33.493,42.285,22.645,42.285"/>
	<path fill="#8794A3" d="M22.645,27.969c-2.6,0-4.713-2.111-4.713-4.71c0-2.6,2.113-4.714,4.713-4.714
		c2.598,0,4.711,2.114,4.711,4.714C27.356,25.857,25.243,27.969,22.645,27.969 M22.645,20.074c-1.756,0-3.183,1.429-3.183,3.185
		c0,1.753,1.427,3.183,3.183,3.183c1.754,0,3.182-1.43,3.182-3.183C25.827,21.502,24.399,20.074,22.645,20.074"/>
	<path fill="#8794A3" d="M22.645,27.969c-2.6,0-4.713-2.111-4.713-4.71c0-2.6,2.113-4.714,4.713-4.714
		c2.598,0,4.711,2.114,4.711,4.714C27.356,25.857,25.243,27.969,22.645,27.969z M22.645,20.074c-1.756,0-3.183,1.429-3.183,3.185
		c0,1.753,1.427,3.183,3.183,3.183c1.754,0,3.182-1.43,3.182-3.183C25.827,21.502,24.399,20.074,22.645,20.074z"/>
	<path fill="#8794A3" d="M28.702,32.988H16.588C14.059,32.988,12,30.93,12,28.4V16.881c0-2.528,2.059-4.584,4.588-4.584h12.113
		c2.529,0,4.586,2.056,4.586,4.584V28.4C33.288,30.93,31.231,32.988,28.702,32.988 M16.588,13.825c-1.688,0-3.059,1.372-3.059,3.057
		V28.4c0,1.688,1.371,3.061,3.059,3.061h12.113c1.686,0,3.058-1.373,3.058-3.061V16.881c0-1.685-1.372-3.057-3.058-3.057H16.588z"/>
	<path fill="#8794A3" d="M28.702,32.988H16.588C14.059,32.988,12,30.93,12,28.4V16.881c0-2.528,2.059-4.584,4.588-4.584h12.113
		c2.529,0,4.586,2.056,4.586,4.584V28.4C33.288,30.93,31.231,32.988,28.702,32.988z M16.588,13.825
		c-1.688,0-3.059,1.372-3.059,3.057V28.4c0,1.688,1.371,3.061,3.059,3.061h12.113c1.686,0,3.058-1.373,3.058-3.061V16.881
		c0-1.685-1.372-3.057-3.058-3.057H16.588z"/>
	<path fill="#8794A3" d="M19.462,21.398h-6.44c-0.423,0-0.768-0.344-0.768-0.763c0-0.423,0.345-0.767,0.768-0.767h6.44
		c0.421,0,0.763,0.344,0.763,0.767C20.225,21.054,19.883,21.398,19.462,21.398"/>
	<path fill="#8794A3" d="M19.462,21.398h-6.44c-0.423,0-0.768-0.344-0.768-0.763c0-0.423,0.345-0.767,0.768-0.767h6.44
		c0.421,0,0.763,0.344,0.763,0.767C20.225,21.054,19.883,21.398,19.462,21.398z"/>
	<path fill="#8794A3" d="M32.34,21.398h-6.513c-0.423,0-0.765-0.344-0.765-0.763c0-0.423,0.342-0.767,0.765-0.767h6.513
		c0.422,0,0.766,0.344,0.766,0.767C33.106,21.054,32.762,21.398,32.34,21.398"/>
	<path fill="#8794A3" d="M32.34,21.398h-6.513c-0.423,0-0.765-0.344-0.765-0.763c0-0.423,0.342-0.767,0.765-0.767h6.513
		c0.422,0,0.766,0.344,0.766,0.767C33.106,21.054,32.762,21.398,32.34,21.398z"/>
	<path fill="#8794A3" d="M26.906,16.117c0-0.42,0.345-0.766,0.767-0.766h1.297c0.42,0,0.766,0.346,0.766,0.766v1.297
		c0,0.422-0.346,0.764-0.766,0.764h-1.297c-0.422,0-0.767-0.342-0.767-0.764V16.117z"/>
</g>
</svg>
