<?xml version="1.0" encoding="utf-8"?>
<!-- Generator: Adobe Illustrator 16.0.0, SVG Export Plug-In . SVG Version: 6.00 Build 0)  -->
<!DOCTYPE svg PUBLIC "-//W3C//DTD SVG 1.1//EN" "http://www.w3.org/Graphics/SVG/1.1/DTD/svg11.dtd">
<svg version="1.1" id="Layer_1" xmlns="http://www.w3.org/2000/svg" xmlns:xlink="http://www.w3.org/1999/xlink" x="0px" y="0px"
	 width="45.289px" height="45.285px" viewBox="0 0 45.289 45.285" enable-background="new 0 0 45.289 45.285" xml:space="preserve">
<g>
	<path fill="#8794A3" d="M22.645,0.321c-12.328,0-22.322,9.993-22.322,22.32c0,12.33,9.994,22.324,22.322,22.324
		c12.327,0,22.32-9.994,22.32-22.324C44.965,10.314,34.972,0.321,22.645,0.321 M22.645,42.285c-10.85,0-19.643-8.795-19.643-19.644
		C3.002,11.793,11.795,3,22.645,3c10.848,0,19.643,8.793,19.643,19.641C42.288,33.49,33.493,42.285,22.645,42.285"/>
	<path fill="#8794A3" d="M22.403,19.407l-0.709-0.089c-2.583-0.345-4.84-1.515-6.756-3.477l-0.937-0.974l-0.242,0.722
		c-0.51,1.601-0.185,3.294,0.881,4.432c0.567,0.628,0.44,0.72-0.54,0.344c-0.341-0.119-0.639-0.21-0.666-0.164
		c-0.101,0.106,0.24,1.468,0.51,2.006c0.37,0.748,1.122,1.483,1.945,1.917l0.695,0.346l-0.822,0.014
		c-0.796,0-0.824,0.016-0.738,0.33c0.282,0.973,1.404,2.006,2.654,2.457l0.88,0.314l-0.767,0.479
		c-1.137,0.688-2.471,1.078-3.805,1.109c-0.639,0.012-1.164,0.074-1.164,0.117c0,0.148,1.732,0.99,2.74,1.318
		c3.021,0.973,6.613,0.555,9.311-1.107c1.915-1.186,3.833-3.535,4.725-5.811c0.484-1.213,0.966-3.429,0.966-4.493
		c0-0.689,0.044-0.779,0.839-1.604c0.468-0.477,0.907-1.002,0.992-1.149c0.143-0.287,0.128-0.287-0.597-0.031
		c-1.206,0.448-1.376,0.389-0.78-0.284c0.44-0.478,0.965-1.35,0.965-1.604c0-0.044-0.211,0.032-0.453,0.167
		c-0.256,0.147-0.822,0.372-1.25,0.508l-0.766,0.255l-0.695-0.496c-0.385-0.267-0.924-0.567-1.207-0.657
		c-0.723-0.21-1.83-0.182-2.482,0.059c-1.776,0.676-2.896,2.413-2.769,4.313"/>
</g>
</svg>
