<?xml version="1.0" encoding="utf-8"?>
<!-- Generator: Adobe Illustrator 16.0.0, SVG Export Plug-In . SVG Version: 6.00 Build 0)  -->
<!DOCTYPE svg PUBLIC "-//W3C//DTD SVG 1.1//EN" "http://www.w3.org/Graphics/SVG/1.1/DTD/svg11.dtd">
<svg version="1.1" id="Layer_1" xmlns="http://www.w3.org/2000/svg" xmlns:xlink="http://www.w3.org/1999/xlink" x="0px" y="0px"
	 width="102.697px" height="102.607px" viewBox="0 0 102.697 102.607" enable-background="new 0 0 102.697 102.607"
	 xml:space="preserve">
<g>
	<g>
		<path fill="#3B4B56" d="M56.414,83.423H46.271c-0.934,0-1.689,0.756-1.689,1.689s0.756,1.689,1.689,1.689h10.144
			c0.935,0,1.691-0.756,1.691-1.689S57.349,83.423,56.414,83.423z"/>
		<g>
			<path fill="#3B4B56" d="M100.694,39.707c-0.325-0.875-1.298-1.32-2.172-0.996c-2.361,0.925-4.563,2.215-6.524,3.823
				c-0.11-1.932-0.36-3.854-0.747-5.749c-0.479-2.331-1.167-4.613-2.056-6.821h0.017c0.442-0.001,0.868-0.176,1.184-0.486
				c2.426-2.008,3.648-5.122,3.237-8.244c-1.075-6.03-9.207-9.774-9.554-9.933c-0.851-0.382-1.852-0.004-2.235,0.846
				c-0.612,1.417-1.091,2.89-1.427,4.396c-0.084-0.086-0.158-0.17-0.245-0.26c-1.189-1.178-2.449-2.285-3.773-3.311
				c0.383-3.634-1.022-7.227-3.769-9.638c-6.107-4.961-17.278-1.713-17.753-1.567c-0.894,0.266-1.402,1.207-1.138,2.1
				c0.142,0.475,3.53,11.604,11.015,14.022c0.95,0.31,1.944,0.468,2.943,0.469c2.525-0.084,4.966-0.933,6.999-2.432
				c1.081,0.859,2.114,1.774,3.097,2.746c0.784,0.786,1.485,1.563,2.154,2.355c0,0.122,0,0.244,0.011,0.367
				c-3.123-0.577-6.332-0.495-9.42,0.242c-0.905,0.23-1.451,1.15-1.221,2.055c0.092,0.368,2.35,9.018,8.092,11.133
				c0.843,0.314,1.734,0.475,2.633,0.474c2.201-0.09,4.318-0.864,6.058-2.217c0.176-0.129,0.325-0.292,0.438-0.478
				c0.578,1.585,1.045,3.21,1.395,4.86c0.379,1.919,0.605,3.865,0.676,5.819c-1.427-1.503-3.036-2.822-4.792-3.926
				c-0.385-0.231-0.845-0.301-1.28-0.193c-0.436,0.108-0.81,0.386-1.041,0.77c-0.194,0.325-4.752,8.02-2.213,13.586
				c1.35,2.658,3.93,4.471,6.888,4.838c-0.14,0.359-0.261,0.725-0.411,1.078c-0.93,2.219-2.079,4.338-3.432,6.328
				c-0.109,0.168-0.247,0.338-0.362,0.494c-0.372-2.375-1.091-4.68-2.133-6.844c-0.204-0.4-0.558-0.703-0.983-0.842
				c-0.427-0.139-0.891-0.102-1.29,0.102c-0.339,0.168-8.284,4.271-9.088,10.34c-0.272,2.775,0.796,5.514,2.874,7.371
				c-1.337,0.848-2.728,1.604-4.164,2.268c-0.95-1.252-2.431-1.99-4.003-1.994H59.25h-6.217h-3.381h-5.071h-5.072
				c-1.57,0.004-3.049,0.74-4,1.99c-1.437-0.664-2.827-1.422-4.165-2.27c2.08-1.857,3.147-4.596,2.875-7.371
				c-0.803-6.066-8.751-10.168-9.087-10.34c-0.399-0.203-0.863-0.24-1.29-0.1c-0.427,0.139-0.78,0.439-0.984,0.842
				c-1.044,2.164-1.765,4.471-2.138,6.846c-0.119-0.17-0.258-0.338-0.371-0.508c-1.351-1.984-2.499-4.102-3.429-6.318
				c-0.15-0.35-0.271-0.715-0.408-1.072c2.96-0.367,5.545-2.182,6.894-4.84c2.536-5.571-2.019-13.264-2.213-13.589
				c-0.231-0.384-0.605-0.661-1.04-0.77c-0.437-0.108-0.897-0.037-1.28,0.193c-1.756,1.104-3.366,2.422-4.794,3.925
				c0.072-1.957,0.299-3.905,0.677-5.827c0.35-1.646,0.815-3.268,1.393-4.85c0.113,0.185,0.263,0.347,0.438,0.475
				c1.738,1.353,3.855,2.128,6.057,2.219c0.899,0,1.791-0.161,2.633-0.474c5.748-2.117,8-10.767,8.092-11.133
				c0.231-0.904-0.315-1.826-1.22-2.056c-3.089-0.738-6.298-0.821-9.42-0.242c0-0.124,0.009-0.245,0.01-0.368
				c0.676-0.791,1.371-1.569,2.155-2.355c0.981-0.97,2.015-1.886,3.096-2.744c2.034,1.5,4.475,2.349,6.999,2.432
				c1,0,1.993-0.159,2.943-0.469c7.485-2.417,10.874-13.549,11.015-14.021c0.264-0.894-0.245-1.831-1.138-2.098
				c-0.474-0.14-11.645-3.381-17.763,1.557c-2.749,2.412-4.154,6.01-3.769,9.646c-1.325,1.024-2.585,2.13-3.773,3.31
				c-0.087,0.087-0.169,0.169-0.245,0.26c-0.337-1.507-0.814-2.979-1.427-4.396c-0.385-0.849-1.385-1.228-2.235-0.846
				c-0.347,0.158-8.479,3.903-9.553,9.934c-0.412,3.121,0.811,6.236,3.236,8.244c0.315,0.311,0.741,0.486,1.184,0.487h0.029
				c-0.886,2.205-1.571,4.485-2.048,6.813c-0.388,1.898-0.64,3.821-0.752,5.758c-1.959-1.608-4.158-2.897-6.518-3.823
				c-0.875-0.324-1.848,0.122-2.172,0.996c-0.134,0.355-3.197,8.756,0.324,13.764c1.881,2.445,4.876,3.768,7.951,3.514h0.185
				c0.481-0.006,0.938-0.217,1.255-0.578c0.146-0.17,0.274-0.34,0.411-0.508c0.458,1.648,1.02,3.268,1.683,4.848
				c1.014,2.416,2.265,4.727,3.735,6.896c0.092,0.135,0.204,0.27,0.296,0.404c-2.25-0.199-4.517-0.088-6.736,0.328
				c-0.913,0.191-1.5,1.086-1.311,1.998c0.078,0.373,1.947,9.129,7.595,11.496c0.935,0.396,1.938,0.602,2.953,0.602
				c2.08-0.08,4.094-0.756,5.799-1.949c0.401-0.26,0.676-0.676,0.754-1.146c0.097-0.59,0.156-1.184,0.18-1.779
				c0.468,0.35,0.941,0.688,1.413,1.006c1.885,1.262,3.874,2.359,5.948,3.279v8.303h-3.383c-2.801,0-5.071,2.271-5.071,5.072v5.072
				c0,0.934,0.757,1.689,1.69,1.689h47.337c0.935,0,1.69-0.756,1.69-1.689v-5.072c0-2.801-2.271-5.072-5.072-5.072h-3.381V81.88
				c2.068-0.92,4.055-2.018,5.936-3.279c0.48-0.322,0.947-0.701,1.421-1.055c0.021,0.611,0.081,1.221,0.18,1.824
				c0.077,0.471,0.351,0.889,0.753,1.146c1.705,1.193,3.719,1.871,5.799,1.949c1.015,0,2.02-0.205,2.954-0.602
				c5.646-2.365,7.516-11.127,7.594-11.494c0.188-0.91-0.396-1.803-1.306-1.996c-2.216-0.414-4.478-0.523-6.723-0.322
				c0.089-0.131,0.197-0.26,0.285-0.393c1.471-2.174,2.722-4.488,3.733-6.91c0.661-1.58,1.221-3.201,1.677-4.854
				c0.137,0.17,0.266,0.34,0.411,0.51c0.317,0.361,0.773,0.572,1.256,0.576h0.185c3.08,0.262,6.082-1.061,7.968-3.512
				C103.892,48.463,100.828,40.063,100.694,39.707z M65.974,10.696c2.004,0.852,3.928,1.883,5.747,3.078
				c-1.757,1.126-3.91,1.451-5.922,0.896h0.007c-4.319-1.39-7.087-7.188-8.229-10.096c3.521-0.732,9.637-1.288,12.938,1.373
				c1.356,1.169,2.213,2.813,2.391,4.594c-1.791-1.135-3.671-2.126-5.621-2.962c-0.559-0.246-1.208-0.172-1.697,0.194
				c-0.488,0.367-0.741,0.968-0.661,1.573C65.006,9.954,65.406,10.469,65.974,10.696z M32.166,5.953
				c3.52-2.851,9.894-1.988,12.949-1.363c-1.314,3.349-4.193,8.778-8.224,10.081c-2.013,0.557-4.169,0.229-5.927-0.896
				c1.819-1.196,3.743-2.228,5.747-3.078c0.567-0.228,0.968-0.742,1.047-1.349c0.08-0.605-0.173-1.206-0.662-1.573
				c-0.489-0.366-1.138-0.44-1.696-0.194c-1.95,0.836-3.83,1.827-5.621,2.964C29.957,8.766,30.812,7.121,32.166,5.953z
				 M10.656,52.005c-0.274,0.563-0.608,1.092-0.997,1.582c-1.763,0.084-3.46-0.68-4.564-2.057c-1.63-2.312-1.103-6.343-0.447-8.921
				c2.484,1.093,4.599,2.883,6.086,5.153c0.021,0.38,0.051,0.734,0.083,1.031c-0.135,0.499-0.222,1.008-0.26,1.522
				C10.527,50.88,10.562,51.449,10.656,52.005z M20.72,25.975c2.128-1.865,6.19-1.772,8.814-1.4
				c-0.928,2.491-2.786,6.101-5.438,7.075c-1.694,0.505-3.527,0.165-4.929-0.911C18.891,28.994,19.468,27.222,20.72,25.975z
				 M12.369,21.83c0.494-2.785,3.732-5.253,6.027-6.606c0.943,2.488,1.165,5.192,0.639,7.801c-0.181,0.134-0.365,0.256-0.536,0.404
				c-0.741,0.654-1.348,1.445-1.785,2.331c-0.284,0.158-0.581,0.29-0.887,0.397l-0.092,0.03c-0.525,0.161-1.063,0.274-1.609,0.338
				C12.821,25.333,12.167,23.587,12.369,21.83z M13.918,50.523c0.169-2.821,3.09-5.646,5.209-7.249v0.001
				c1.115,2.413,2.367,6.276,1.199,8.845c-0.834,1.559-2.364,2.623-4.116,2.859C14.777,53.947,13.925,52.291,13.918,50.523z
				 M23.669,78.066c-1.447,1.01-3.291,1.264-4.958,0.686c-2.611-1.094-4.31-4.797-5.124-7.332c2.635-0.377,5.322,0.002,7.751,1.088
				c0.09,0.205,0.169,0.412,0.277,0.611c0.475,0.865,1.113,1.631,1.881,2.252C23.716,76.251,23.774,77.164,23.669,78.066z
				 M28.895,74.066c-0.492-0.076-0.978-0.195-1.451-0.35c-0.041-0.02-0.083-0.035-0.126-0.051c-1.151-0.346-2.128-1.117-2.731-2.158
				c-1.355-2.48-0.374-6.424,0.569-8.91c2.222,1.447,5.336,4.045,5.71,6.855C30.986,71.218,30.254,72.933,28.895,74.066z
				 M37.817,81.732c0-0.934,0.757-1.689,1.69-1.689h23.669c0.934,0,1.69,0.756,1.69,1.689v8.453h-27.05V81.732z M71.629,93.566
				c0.935,0,1.691,0.758,1.691,1.691v3.381H29.364v-3.381c0-0.936,0.758-1.691,1.691-1.691H71.629z M78.1,71.5
				c-0.604,1.041-1.58,1.813-2.732,2.158c-0.044,0.014-0.084,0.037-0.128,0.051c-0.473,0.156-0.957,0.273-1.449,0.352
				c-1.356-1.131-2.089-2.844-1.969-4.607c0.368-2.797,3.485-5.402,5.71-6.854v-0.004C78.474,65.08,79.454,69.019,78.1,71.5z
				 M89.099,71.419c-0.816,2.535-2.514,6.232-5.124,7.326c-1.667,0.578-3.511,0.322-4.959-0.686c-0.104-0.9-0.048-1.813,0.169-2.693
				c0.769-0.621,1.407-1.385,1.882-2.252c0.108-0.199,0.188-0.406,0.277-0.609C83.775,71.423,86.463,71.044,89.099,71.419z
				 M83.511,30.736c-1.4,1.077-3.233,1.417-4.928,0.913v-0.002c-2.654-0.974-4.512-4.588-5.438-7.078
				c2.626-0.375,6.68-0.472,8.81,1.4C83.209,27.216,83.789,28.99,83.511,30.736z M86.475,54.976
				c-1.75-0.236-3.281-1.299-4.115-2.857v-0.002c-1.183-2.569,0.083-6.431,1.199-8.844c2.118,1.607,5.039,4.428,5.209,7.248
				C88.761,52.287,87.908,53.943,86.475,54.976z M88.56,26.517c-0.546-0.063-1.085-0.177-1.609-0.337l-0.091-0.031
				c-0.308-0.107-0.604-0.24-0.888-0.397c-0.438-0.887-1.044-1.679-1.786-2.329c-0.169-0.148-0.354-0.273-0.534-0.404
				c-0.521-2.606-0.3-5.306,0.639-7.792v-0.002c2.295,1.354,5.532,3.819,6.025,6.604C90.516,23.582,89.862,25.326,88.56,26.517z
				 M97.6,51.527c-1.104,1.379-2.802,2.145-4.564,2.061c-0.384-0.49-0.714-1.02-0.986-1.58c0.098-0.557,0.131-1.125,0.102-1.691
				c-0.037-0.514-0.125-1.022-0.26-1.521c0.033-0.347,0.059-0.681,0.075-1.005c1.481-2.28,3.596-4.081,6.082-5.181
				C98.703,45.183,99.232,49.205,97.6,51.527z"/>
		</g>
		<g>
			<path fill="#3B4B56" d="M46.456,29.797c0.204,0.267,0.306,0.595,0.306,0.985c0,0.552-0.214,0.977-0.644,1.273
				c-0.429,0.297-1.055,0.446-1.876,0.446h-3.259V26.2h3.078c0.769,0,1.357,0.147,1.769,0.441s0.617,0.692,0.617,1.197
				c0,0.306-0.074,0.579-0.221,0.819c-0.147,0.24-0.353,0.43-0.616,0.566C45.97,29.338,46.252,29.529,46.456,29.797z M42.433,27.298
				v1.486h1.448c0.361,0,0.634-0.063,0.82-0.189c0.186-0.127,0.278-0.313,0.278-0.559s-0.093-0.431-0.278-0.553
				c-0.187-0.124-0.459-0.186-0.82-0.186H42.433z M45.003,31.215c0.194-0.127,0.292-0.321,0.292-0.586
				c0-0.522-0.387-0.783-1.161-0.783h-1.701v1.558h1.701C44.518,31.403,44.807,31.34,45.003,31.215z"/>
			<path fill="#3B4B56" d="M52.748,31.332v1.17h-4.879V26.2h4.762v1.171h-3.313v1.368h2.926v1.134h-2.926v1.459H52.748z"/>
			<path fill="#3B4B56" d="M54.535,32.407c-0.466-0.135-0.839-0.312-1.121-0.527l0.495-1.098c0.271,0.197,0.591,0.356,0.963,0.477
				c0.373,0.121,0.744,0.181,1.116,0.181c0.414,0,0.721-0.062,0.919-0.185c0.197-0.123,0.297-0.286,0.297-0.49
				c0-0.15-0.06-0.275-0.176-0.374c-0.117-0.099-0.268-0.179-0.45-0.239c-0.183-0.06-0.431-0.125-0.742-0.197
				c-0.48-0.114-0.873-0.228-1.18-0.342c-0.306-0.114-0.568-0.298-0.787-0.55c-0.22-0.252-0.329-0.588-0.329-1.009
				c0-0.365,0.099-0.697,0.297-0.994s0.497-0.532,0.896-0.707c0.398-0.173,0.886-0.261,1.462-0.261c0.402,0,0.796,0.049,1.18,0.145
				s0.72,0.233,1.008,0.414l-0.45,1.107c-0.582-0.33-1.164-0.496-1.746-0.496c-0.408,0-0.71,0.067-0.904,0.199
				c-0.195,0.132-0.293,0.307-0.293,0.521c0,0.216,0.112,0.377,0.338,0.481c0.225,0.105,0.568,0.209,1.03,0.312
				c0.48,0.113,0.873,0.228,1.18,0.342c0.306,0.114,0.568,0.293,0.787,0.539c0.22,0.246,0.329,0.58,0.329,1
				c0,0.359-0.101,0.688-0.302,0.985s-0.503,0.533-0.905,0.707c-0.401,0.174-0.891,0.261-1.467,0.261
				C55.481,32.609,55,32.541,54.535,32.407z"/>
			<path fill="#3B4B56" d="M60.867,27.389h-2.016V26.2h5.49v1.188h-2.017v5.113h-1.458V27.389z"/>
		</g>
		<g>
			<path fill="#3B4B56" d="M37.031,52.974h-2.925l-0.559,1.352h-1.494l2.809-6.301h1.44l2.816,6.301H37.59L37.031,52.974z
				 M36.572,51.867l-0.999-2.411l-0.999,2.411H36.572z"/>
			<path fill="#3B4B56" d="M43.945,51.076h1.332v2.557c-0.342,0.258-0.738,0.455-1.188,0.594s-0.903,0.207-1.359,0.207
				c-0.654,0-1.242-0.139-1.764-0.418c-0.522-0.279-0.933-0.666-1.229-1.16c-0.297-0.496-0.445-1.055-0.445-1.68
				c0-0.625,0.148-1.184,0.445-1.679s0.71-0.881,1.238-1.161c0.528-0.279,1.122-0.418,1.782-0.418c0.552,0,1.053,0.093,1.503,0.279
				c0.45,0.186,0.828,0.455,1.134,0.81l-0.936,0.864c-0.45-0.475-0.993-0.711-1.63-0.711c-0.401,0-0.759,0.084-1.07,0.251
				c-0.313,0.168-0.556,0.406-0.729,0.712c-0.175,0.306-0.261,0.657-0.261,1.053c0,0.391,0.086,0.738,0.261,1.043
				c0.174,0.307,0.416,0.545,0.725,0.717c0.309,0.17,0.661,0.256,1.058,0.256c0.42,0,0.798-0.09,1.135-0.27V51.076z"/>
			<path fill="#3B4B56" d="M51.506,53.156v1.17h-4.879v-6.301h4.763v1.17h-3.313v1.369h2.926v1.133h-2.926v1.459H51.506z"/>
			<path fill="#3B4B56" d="M58.446,48.024v6.301h-1.197L54.107,50.5v3.826h-1.44v-6.301h1.206l3.133,3.827v-3.827H58.446z"/>
			<path fill="#3B4B56" d="M61.214,54.015c-0.52-0.279-0.928-0.666-1.225-1.16c-0.297-0.496-0.445-1.055-0.445-1.68
				c0-0.625,0.148-1.184,0.445-1.679s0.705-0.881,1.225-1.161c0.519-0.279,1.103-0.418,1.751-0.418c0.546,0,1.039,0.095,1.48,0.287
				s0.812,0.468,1.111,0.828l-0.936,0.865c-0.427-0.492-0.954-0.738-1.584-0.738c-0.391,0-0.738,0.085-1.045,0.256
				c-0.306,0.172-0.545,0.409-0.716,0.716c-0.171,0.306-0.256,0.654-0.256,1.044s0.085,0.738,0.256,1.043
				c0.171,0.307,0.41,0.545,0.716,0.717c0.307,0.17,0.654,0.256,1.045,0.256c0.63,0,1.157-0.248,1.584-0.746l0.936,0.863
				c-0.3,0.365-0.672,0.646-1.116,0.838s-0.938,0.287-1.485,0.287C62.313,54.433,61.732,54.294,61.214,54.015z"/>
			<path fill="#3B4B56" d="M69.5,52.093v2.232h-1.459v-2.25l-2.438-4.051h1.548l1.684,2.799l1.683-2.799h1.432L69.5,52.093z"/>
		</g>
		<g>
			<path fill="#3B4B56" d="M30.302,37.558h-2.621v-1.546h7.138v1.546h-2.621v6.646h-1.896V37.558z"/>
			<path fill="#3B4B56" d="M41.057,44.203l-1.58-2.282h-0.094h-1.65v2.282h-1.896v-8.191h3.546c0.726,0,1.355,0.121,1.89,0.362
				s0.946,0.586,1.234,1.031c0.289,0.444,0.434,0.971,0.434,1.579s-0.146,1.133-0.438,1.574c-0.293,0.44-0.709,0.777-1.246,1.012
				l1.837,2.633H41.057z M40.577,37.925c-0.297-0.245-0.73-0.367-1.3-0.367h-1.545v2.854h1.545c0.569,0,1.003-0.125,1.3-0.375
				c0.296-0.25,0.444-0.6,0.444-1.053C41.021,38.523,40.873,38.171,40.577,37.925z"/>
			<path fill="#3B4B56" d="M49.832,42.447h-3.803l-0.726,1.756h-1.942l3.651-8.191h1.872l3.662,8.191h-1.989L49.832,42.447z
				 M49.236,41.009l-1.3-3.137l-1.299,3.137H49.236z"/>
			<path fill="#3B4B56" d="M60.833,36.012l-3.547,8.191h-1.872l-3.534-8.191h2.048l2.492,5.852l2.528-5.852H60.833z"/>
			<path fill="#3B4B56" d="M67.854,42.682v1.521h-6.343v-8.191h6.19v1.521h-4.307v1.779h3.804v1.474h-3.804v1.896H67.854z"/>
			<path fill="#3B4B56" d="M69.362,36.012h1.896v6.646h4.108v1.545h-6.004V36.012z"/>
		</g>
		<g>
			<path fill="#3B4B56" d="M41.488,63.171l-1.61,1.168l0.615,1.887c0.025,0.078,0,0.156-0.061,0.207
				c-0.061,0.043-0.147,0.043-0.217,0l-1.601-1.168L37.602,66l-0.597,0.434c-0.061,0.043-0.147,0.043-0.208,0
				c-0.061-0.051-0.086-0.129-0.069-0.207l0.615-1.887l-1.602-1.168c-0.069-0.045-0.096-0.123-0.069-0.199
				c0.026-0.07,0.096-0.123,0.173-0.123h1.982l0.614-1.887c0.026-0.078,0.096-0.121,0.174-0.121c0.077,0,0.146,0.043,0.172,0.121
				l0.606,1.887h1.99c0.079,0,0.148,0.053,0.174,0.123C41.575,63.048,41.549,63.126,41.488,63.171z"/>
			<path fill="#3B4B56" d="M47.979,63.171l-1.609,1.168l0.614,1.887c0.025,0.078,0,0.156-0.061,0.207
				c-0.062,0.043-0.147,0.043-0.217,0l-1.601-1.168L44.094,66l-0.598,0.434c-0.061,0.043-0.147,0.043-0.208,0
				c-0.06-0.051-0.086-0.129-0.068-0.207l0.614-1.887l-1.602-1.168c-0.068-0.045-0.095-0.123-0.068-0.199
				c0.025-0.07,0.095-0.123,0.172-0.123h1.982l0.614-1.887c0.026-0.078,0.096-0.121,0.174-0.121c0.077,0,0.146,0.043,0.172,0.121
				l0.606,1.887h1.99c0.079,0,0.148,0.053,0.174,0.123C48.066,63.048,48.041,63.126,47.979,63.171z"/>
			<path fill="#3B4B56" d="M54.471,63.171l-1.609,1.168l0.614,1.887c0.026,0.078,0,0.156-0.061,0.207
				c-0.061,0.043-0.147,0.043-0.216,0l-1.602-1.168L50.585,66l-0.597,0.434c-0.062,0.043-0.148,0.043-0.208,0
				c-0.061-0.051-0.087-0.129-0.069-0.207l0.614-1.887l-1.602-1.168c-0.069-0.045-0.096-0.123-0.069-0.199
				c0.026-0.07,0.096-0.123,0.173-0.123h1.982l0.615-1.887c0.025-0.078,0.095-0.121,0.173-0.121c0.077,0,0.147,0.043,0.173,0.121
				l0.605,1.887h1.991c0.078,0,0.147,0.053,0.173,0.123C54.558,63.048,54.531,63.126,54.471,63.171z"/>
			<path fill="#3B4B56" d="M60.963,63.171l-1.61,1.168l0.614,1.887c0.026,0.078,0,0.156-0.06,0.207
				c-0.062,0.043-0.148,0.043-0.217,0l-1.602-1.168L57.076,66l-0.597,0.434c-0.062,0.043-0.147,0.043-0.208,0
				c-0.061-0.051-0.087-0.129-0.069-0.207l0.614-1.887l-1.602-1.168c-0.068-0.045-0.095-0.123-0.068-0.199
				c0.025-0.07,0.095-0.123,0.173-0.123h1.981l0.615-1.887c0.026-0.078,0.095-0.121,0.173-0.121s0.147,0.043,0.173,0.121
				l0.606,1.887h1.99c0.078,0,0.147,0.053,0.173,0.123C61.049,63.048,61.022,63.126,60.963,63.171z"/>
			<path fill="#3B4B56" d="M67.453,63.171l-1.609,1.168l0.614,1.887c0.026,0.078,0,0.156-0.06,0.207
				c-0.062,0.043-0.148,0.043-0.217,0l-1.602-1.168L63.567,66l-0.597,0.434c-0.062,0.043-0.147,0.043-0.208,0
				c-0.061-0.051-0.087-0.129-0.069-0.207l0.614-1.887l-1.601-1.168c-0.069-0.045-0.096-0.123-0.069-0.199
				c0.025-0.07,0.095-0.123,0.173-0.123h1.982l0.614-1.887c0.025-0.078,0.095-0.121,0.173-0.121s0.147,0.043,0.173,0.121
				l0.606,1.887h1.99c0.078,0,0.147,0.053,0.173,0.123C67.54,63.048,67.515,63.126,67.453,63.171z"/>
		</g>
	</g>
</g>
</svg>
