<?xml version="1.0" encoding="utf-8"?>
<!-- Generator: Adobe Illustrator 16.0.0, SVG Export Plug-In . SVG Version: 6.00 Build 0)  -->
<!DOCTYPE svg PUBLIC "-//W3C//DTD SVG 1.1//EN" "http://www.w3.org/Graphics/SVG/1.1/DTD/svg11.dtd">
<svg version="1.1" id="Layer_1" xmlns="http://www.w3.org/2000/svg" xmlns:xlink="http://www.w3.org/1999/xlink" x="0px" y="0px"
	 width="192.26px" height="60.5px" viewBox="0 0 192.26 60.5" enable-background="new 0 0 192.26 60.5" xml:space="preserve">
<g>
	<g>
		<g>
			<path fill="#FF7F00" d="M55.083,16.29h20.563v5.605h-7.163v20.377H62.21V21.895h-7.127V16.29z"/>
			<path fill="#FF7F00" d="M84.776,16.29v25.982h-6.272V16.29H84.776z M82.438,16.29h5.529c2.228,0,4.083,0.358,5.567,1.076
				c1.484,0.718,2.611,1.714,3.378,2.988c0.767,1.275,1.151,2.753,1.151,4.436c0,1.657-0.385,3.124-1.151,4.397
				c-0.767,1.274-1.894,2.27-3.378,2.987c-1.484,0.719-3.34,1.077-5.567,1.077h-5.529v-4.862h5.085c0.841,0,1.564-0.129,2.171-0.389
				c0.605-0.261,1.07-0.643,1.392-1.151c0.321-0.506,0.482-1.119,0.482-1.837c0-0.717-0.161-1.33-0.482-1.837
				c-0.321-0.506-0.786-0.896-1.392-1.169c-0.606-0.271-1.33-0.408-2.171-0.408h-5.085V16.29z M91.494,30.505l8.129,11.767h-7.35
				l-7.312-11.767H91.494z"/>
			<path fill="#FF7F00" d="M109.753,34.216l0.297,1.374l-3.229,6.682h-7.089l13.658-27.615l13.696,27.615h-7.127l-3.118-6.422
				l0.224-1.596l-3.675-8.426L109.753,34.216z M107.044,32.472h12.879l0.408,4.788h-13.732L107.044,32.472z"/>
			<path fill="#FF7F00" d="M142.156,16.29h7.348l-13.695,27.614L122.15,16.29h7.312l6.347,15.513L142.156,16.29z"/>
			<path fill="#FF7F00" d="M158.226,16.29v25.982h-6.013V16.29H158.226z M156.371,16.29h13.102v5.159h-13.102V16.29z
				 M156.371,26.088h12.359v5.048h-12.359V26.088z M156.371,37.112h13.102v5.16h-13.102V37.112z"/>
			<path fill="#FF7F00" d="M180.867,16.29v20.599h10.43v5.383h-16.703V16.29H180.867z"/>
		</g>
	</g>
	<g>
		<g>
			<path fill="#808080" d="M124.736,54.508c-0.201-0.111-0.343-0.212-0.425-0.303c-0.083-0.094-0.124-0.211-0.124-0.357
				c0-0.184,0.078-0.443,0.233-0.783c0.155-0.339,0.427-0.874,0.812-1.607c0.108-0.236,0.32-0.658,0.631-1.262
				c0.787-1.502,1.181-2.611,1.181-3.324c-0.019-0.037-0.027-0.092-0.027-0.164c0-0.184,0.146-0.349,0.439-0.494
				c0.056-0.055,0.251-0.211,0.591-0.469c0.338-0.256,0.607-0.549,0.811-0.878c0.236-0.549,0.54-1.157,0.906-1.826
				c0.365-0.669,0.998-1.762,1.895-3.282c0.879-1.611,1.813-3.066,2.802-4.367c0.183-0.256,0.389-0.457,0.618-0.604
				c0.229-0.146,0.426-0.221,0.59-0.221c0.568,0,1.148,0.221,1.744,0.66c0.595,0.439,0.984,0.877,1.168,1.317
				c0.072,0.129,0.109,0.403,0.109,0.825c0,0.566-0.064,1.527-0.191,2.883c-0.037,0.238-0.074,0.613-0.111,1.127
				c-0.055,0.822-0.137,1.703-0.246,2.637c-0.201,2.05-0.348,3.652-0.439,4.805c-0.093,1.154-0.138,2.236-0.138,3.241
				c0,0.513,0.009,0.89,0.027,1.127v0.192l-0.027,0.632c-0.11,0.108-0.329,0.163-0.659,0.163c-0.366,0-0.732-0.059-1.099-0.178
				s-0.567-0.26-0.604-0.426c-0.018-0.018-0.045-0.035-0.082-0.055c-0.037-0.018-0.055-0.1-0.055-0.246l0.027-0.605l0.082-1.538
				l0.138-4.202l-0.356,0.027c-0.367,0-1.141,0.073-2.321,0.221c-1.181,0.146-1.927,0.266-2.238,0.356
				c-0.165,0-0.366,0.11-0.604,0.329c-0.238,0.221-0.449,0.506-0.632,0.853c-0.056,0.183-0.184,0.443-0.384,0.782
				c-0.203,0.34-0.303,0.535-0.303,0.59c-0.109,0.073-0.206,0.17-0.289,0.289c-0.082,0.119-0.133,0.197-0.15,0.233
				c0,0.202-0.179,0.72-0.536,1.552c-0.356,0.833-0.71,1.515-1.058,2.047l-0.742,1.043L124.736,54.508z M132.07,44.936
				c0.385-0.064,0.723-0.105,1.016-0.123c0.879-0.221,1.484-0.331,1.813-0.331c0.183,0,0.312,0.019,0.385,0.056
				c0.055,0.073,0.114,0.123,0.179,0.15c0.064,0.028,0.104,0.042,0.123,0.042c0.037-0.147,0.183-1.146,0.439-2.994
				c0.256-1.849,0.385-2.985,0.385-3.405c0-0.293-0.01-0.545-0.027-0.757c-0.02-0.21-0.037-0.343-0.056-0.397
				c-0.165,0-0.54,0.436-1.126,1.305c-0.586,0.871-1.153,1.854-1.702,2.952c-0.422,0.751-0.714,1.126-0.879,1.126
				c-0.129,0.129-0.403,0.559-0.824,1.291s-0.587,1.137-0.494,1.209C131.429,45.042,131.685,45,132.07,44.936z"/>
			<path fill="#808080" d="M148.769,45.992c0,0.423-0.137,0.815-0.412,1.183c-0.055,0.092-0.156,0.232-0.303,0.426
				c-0.146,0.191-0.275,0.389-0.385,0.59s-0.191,0.431-0.247,0.687c-0.055,0.349-0.159,0.765-0.315,1.249
				c-0.155,0.486-0.261,0.811-0.316,0.976c-0.146,0.385-0.311,0.897-0.494,1.538l-0.439,1.703c-0.402,1.392-0.871,2.468-1.4,3.227
				c-0.532,0.76-1.025,1.269-1.482,1.525c-0.238,0.091-0.468,0.137-0.688,0.137c-0.403,0-0.82-0.133-1.25-0.398
				s-0.801-0.627-1.112-1.085c-0.201-0.274-0.458-0.792-0.769-1.552c-0.312-0.76-0.412-1.166-0.303-1.222
				c0.073-0.257,0.34-0.385,0.797-0.385c0.22,0,0.42,0.031,0.604,0.096c0.183,0.063,0.284,0.142,0.302,0.233
				c0.164,0.477,0.366,0.842,0.604,1.1c0.147,0.237,0.306,0.421,0.481,0.549c0.174,0.128,0.343,0.191,0.508,0.191
				c0.108,0,0.183-0.018,0.219-0.054c0.293-0.22,0.518-0.485,0.674-0.798c0.154-0.311,0.371-0.887,0.645-1.73
				c0.422-1.463,0.751-2.507,0.989-3.131c0.055-0.2,0.146-0.428,0.274-0.686l-0.494,0.385c-0.184,0.146-0.385,0.297-0.604,0.453
				c-0.22,0.154-0.458,0.288-0.714,0.398c-0.129,0.165-0.449,0.246-0.962,0.246c-0.384,0-0.751-0.054-1.098-0.164
				c-0.349-0.183-0.609-0.395-0.783-0.633c-0.175-0.236-0.353-0.594-0.536-1.07c-0.072-0.146-0.109-0.375-0.109-0.687
				c0-0.788,0.183-1.629,0.549-2.526c0.348-0.715,0.897-1.474,1.648-2.28c0.75-0.805,1.4-1.29,1.949-1.455
				c0.439-0.22,0.898-0.329,1.374-0.329c0.201,0,0.348,0.018,0.44,0.055c0.291,0.036,0.521,0.1,0.686,0.191s0.439,0.303,0.824,0.633
				c0.879,0.877,1.392,1.5,1.538,1.867C148.732,45.59,148.769,45.774,148.769,45.992z M145.597,46.79
				c0.118-0.367,0.158-0.77,0.123-1.209c-0.02-0.457-0.221-0.687-0.605-0.687c-0.384,0-0.719,0.109-1.002,0.329
				c-0.283,0.221-0.654,0.615-1.112,1.182c-0.274,0.366-0.503,0.807-0.687,1.318c-0.164,0.458-0.247,0.851-0.247,1.182
				c0,0.402,0.109,0.649,0.329,0.741c0.586-0.019,1.045-0.119,1.373-0.304c0.33-0.182,0.715-0.62,1.154-1.316
				C145.253,47.567,145.477,47.156,145.597,46.79z"/>
			<path fill="#808080" d="M150.691,52.722c-0.641-0.587-0.961-1.419-0.961-2.5c0-0.42,0.027-0.888,0.082-1.401
				c0.037-0.438,0.215-1.043,0.535-1.813c0.32-0.769,0.76-1.52,1.319-2.251c0.558-0.733,1.212-1.272,1.964-1.621
				c0.348-0.165,0.641-0.278,0.878-0.343c0.238-0.064,0.513-0.096,0.824-0.096c0.751,0,1.36,0.137,1.827,0.412
				c0.467,0.273,0.796,0.585,0.988,0.934c0.192,0.348,0.289,0.648,0.289,0.906v0.137v0.082c0,0.219-0.129,0.623-0.385,1.209
				c-0.258,0.586-0.664,1.136-1.223,1.648c-0.559,0.512-1.277,0.795-2.156,0.851c-0.439,0-0.865-0.041-1.277-0.123
				c-0.412-0.083-0.672-0.124-0.783-0.124c-0.274,0-0.447,0.101-0.521,0.303c-0.072,0.201-0.109,0.539-0.109,1.016
				c0.055,0.514,0.197,0.87,0.426,1.071c0.229,0.202,0.563,0.302,1.003,0.302c0.22,0,0.476-0.063,0.769-0.192
				c0.293-0.146,0.641-0.374,1.043-0.686c0.221-0.183,0.395-0.312,0.522-0.385s0.284-0.11,0.467-0.11c0.165,0,0.356,0.11,0.577,0.33
				c0.22,0.219,0.338,0.431,0.357,0.631c-0.037,0.22-0.238,0.549-0.604,0.989c-0.366,0.439-0.843,0.833-1.429,1.182
				c-0.586,0.347-1.217,0.521-1.895,0.521C152.174,53.601,151.333,53.309,150.691,52.722z M154.894,46.872
				c0.183-0.092,0.462-0.324,0.836-0.701c0.375-0.374,0.573-0.635,0.592-0.783c0-0.182-0.078-0.332-0.233-0.451
				s-0.371-0.197-0.646-0.234h-0.303c-0.238,0-0.581,0.197-1.029,0.591c-0.449,0.395-0.838,0.847-1.168,1.36
				c0.02,0.091,0.156,0.168,0.412,0.232c0.257,0.064,0.531,0.097,0.824,0.097C154.527,46.982,154.765,46.946,154.894,46.872z"/>
			<path fill="#808080" d="M168.845,49.426c-0.037,0.164-0.114,0.518-0.232,1.057c-0.119,0.541-0.188,0.949-0.207,1.223
				c0,0.201,0.041,0.408,0.123,0.618c0.084,0.21,0.125,0.335,0.125,0.371c0,0.183-0.082,0.36-0.248,0.535
				c-0.164,0.175-0.375,0.261-0.631,0.261c-0.458,0-0.852-0.197-1.182-0.59c-0.33-0.395-0.494-0.91-0.494-1.553
				c0-0.549,0.201-1.573,0.604-3.076c0.036-0.201,0.068-0.352,0.096-0.453c0.028-0.1,0.041-0.188,0.041-0.261
				c0-0.091-0.027-0.138-0.082-0.138c-0.128,0-0.312,0.088-0.55,0.262s-0.494,0.369-0.769,0.59l-0.687,0.577
				c-0.293,0.185-0.906,0.687-1.84,1.511c-0.129,0.092-0.436,0.343-0.92,0.755c-0.486,0.413-0.766,0.618-0.838,0.618
				c-0.073,0-0.234-0.059-0.481-0.18c-0.247-0.119-0.476-0.27-0.687-0.452s-0.315-0.393-0.315-0.632
				c0-0.273,0.165-0.906,0.495-1.896c0.328-0.989,0.723-1.959,1.18-2.91c0.056-0.147,0.119-0.422,0.192-0.825
				c0.073-0.658,0.192-1.07,0.357-1.235c0.11-0.183,0.265-0.274,0.468-0.274c0.365,0,0.709,0.184,1.029,0.549
				c0.32,0.367,0.48,0.77,0.48,1.209c0,0.312-0.087,0.72-0.262,1.223c-0.173,0.504-0.297,0.801-0.369,0.893
				c0.055-0.037,0.168-0.133,0.343-0.289c0.174-0.155,0.406-0.324,0.7-0.508c0.622-0.476,1.089-0.801,1.4-0.977
				c0.312-0.173,0.531-0.305,0.66-0.397c0.072-0.054,0.131-0.095,0.178-0.123c0.045-0.027,0.078-0.041,0.096-0.041
				c0.055-0.018,0.16-0.06,0.316-0.124c0.155-0.064,0.278-0.096,0.371-0.096c0.273,0,0.563,0.096,0.865,0.289
				c0.301,0.192,0.453,0.388,0.453,0.59c0,0.055,0.063,0.151,0.192,0.289c0.128,0.137,0.237,0.301,0.329,0.494
				c0.092,0.191,0.138,0.48,0.138,0.865C169.286,47.467,169.139,48.217,168.845,49.426z"/>
			<path fill="#808080" d="M174.998,53.491c-0.385,0-0.851-0.101-1.4-0.302c-0.073,0-0.316-0.179-0.729-0.536
				c-0.412-0.356-0.663-0.636-0.756-0.838c-0.219-0.311-0.328-0.723-0.328-1.235c0-0.88,0.311-2.079,0.934-3.598
				c0.201-0.421,0.535-0.976,1.002-1.662c0.468-0.687,0.783-1.075,0.948-1.167c0.056-0.018,0.183-0.069,0.384-0.152
				c0.201-0.082,0.43-0.187,0.688-0.314c0.127-0.055,0.393-0.124,0.797-0.205c0.402-0.084,0.686-0.125,0.851-0.125
				c0.348,0,0.732,0.125,1.153,0.371c0.422,0.247,0.756,0.535,1.003,0.865s0.334,0.613,0.261,0.852
				c-0.019,0.072-0.119,0.289-0.303,0.646c-0.183,0.356-0.328,0.589-0.438,0.7c-0.073,0.092-0.211,0.137-0.411,0.137
				c-0.239,0-0.459-0.063-0.66-0.192c-0.202-0.127-0.312-0.312-0.33-0.549c-0.037-0.11-0.15-0.229-0.342-0.356
				c-0.193-0.129-0.326-0.212-0.398-0.248c-0.129,0-0.303,0.125-0.522,0.371c-0.22,0.247-0.485,0.6-0.797,1.057
				c-0.349,0.35-0.591,0.719-0.728,1.113c-0.139,0.395-0.229,0.751-0.275,1.07c-0.045,0.321-0.087,0.535-0.123,0.646
				c-0.037,0.109-0.055,0.22-0.055,0.329c0,0.183,0.036,0.362,0.109,0.535c0.074,0.175,0.146,0.271,0.22,0.289
				c0.33,0.019,0.847-0.06,1.552-0.233s1.332-0.371,1.881-0.591c0.257-0.165,0.532-0.247,0.824-0.247
				c0.129,0,0.257,0.014,0.385,0.041s0.221,0.051,0.275,0.068c0.183,0.074,0.274,0.238,0.274,0.494c0,0.238-0.083,0.486-0.247,0.742
				c-0.166,0.257-0.395,0.467-0.688,0.632c-0.311,0.164-0.576,0.329-0.796,0.495c-0.22,0.164-0.329,0.291-0.329,0.383
				c-0.037,0-0.11,0.023-0.221,0.068c-0.109,0.047-0.183,0.061-0.22,0.042c-0.202,0.019-0.513,0.083-0.934,0.193
				c-0.421,0.109-0.696,0.202-0.823,0.273C175.465,53.446,175.236,53.491,174.998,53.491z"/>
			<path fill="#808080" d="M190.791,44.112c0.109,0.174,0.164,0.38,0.164,0.618c0,0.384-0.146,0.842-0.439,1.373
				c-0.146,0.421-0.307,0.815-0.48,1.18c-0.174,0.367-0.307,0.604-0.398,0.716l-0.632,1.455c-0.274,0.604-0.612,1.309-1.015,2.115
				c-0.496,1.025-0.844,1.784-1.045,2.279l-0.357,0.577c-0.916,1.464-1.62,2.489-2.114,3.075c-0.403,0.366-0.879,0.746-1.428,1.141
				c-0.55,0.393-0.989,0.617-1.319,0.672c-0.348,0.073-0.731,0.111-1.154,0.111c-0.75,0-1.418-0.129-2.004-0.387
				c-0.586-0.256-0.924-0.566-1.016-0.933l-0.056-0.329c0-0.313,0.124-0.555,0.37-0.729c0.248-0.174,0.519-0.261,0.812-0.261
				c0.183,0,0.32,0.046,0.411,0.138c0.037,0.018,0.184,0.119,0.439,0.302s0.604,0.274,1.043,0.274c0.825,0,1.631-0.54,2.418-1.62
				c0.77-1.228,1.355-2.207,1.758-2.938c-0.366-0.22-0.724-0.59-1.071-1.113c-0.347-0.521-0.503-0.882-0.467-1.084v-0.302
				c-0.146,0-0.251-0.275-0.315-0.825c-0.064-0.549-0.097-1.227-0.097-2.033c0-0.877,0.019-1.49,0.056-1.84
				c0.072-0.292,0.113-0.654,0.123-1.084s0.014-0.709,0.014-0.838c-0.018-0.256,0.031-0.48,0.15-0.673s0.234-0.325,0.344-0.397
				c0.238-0.092,0.431-0.139,0.578-0.139c0.841,0,1.263,0.898,1.263,2.692c0,0.348-0.01,0.614-0.027,0.797
				c-0.036,0.879-0.056,1.501-0.056,1.866c0,1.411,0.193,2.326,0.576,2.747c0.166-0.384,0.303-0.658,0.414-0.823
				c0.254-0.531,0.401-0.87,0.438-1.017c0.036-0.128,0.138-0.339,0.302-0.632l0.357-0.742c0.037-0.108,0.156-0.461,0.357-1.057
				c0.2-0.596,0.402-1.076,0.604-1.442c0.074-0.146,0.184-0.36,0.33-0.645s0.266-0.489,0.357-0.619
				c0.092-0.126,0.192-0.21,0.301-0.247c0.146-0.128,0.303-0.191,0.467-0.191c0.166,0,0.34,0.055,0.522,0.164
				C190.505,43.722,190.681,43.938,190.791,44.112z"/>
		</g>
	</g>
	<g>
		<path fill="#36CEE9" d="M30.412,2.185c-0.125,0.632,0.159,1.354,2.608,2.729c0.082,0.046,0.165,0.091,0.248,0.138l0.15,1.833
			L33.237,6.77c-0.075-0.046-0.173-0.025-0.22,0.05l-0.101,0.16c-0.047,0.074-0.024,0.172,0.05,0.218l0.503,0.317l0.152,1.85
			l-0.112-0.07c-0.074-0.046-0.172-0.024-0.219,0.05l-0.101,0.16c-0.046,0.074-0.024,0.173,0.05,0.219l0.434,0.272l0.121,1.484
			l1.053,0.661l0.768-5.826c1.324,0.694,2.626,1.354,3.539,1.812l0.099,1.927l0.699,0.438l0.491-1.854l0.589,0.134l-0.376-0.473
			l1.457-1.248l-0.7-0.44l-1.779,0.75c-0.808-0.623-1.968-1.51-3.168-2.4l4.913-3.223l-1.052-0.661l-1.39,0.536L38.504,1.34
			c-0.074-0.047-0.173-0.025-0.22,0.05l-0.101,0.16c-0.046,0.075-0.024,0.172,0.051,0.219l0.111,0.07l-1.732,0.668l-0.503-0.316
			c-0.074-0.047-0.173-0.024-0.22,0.05l-0.1,0.159c-0.047,0.074-0.024,0.173,0.051,0.22l0.181,0.113l-1.716,0.662
			c-0.077-0.055-0.154-0.109-0.231-0.163c-2.303-1.609-3.077-1.55-3.592-1.163C30.447,2.097,30.42,2.139,30.412,2.185z"/>
		<path fill="#DD6307" d="M42.789,13.731c-0.051,1.587-0.605,3.256-1.803,4.682c-2.56,3.057-8.314,5.679-17.558,8.974
			c-9.83,3.501-20.245,7.108-20.838,14.451c-1.045-2.648-1.626-5.528-1.626-8.544c0-12.848,10.415-23.264,23.26-23.264
			c0.463,0,0.918,0.016,1.373,0.042c5.773,0.337,10.978,2.782,14.864,6.573C41.373,16.034,42.386,15.081,42.789,13.731z"/>
		<path fill="#FF7F00" d="M19.529,59.1c-15.714-8.107-8.734-18.17,7.002-25.202C9.872,44.545,14.058,53.583,19.529,59.1z"/>
		<path fill="#36CEE9" d="M38.644,23.151c-0.138,0.118-0.282,0.233-0.429,0.351c-9.179,7.618-21.587,10.511-27.991,17.753
			c-4.951,5.603-3.295,9.513-2.452,11.007c-4.883-4.25-4.719-11.148,2.899-15.857C18.29,31.698,28.126,29.341,38.644,23.151z"/>
		<path fill="#FF7F00" d="M42.789,13.731c-0.051,1.587-0.605,3.256-1.803,4.682c-2.56,3.057-8.314,5.679-17.558,8.974
			c-9.83,3.501-20.245,7.108-20.838,14.451c-1.045-2.648-1.626-5.528-1.626-8.544c0-12.848,10.415-23.264,23.26-23.264
			c0.463,0,0.918,0.016,1.373,0.042c-10.449,0.021-20.489,9.964-19.46,19.931c2.831-8.501,23.715-7.338,34.324-13.357
			C41.373,16.034,42.386,15.081,42.789,13.731z"/>
		<path fill="#36CEE9" d="M45.47,23.825c2.18-5.985,0.51-11.401-3.799-14.121C50.528,19.961,35.044,29.291,23.5,38.88
			c-6.004,4.987-7.026,13.263-0.799,16.439c1.899,0.97,4.094,1.186,6.184,0.761c10.611-2.158,18.599-11.539,18.599-22.789
			C47.484,29.92,46.762,26.718,45.47,23.825z"/>
		<path fill="#24B9C9" d="M45.47,23.825c-3.311,7.973-18.957,18.414-20.797,22.283c-2.833,5.957,4.933,8.402,10.984,3.908
			c-11.473-0.684,9.655-10.287,11.706-19.079"/>
		<path fill="#F77200" d="M19.529,59.1c-13.548-10.678-5.536-17.715,7.002-25.202C9.872,44.545,14.058,53.583,19.529,59.1z"/>
		<path fill="#24B9C9" d="M38.215,23.502c-9.179,7.618-21.587,10.511-27.991,17.753c-4.951,5.603-3.295,9.513-2.452,11.007
			C-2.735,36.787,27.46,32.069,38.215,23.502z"/>
	</g>
</g>
</svg>
