<svg id="Layer_1" data-name="Layer 1" xmlns="http://www.w3.org/2000/svg" width="37" height="37" viewBox="0 0 37 37"><defs><style>.cls-1{fill:#313e5b;}</style></defs><title>toggle-close</title><path class="cls-1" d="M18.49868.09106a18.40895,18.40895,0,0,0,0,36.81788h.00263A18.40895,18.40895,0,0,0,18.49868.09106Zm.00263,34.57077h-.00263a16.1445,16.1445,0,1,1,.00263,0Z"/><path class="cls-1" d="M23.38606,12.02511l-11.361,11.361A1.12355,1.12355,0,0,0,13.61405,24.975l11.361-11.361a1.12355,1.12355,0,0,0-1.58894-1.58894Z"/><path class="cls-1" d="M24.97489,23.38606l-11.361-11.361A1.12355,1.12355,0,0,0,12.025,13.61405l11.361,11.361a1.12355,1.12355,0,0,0,1.58894-1.58894Z"/></svg>