<svg id="Layer_1" data-name="Layer 1" xmlns="http://www.w3.org/2000/svg" width="37" height="37" viewBox="0 0 37 37"><defs><style>.cls-1{fill:#313e5b;}</style></defs><title>toggle-open</title><path class="cls-1" d="M18.49868.09106a18.40895,18.40895,0,0,0,0,36.81788h.00263A18.40895,18.40895,0,0,0,18.49868.09106Zm.00263,34.57077h-.00263a16.1445,16.1445,0,1,1,.00263,0Z"/><path class="cls-1" d="M26.47723,17.35911H10.41042a1.12355,1.12355,0,1,0,0,2.24711H26.47723a1.12355,1.12355,0,0,0,0-2.24711Z"/><path class="cls-1" d="M26.47723,12.19076H10.41042a1.12355,1.12355,0,1,0,0,2.24711H26.47723a1.12355,1.12355,0,1,0,0-2.24711Z"/><path class="cls-1" d="M26.47723,22.52746H10.41042a1.12355,1.12355,0,0,0,0,2.24711H26.47723a1.12355,1.12355,0,0,0,0-2.24711Z"/></svg>