<?xml version="1.0" encoding="utf-8"?>
<!-- Generator: Adobe Illustrator 16.0.0, SVG Export Plug-In . SVG Version: 6.00 Build 0)  -->
<!DOCTYPE svg PUBLIC "-//W3C//DTD SVG 1.1//EN" "http://www.w3.org/Graphics/SVG/1.1/DTD/svg11.dtd">
<svg version="1.1" id="Layer_1" xmlns="http://www.w3.org/2000/svg" xmlns:xlink="http://www.w3.org/1999/xlink" x="0px" y="0px"
	 width="80.933px" height="55.325px" viewBox="0 0 80.933 55.325" enable-background="new 0 0 80.933 55.325" xml:space="preserve">
<g>
	<path fill-rule="evenodd" clip-rule="evenodd" fill="#FFFFFF" d="M45.963,54.852c1.417,0.072,2.563,0.262,3.685,0.169
		c18.994-1.574,34.245-22.053,30.437-40.83C78.397,5.868,71.157,0.138,62.51,0.282c-8.223,0.137-15.214,6.201-16.65,14.444
		c-1.415,8.114,3.629,16.633,11.605,19.26c2.436,0.803,5.048,1.068,8.024,1.669c-5.031,6.8-11.946,9.364-19.525,10.225
		C45.963,49.139,45.963,51.907,45.963,54.852z"/>
	<path fill-rule="evenodd" clip-rule="evenodd" fill="#FFFFFF" d="M0.551,54.854c20.489,0.801,37.723-20.064,34.002-40.307
		C32.975,5.959,26.06,0.232,17.329,0.282C9.147,0.328,2.089,6.095,0.598,13.955c-1.658,8.737,2.913,17.108,11.135,19.961
		c2.537,0.88,5.29,1.138,9.278,1.954c-3.802,2.802-6.464,5.355-9.616,6.925c-3.326,1.655-7.118,2.373-10.844,3.543
		C0.551,49.042,0.551,51.798,0.551,54.854z"/>
	<path fill-rule="evenodd" clip-rule="evenodd" fill="#F57E20" d="M45.963,54.852c0-2.945,0-5.713,0-8.973
		c7.579-0.86,14.494-3.425,19.525-10.225c-2.976-0.601-5.588-0.866-8.024-1.669c-7.976-2.627-13.02-11.146-11.605-19.26
		c1.437-8.243,8.428-14.308,16.65-14.444c8.647-0.144,15.887,5.586,17.575,13.909c3.809,18.777-11.442,39.256-30.437,40.83
		C48.526,55.114,47.381,54.924,45.963,54.852z"/>
	<path fill-rule="evenodd" clip-rule="evenodd" fill="#F57E20" d="M0.551,54.854c0-3.056,0-5.813,0-8.517
		c3.726-1.17,7.518-1.888,10.844-3.543c3.152-1.569,5.814-4.123,9.616-6.925c-3.989-0.816-6.742-1.074-9.278-1.954
		C3.511,31.063-1.06,22.692,0.598,13.955C2.089,6.095,9.147,0.328,17.329,0.282c8.73-0.05,15.646,5.678,17.224,14.266
		C38.274,34.79,21.041,55.655,0.551,54.854z"/>
</g>
</svg>
