<?xml version="1.0" encoding="utf-8"?>
<!-- Generator: Adobe Illustrator 16.0.0, SVG Export Plug-In . SVG Version: 6.00 Build 0)  -->
<!DOCTYPE svg PUBLIC "-//W3C//DTD SVG 1.1//EN" "http://www.w3.org/Graphics/SVG/1.1/DTD/svg11.dtd">
<svg version="1.1" id="Layer_1" xmlns="http://www.w3.org/2000/svg" xmlns:xlink="http://www.w3.org/1999/xlink" x="0px" y="0px"
	 width="56.789px" height="45.309px" viewBox="0 0 56.789 45.309" enable-background="new 0 0 56.789 45.309" xml:space="preserve">
<g>
	<path fill="#FF9B4B" d="M45.351,31.616c0-1.615,0.786-3.048,1.997-3.937v-8.783c0-0.617-0.505-1.121-1.121-1.121H30.604v24.703
		c0,0.459-0.28,0.856-0.678,1.029c0.137,0.06,0.287,0.093,0.444,0.093h15.856c0.616,0,1.121-0.505,1.121-1.122v-6.927
		C46.137,34.663,45.351,33.231,45.351,31.616z"/>
	<path opacity="0.1" enable-background="new    " d="M33.157,42.479V18.896c0-0.617,0.505-1.122,1.121-1.122h-3.675v24.704
		c0,0.459-0.279,0.856-0.677,1.029c0.137,0.06,0.287,0.093,0.444,0.093h3.907C33.662,43.601,33.157,43.096,33.157,42.479z"/>
	<ellipse fill="#A0C663" cx="50.238" cy="31.616" rx="4.882" ry="4.882"/>
	<path fill="#EF4545" d="M29.482,1.708H10.747c-0.617,0-1.122,0.505-1.122,1.122v24.992c1.106,0.895,1.813,2.261,1.813,3.794
		c0,1.532-0.707,2.898-1.813,3.793v7.069c0,0.617,0.505,1.122,1.122,1.122h18.735c0.617,0,1.121-0.505,1.121-1.122V2.83
		C30.604,2.213,30.099,1.708,29.482,1.708z"/>
	<path opacity="0.1" enable-background="new    " d="M11.886,42.479V2.83c0-0.617,0.505-1.122,1.122-1.122h-2.262
		c-0.617,0-1.122,0.505-1.122,1.122v24.992c1.106,0.895,1.813,2.261,1.813,3.794c0,1.532-0.707,2.898-1.813,3.793v7.069
		c0,0.617,0.505,1.122,1.122,1.122h2.262C12.391,43.601,11.886,43.096,11.886,42.479z"/>
	<path fill="#91CFE5" d="M24.178,43.04c0,0.309-0.252,0.561-0.56,0.561h-7.008c-0.31,0-0.562-0.252-0.562-0.561v-9.567
		c0-0.309,0.252-0.561,0.562-0.561h7.008c0.308,0,0.56,0.252,0.56,0.561V43.04z"/>
	<path opacity="0.1" enable-background="new    " d="M18.392,43.04v-9.567c0-0.309,0.253-0.561,0.562-0.561h-2.343
		c-0.309,0-0.562,0.252-0.562,0.561v9.567c0,0.309,0.253,0.561,0.562,0.561h2.343C18.645,43.601,18.392,43.349,18.392,43.04z"/>
	<path fill="#FFFFFF" d="M15.928,7.404c0,0.185-0.152,0.337-0.337,0.337h-2.197c-0.185,0-0.337-0.152-0.337-0.337V5.238
		c0-0.186,0.152-0.337,0.337-0.337h2.197c0.185,0,0.337,0.151,0.337,0.337V7.404z"/>
	<g>
		<path fill="#FBD33B" d="M21.549,7.404c0,0.185-0.151,0.337-0.336,0.337h-2.198c-0.186,0-0.336-0.152-0.336-0.337V5.238
			c0-0.186,0.15-0.337,0.336-0.337h2.198c0.185,0,0.336,0.151,0.336,0.337V7.404z"/>
		<path fill="#FBD33B" d="M27.171,7.404c0,0.185-0.151,0.337-0.337,0.337h-2.197c-0.186,0-0.338-0.152-0.338-0.337V5.238
			c0-0.186,0.152-0.337,0.338-0.337h2.197c0.186,0,0.337,0.151,0.337,0.337V7.404z"/>
		<path fill="#FBD33B" d="M15.928,12.963c0,0.186-0.152,0.337-0.337,0.337h-2.197c-0.185,0-0.337-0.151-0.337-0.337v-2.166
			c0-0.186,0.152-0.337,0.337-0.337h2.197c0.185,0,0.337,0.151,0.337,0.337V12.963z"/>
		<path fill="#FBD33B" d="M21.549,12.963c0,0.186-0.151,0.337-0.336,0.337h-2.198c-0.186,0-0.336-0.151-0.336-0.337v-2.166
			c0-0.186,0.15-0.337,0.336-0.337h2.198c0.185,0,0.336,0.151,0.336,0.337V12.963z"/>
	</g>
	<g>
		<path fill="#FFFFFF" d="M27.171,12.963c0,0.186-0.151,0.337-0.337,0.337h-2.197c-0.186,0-0.338-0.151-0.338-0.337v-2.166
			c0-0.186,0.152-0.337,0.338-0.337h2.197c0.186,0,0.337,0.151,0.337,0.337V12.963z"/>
		<path fill="#FFFFFF" d="M15.928,18.522c0,0.185-0.152,0.336-0.337,0.336h-2.197c-0.185,0-0.337-0.151-0.337-0.336v-2.166
			c0-0.186,0.152-0.337,0.337-0.337h2.197c0.185,0,0.337,0.151,0.337,0.337V18.522z"/>
		<path fill="#FFFFFF" d="M21.549,18.522c0,0.185-0.151,0.336-0.336,0.336h-2.198c-0.186,0-0.336-0.151-0.336-0.336v-2.166
			c0-0.186,0.15-0.337,0.336-0.337h2.198c0.185,0,0.336,0.151,0.336,0.337V18.522z"/>
	</g>
	<g>
		<path fill="#FBD33B" d="M27.171,18.522c0,0.185-0.151,0.336-0.337,0.336h-2.197c-0.186,0-0.338-0.151-0.338-0.336v-2.166
			c0-0.186,0.152-0.337,0.338-0.337h2.197c0.186,0,0.337,0.151,0.337,0.337V18.522z"/>
		<path fill="#FBD33B" d="M15.928,24.08c0,0.186-0.152,0.338-0.337,0.338h-2.197c-0.185,0-0.337-0.152-0.337-0.338v-2.165
			c0-0.185,0.152-0.336,0.337-0.336h2.197c0.185,0,0.337,0.151,0.337,0.336V24.08z"/>
		<path fill="#FBD33B" d="M21.549,24.08c0,0.186-0.151,0.338-0.336,0.338h-2.198c-0.186,0-0.336-0.152-0.336-0.338v-2.165
			c0-0.185,0.15-0.336,0.336-0.336h2.198c0.185,0,0.336,0.151,0.336,0.336V24.08z"/>
	</g>
	<path fill="#FFFFFF" d="M27.171,24.08c0,0.186-0.151,0.338-0.337,0.338h-2.197c-0.186,0-0.338-0.152-0.338-0.338v-2.165
		c0-0.185,0.152-0.336,0.338-0.336h2.197c0.186,0,0.337,0.151,0.337,0.336V24.08z"/>
	<path fill="#FBD33B" d="M15.928,29.64c0,0.186-0.152,0.337-0.337,0.337h-2.197c-0.185,0-0.337-0.151-0.337-0.337v-2.165
		c0-0.186,0.152-0.337,0.337-0.337h2.197c0.185,0,0.337,0.151,0.337,0.337V29.64z"/>
	<g>
		<path fill="#FFFFFF" d="M21.549,29.64c0,0.186-0.151,0.337-0.336,0.337h-2.198c-0.186,0-0.336-0.151-0.336-0.337v-2.165
			c0-0.186,0.15-0.337,0.336-0.337h2.198c0.185,0,0.336,0.151,0.336,0.337V29.64z"/>
		<path fill="#FFFFFF" d="M27.171,29.64c0,0.186-0.151,0.337-0.337,0.337h-2.197c-0.186,0-0.338-0.151-0.338-0.337v-2.165
			c0-0.186,0.152-0.337,0.338-0.337h2.197c0.186,0,0.337,0.151,0.337,0.337V29.64z"/>
	</g>
	<g>
		<path fill="#FFF0C0" d="M37.667,23.737c0,0.185-0.151,0.336-0.337,0.336h-2.198c-0.185,0-0.336-0.151-0.336-0.336v-2.166
			c0-0.186,0.151-0.336,0.336-0.336h2.198c0.186,0,0.337,0.15,0.337,0.336V23.737z"/>
		<path fill="#FFF0C0" d="M43.289,23.737c0,0.185-0.151,0.336-0.336,0.336h-2.197c-0.186,0-0.337-0.151-0.337-0.336v-2.166
			c0-0.186,0.151-0.336,0.337-0.336h2.197c0.185,0,0.336,0.15,0.336,0.336V23.737z"/>
	</g>
	<path fill="#FFFFFF" d="M37.667,29.297c0,0.185-0.151,0.336-0.337,0.336h-2.198c-0.185,0-0.336-0.151-0.336-0.336v-2.166
		c0-0.186,0.151-0.337,0.336-0.337h2.198c0.186,0,0.337,0.151,0.337,0.337V29.297z"/>
	<g>
		<path fill="#FFF0C0" d="M43.289,29.297c0,0.185-0.151,0.336-0.336,0.336h-2.197c-0.186,0-0.337-0.151-0.337-0.336v-2.166
			c0-0.186,0.151-0.337,0.337-0.337h2.197c0.185,0,0.336,0.151,0.336,0.337V29.297z"/>
		<path fill="#FFF0C0" d="M37.667,34.854c0,0.186-0.151,0.338-0.337,0.338h-2.198c-0.185,0-0.336-0.152-0.336-0.338v-2.165
			c0-0.185,0.151-0.336,0.336-0.336h2.198c0.186,0,0.337,0.151,0.337,0.336V34.854z"/>
	</g>
	<path fill="#FFFFFF" d="M43.289,34.854c0,0.186-0.151,0.338-0.336,0.338h-2.197c-0.186,0-0.337-0.152-0.337-0.338v-2.165
		c0-0.185,0.151-0.336,0.337-0.336h2.197c0.185,0,0.336,0.151,0.336,0.336V34.854z"/>
	<path fill="#FBD33B" d="M40.533,14.825c0,0.309-0.252,0.561-0.561,0.561H33.58c-0.309,0-0.561-0.252-0.561-0.561V2.269
		c0-0.309,0.252-0.561,0.561-0.561h6.393c0.309,0,0.561,0.252,0.561,0.561V14.825L40.533,14.825z"/>
	<path opacity="0.1" enable-background="new    " d="M35.33,14.825V2.269c0-0.309,0.252-0.561,0.561-0.561H33.58
		c-0.309,0-0.561,0.252-0.561,0.561v12.557c0,0.31,0.252,0.561,0.561,0.561h2.311C35.582,15.386,35.33,15.134,35.33,14.825z"/>
	<path opacity="0.1" enable-background="new    " d="M47.667,31.616c0-2.298,1.59-4.224,3.729-4.742
		c-0.371-0.091-0.759-0.14-1.157-0.14c-2.699,0-4.888,2.186-4.888,4.882c0,2.695,2.188,4.882,4.888,4.882
		c0.398,0,0.786-0.049,1.157-0.14C49.256,35.839,47.667,33.914,47.667,31.616z"/>
	<ellipse fill="#A0C663" cx="6.549" cy="31.616" rx="4.888" ry="4.882"/>
	<path opacity="0.1" enable-background="new    " d="M3.962,31.616c0-2.3,1.594-4.229,3.738-4.744
		c-0.369-0.089-0.754-0.138-1.15-0.138c-2.698,0-4.887,2.186-4.887,4.882c0,2.695,2.188,4.882,4.887,4.882
		c0.396,0,0.781-0.049,1.15-0.138C5.556,35.844,3.962,33.916,3.962,31.616z"/>
	<path d="M12.216,5.238v2.166c0,0.649,0.528,1.178,1.178,1.178h2.197c0.649,0,1.178-0.528,1.178-1.178V5.238
		c0-0.649-0.528-1.178-1.178-1.178h-2.197C12.745,4.061,12.216,4.589,12.216,5.238z M13.899,5.743h1.188v1.156h-1.188V5.743z"/>
	<path d="M19.015,8.582h2.198c0.648,0,1.178-0.528,1.178-1.178V5.238c0-0.649-0.529-1.178-1.178-1.178h-2.198
		c-0.649,0-1.178,0.528-1.178,1.178v2.166C17.837,8.054,18.366,8.582,19.015,8.582z M19.52,5.743h1.188v1.156H19.52V5.743z"/>
	<path d="M24.637,8.582h2.197c0.649,0,1.178-0.528,1.178-1.178V5.238c0-0.649-0.528-1.178-1.178-1.178h-2.197
		c-0.649,0-1.178,0.528-1.178,1.178v2.166C23.459,8.054,23.988,8.582,24.637,8.582z M25.141,5.743h1.188v1.156h-1.188V5.743z"/>
	<path d="M16.769,10.797c0-0.649-0.528-1.178-1.178-1.178h-2.197c-0.649,0-1.178,0.528-1.178,1.178v2.166
		c0,0.649,0.528,1.178,1.178,1.178h2.197c0.649,0,1.178-0.528,1.178-1.178V10.797z M15.086,12.458h-1.188v-1.156h1.188V12.458z"/>
	<path d="M17.837,12.963c0,0.649,0.528,1.178,1.178,1.178h2.198c0.648,0,1.178-0.528,1.178-1.178v-2.166
		c0-0.649-0.529-1.178-1.178-1.178h-2.198c-0.649,0-1.178,0.528-1.178,1.178V12.963z M19.52,11.302h1.188v1.156H19.52V11.302z"/>
	<path d="M23.459,12.963c0,0.649,0.528,1.178,1.178,1.178h2.197c0.649,0,1.178-0.528,1.178-1.178v-2.166
		c0-0.649-0.528-1.178-1.178-1.178h-2.197c-0.649,0-1.178,0.528-1.178,1.178V12.963z M25.141,11.302h1.188v1.156h-1.188V11.302z"/>
	<path d="M16.769,16.356c0-0.65-0.528-1.179-1.178-1.179h-2.197c-0.649,0-1.178,0.528-1.178,1.179v2.166
		c0,0.648,0.528,1.177,1.178,1.177h2.197c0.649,0,1.178-0.528,1.178-1.177V16.356z M15.086,18.017h-1.188V16.86h1.188V18.017z"/>
	<path d="M17.837,18.522c0,0.648,0.528,1.177,1.178,1.177h2.198c0.648,0,1.178-0.528,1.178-1.177v-2.166
		c0-0.65-0.529-1.179-1.178-1.179h-2.198c-0.649,0-1.178,0.528-1.178,1.179V18.522z M19.52,16.86h1.188v1.156H19.52V16.86z"/>
	<path d="M23.459,18.522c0,0.648,0.528,1.177,1.178,1.177h2.197c0.649,0,1.178-0.528,1.178-1.177v-2.166
		c0-0.65-0.528-1.179-1.178-1.179h-2.197c-0.649,0-1.178,0.528-1.178,1.179V18.522z M25.141,16.86h1.188v1.156h-1.188V16.86z"/>
	<path d="M16.769,21.915c0-0.649-0.528-1.178-1.178-1.178h-2.197c-0.649,0-1.178,0.528-1.178,1.178v2.166
		c0,0.649,0.528,1.178,1.178,1.178h2.197c0.649,0,1.178-0.528,1.178-1.178V21.915z M15.086,23.576h-1.188V22.42h1.188V23.576z"/>
	<path d="M17.837,24.08c0,0.65,0.528,1.179,1.178,1.179h2.198c0.648,0,1.178-0.528,1.178-1.179v-2.165
		c0-0.649-0.529-1.178-1.178-1.178h-2.198c-0.649,0-1.178,0.528-1.178,1.178V24.08z M19.52,22.42h1.188v1.156H19.52V22.42z"/>
	<path d="M23.459,24.08c0,0.65,0.528,1.179,1.178,1.179h2.197c0.649,0,1.178-0.528,1.178-1.179v-2.165
		c0-0.649-0.528-1.178-1.178-1.178h-2.197c-0.649,0-1.178,0.528-1.178,1.178V24.08z M25.141,22.42h1.188v1.156h-1.188V22.42z"/>
	<path d="M15.591,26.297h-2.197c-0.649,0-1.178,0.528-1.178,1.178v2.165c0,0.65,0.528,1.178,1.178,1.178h2.197
		c0.649,0,1.178-0.527,1.178-1.178v-2.165C16.769,26.825,16.241,26.297,15.591,26.297z M15.086,29.135h-1.188v-1.155h1.188V29.135z"
		/>
	<path d="M17.837,29.64c0,0.65,0.528,1.178,1.178,1.178h2.198c0.648,0,1.178-0.527,1.178-1.178v-2.165
		c0-0.649-0.529-1.178-1.178-1.178h-2.198c-0.649,0-1.178,0.528-1.178,1.178V29.64z M19.52,27.979h1.188v1.155H19.52V27.979z"/>
	<path d="M23.459,29.64c0,0.65,0.528,1.178,1.178,1.178h2.197c0.649,0,1.178-0.527,1.178-1.178v-2.165
		c0-0.649-0.528-1.178-1.178-1.178h-2.197c-0.649,0-1.178,0.528-1.178,1.178V29.64z M25.141,27.979h1.188v1.155h-1.188V27.979z"/>
	<path d="M38.883,4.504c0-0.465-0.377-0.841-0.841-0.841c-0.465,0-0.841,0.376-0.841,0.841v1.151H36.35V4.504
		c0-0.465-0.376-0.841-0.841-0.841s-0.841,0.376-0.841,0.841v3.985c0,0.464,0.376,0.841,0.841,0.841s0.841-0.376,0.841-0.841v-1.15
		h0.852v1.15c0,0.464,0.376,0.841,0.841,0.841c0.464,0,0.841-0.376,0.841-0.841V4.504z"/>
	<path d="M38.014,11.372h-2.477c-0.465,0-0.841,0.378-0.841,0.842s0.376,0.84,0.841,0.84h2.477c0.465,0,0.842-0.376,0.842-0.84
		S38.479,11.372,38.014,11.372z"/>
	<path d="M35.132,24.915h2.198c0.649,0,1.179-0.528,1.179-1.178v-2.166c0-0.648-0.529-1.178-1.179-1.178h-2.198
		c-0.648,0-1.177,0.529-1.177,1.178v2.166C33.956,24.387,34.484,24.915,35.132,24.915z M35.638,22.076h1.188v1.156h-1.188V22.076z"
		/>
	<path d="M40.755,24.915h2.197c0.649,0,1.178-0.528,1.178-1.178v-2.166c0-0.648-0.528-1.178-1.178-1.178h-2.197
		c-0.65,0-1.178,0.529-1.178,1.178v2.166C39.578,24.387,40.105,24.915,40.755,24.915z M41.26,22.076h1.188v1.156H41.26V22.076z"/>
	<path d="M33.956,29.297c0,0.648,0.528,1.177,1.177,1.177h2.198c0.649,0,1.179-0.528,1.179-1.177v-2.166
		c0-0.65-0.529-1.178-1.179-1.178h-2.198c-0.648,0-1.177,0.527-1.177,1.178V29.297z M35.638,27.635h1.188v1.156h-1.188V27.635z"/>
	<path d="M39.578,29.297c0,0.648,0.527,1.177,1.178,1.177h2.197c0.649,0,1.178-0.528,1.178-1.177v-2.166
		c0-0.65-0.528-1.178-1.178-1.178h-2.197c-0.65,0-1.178,0.527-1.178,1.178V29.297z M41.26,27.635h1.188v1.156H41.26V27.635z"/>
	<path d="M33.956,34.854c0,0.649,0.528,1.179,1.177,1.179h2.198c0.649,0,1.179-0.529,1.179-1.179v-2.165
		c0-0.649-0.529-1.178-1.179-1.178h-2.198c-0.648,0-1.177,0.528-1.177,1.178V34.854z M35.638,33.194h1.188v1.155h-1.188V33.194z"/>
	<path d="M39.578,34.854c0,0.649,0.527,1.179,1.178,1.179h2.197c0.649,0,1.178-0.529,1.178-1.179v-2.165
		c0-0.649-0.528-1.178-1.178-1.178h-2.197c-0.65,0-1.178,0.528-1.178,1.178V34.854z M41.26,33.194h1.188v1.155H41.26V33.194z"/>
	<path d="M34.726,39.345h8.634c0.465,0,0.841-0.377,0.841-0.842c0-0.464-0.376-0.841-0.841-0.841h-8.634
		c-0.465,0-0.842,0.377-0.842,0.841C33.884,38.968,34.261,39.345,34.726,39.345z"/>
	<path d="M54.564,42.76H51.08v-5.483c2.761-0.408,4.887-2.791,4.887-5.66c0-3.156-2.569-5.723-5.728-5.723
		c-0.723,0-1.412,0.135-2.049,0.379v-1.6c0-0.464-0.377-0.841-0.842-0.841s-0.842,0.377-0.842,0.841v2.606
		c-1.221,1.05-1.997,2.604-1.997,4.337s0.776,3.286,1.997,4.337v6.807H31.445V18.616h14.782c0.152,0,0.28,0.128,0.28,0.28v2.524
		c0,0.464,0.376,0.841,0.841,0.841s0.842-0.377,0.842-0.841v-2.524c0-1.082-0.881-1.963-1.963-1.963H31.445v-4.083h0.732v1.975
		c0,0.773,0.629,1.402,1.402,1.402h6.393c0.773,0,1.402-0.629,1.402-1.402v-3.163c0-0.464-0.376-0.841-0.842-0.841
		c-0.464,0-0.841,0.377-0.841,0.841v2.883H33.86V2.55h5.832v5.973c0,0.464,0.377,0.841,0.841,0.841c0.466,0,0.842-0.377,0.842-0.841
		V2.269c0-0.772-0.629-1.401-1.402-1.401H33.58c-0.773,0-1.402,0.629-1.402,1.401v1.566h-0.732V2.83
		c0-1.082-0.881-1.963-1.963-1.963H17.607c-0.464,0-0.841,0.376-0.841,0.841s0.377,0.842,0.841,0.842h11.875
		c0.151,0,0.28,0.128,0.28,0.28v39.93H25.02v-9.287c0-0.771-0.629-1.402-1.401-1.402h-7.008c-0.774,0-1.402,0.63-1.402,1.402v9.287
		h-4.743v-6.972c1.115-1.046,1.813-2.528,1.813-4.172s-0.698-3.127-1.813-4.172V2.83c0-0.152,0.129-0.28,0.281-0.28h3.271
		c0.464,0,0.841-0.377,0.841-0.842s-0.376-0.842-0.841-0.842h-3.271c-1.082,0-1.963,0.881-1.963,1.964v23.516
		c-0.687-0.291-1.441-0.452-2.233-0.452c-3.158,0-5.728,2.567-5.728,5.723c0,2.869,2.126,5.252,4.887,5.66v5.483H2.409
		c-0.464,0-0.842,0.376-0.842,0.841s0.378,0.842,0.842,0.842h14.202h7.008h30.945c0.466,0,0.842-0.377,0.842-0.842
		S55.029,42.76,54.564,42.76z M31.445,5.518h0.732v5.65h-0.732V5.518z M2.505,31.616c0-2.228,1.814-4.041,4.045-4.041
		c2.231,0,4.046,1.813,4.046,4.041c0,1.939-1.376,3.563-3.204,3.952v-1.968c0-0.465-0.377-0.842-0.842-0.842
		c-0.464,0-0.841,0.377-0.841,0.842v1.968C3.881,35.18,2.505,33.556,2.505,31.616z M7.392,37.276
		c0.486-0.071,0.953-0.205,1.392-0.391v5.874H7.392V37.276z M19.273,42.76h-2.382v-9.006h2.382V42.76z M23.337,42.76h-2.382v-9.006
		h2.382V42.76z M49.397,42.76H48.19v-5.801c0.384,0.147,0.788,0.256,1.207,0.317V42.76z M50.239,32.759
		c-0.466,0-0.842,0.377-0.842,0.842v1.968c-1.828-0.389-3.205-2.013-3.205-3.952c0-2.228,1.815-4.041,4.047-4.041
		c2.23,0,4.046,1.813,4.046,4.041c0,1.939-1.377,3.563-3.205,3.952v-1.968C51.08,33.136,50.703,32.759,50.239,32.759z"/>
</g>
</svg>
