<?xml version="1.0" encoding="utf-8"?>
<!-- Generator: Adobe Illustrator 16.0.0, SVG Export Plug-In . SVG Version: 6.00 Build 0)  -->
<!DOCTYPE svg PUBLIC "-//W3C//DTD SVG 1.1//EN" "http://www.w3.org/Graphics/SVG/1.1/DTD/svg11.dtd">
<svg version="1.1" id="Layer_1" xmlns="http://www.w3.org/2000/svg" xmlns:xlink="http://www.w3.org/1999/xlink" x="0px" y="0px"
	 width="52.625px" height="31.586px" viewBox="0 0 52.625 31.586" enable-background="new 0 0 52.625 31.586" xml:space="preserve">
<g>
	<g>
		<g>
			<path fill="#F7F5F0" d="M44.958,15.793c0-3.752,3.042-6.794,6.794-6.794V0.861H0.873v8.137c3.752,0,6.795,3.042,6.795,6.794
				s-3.043,6.794-6.795,6.794v8.138h50.88v-8.138C48,22.587,44.958,19.545,44.958,15.793L44.958,15.793z"/>
			<path fill="#E5E1DA" d="M0.873,27.605h50.88v3.12H0.873V27.605z"/>
			<path fill="#2CCDF2" d="M27.722,23.883l1.851-1.173l1.651-8.583l-4.189,2.656L27.722,23.883z"/>
			<path fill="#2CCDF2" d="M21.005,9.196l-1.85,1.173l6.073,3.62l4.17-2.644L21.005,9.196z"/>
			<path fill="#FFFFFF" d="M24.546,18.361l2.488-1.578l4.189-2.656l2.32-1.477c2.23-1.413,2.782-2.645,2.291-3.421
				c-0.492-0.775-1.842-0.802-4.071,0.611l-2.365,1.504l-4.17,2.644l-2.464,1.562l-4.095,0.131l-0.611,1.156l2.781,1.047l0.387,0.61
				l0.386,0.608l-0.24,2.962l1.308-0.061L24.546,18.361z"/>
		</g>
		<g>
			<path fill="#17171D" d="M16.412,5.772h9.9c0.393,0,0.712-0.319,0.712-0.711c0-0.393-0.319-0.711-0.712-0.711h-9.9
				c-0.393,0-0.711,0.318-0.711,0.711C15.701,5.453,16.019,5.772,16.412,5.772z"/>
			<path fill="#17171D" d="M27.157,27.109c0,0.393,0.318,0.711,0.711,0.711h9.901c0.393,0,0.711-0.318,0.711-0.711
				c0-0.392-0.318-0.711-0.711-0.711h-9.901C27.475,26.398,27.157,26.717,27.157,27.109z"/>
			<path fill="#17171D" d="M21.182,8.507c-0.189-0.048-0.392-0.016-0.558,0.088l-1.849,1.173c-0.209,0.132-0.334,0.363-0.331,0.61
				c0.004,0.248,0.135,0.475,0.348,0.602l5.079,3.027l-1.323,0.84l-3.899,0.125c-0.256,0.008-0.487,0.152-0.606,0.378l-0.611,1.156
				c-0.096,0.181-0.108,0.394-0.037,0.585c0.073,0.191,0.225,0.341,0.415,0.414l2.558,0.964l0.518,0.816l-0.22,2.725
				c-0.017,0.204,0.056,0.404,0.197,0.551c0.134,0.14,0.319,0.218,0.511,0.218c0.011,0,0.021,0,0.032-0.001l1.307-0.06
				c0.255-0.012,0.484-0.159,0.602-0.387l1.777-3.472l1.349-0.855l0.576,5.949c0.023,0.246,0.173,0.462,0.395,0.57
				c0.1,0.048,0.206,0.073,0.313,0.073c0.133,0,0.266-0.038,0.381-0.11l1.85-1.172c0.165-0.105,0.28-0.274,0.317-0.467l1.595-8.285
				l2.062-1.308c1.147-0.727,1.952-1.461,2.392-2.179c0.652-1.068,0.353-1.851,0.117-2.223C36.2,8.478,35.62,7.876,34.375,8.008
				c-0.837,0.09-1.844,0.505-2.992,1.234l-2.109,1.337L21.182,8.507z M28.932,22.274l-0.613,0.389l-0.534-5.513l2.43-1.541
				L28.932,22.274z M20.513,10.35l0.613-0.389l6.498,1.665l-2.407,1.527L20.513,10.35z M32.145,10.442
				c1.199-0.76,1.957-0.975,2.383-1.021c0.364-0.039,0.602,0.025,0.707,0.189c0.104,0.165,0.06,0.407-0.131,0.721
				c-0.223,0.365-0.74,0.959-1.94,1.72l-8.998,5.709c-0.108,0.067-0.194,0.164-0.253,0.277l-1.679,3.278l-0.087,0.003l0.175-2.157
				c0.012-0.154-0.026-0.308-0.109-0.438l-0.771-1.218c-0.083-0.13-0.205-0.23-0.35-0.285l-2.025-0.763l0.041-0.077l3.681-0.12
				c0.127-0.004,0.251-0.042,0.357-0.11l2.451-1.554c0.004-0.003,0.01-0.005,0.014-0.008l4.17-2.643
				c0.012-0.008,0.022-0.017,0.034-0.025L32.145,10.442z"/>
			<path fill="#17171D" d="M11.659,22.468c0.393,0,0.711-0.319,0.711-0.711v-1.924c0-0.393-0.318-0.711-0.711-0.711
				s-0.711,0.318-0.711,0.711v1.924C10.948,22.149,11.266,22.468,11.659,22.468z"/>
			<path fill="#17171D" d="M11.659,17.466c0.393,0,0.711-0.319,0.711-0.711v-1.924c0-0.393-0.318-0.712-0.711-0.712
				s-0.711,0.319-0.711,0.712v1.924C10.948,17.147,11.266,17.466,11.659,17.466z"/>
			<path fill="#17171D" d="M11.659,27.469c0.393,0,0.711-0.318,0.711-0.711v-1.924c0-0.392-0.318-0.71-0.711-0.71
				s-0.711,0.319-0.711,0.71v1.924C10.948,27.151,11.266,27.469,11.659,27.469z"/>
			<path fill="#17171D" d="M41.348,27.469c0.393,0,0.711-0.318,0.711-0.711v-1.924c0-0.392-0.318-0.71-0.711-0.71
				s-0.711,0.319-0.711,0.71v1.924C40.637,27.151,40.956,27.469,41.348,27.469z"/>
			<path fill="#17171D" d="M11.659,12.464c0.393,0,0.711-0.318,0.711-0.711V9.829c0-0.392-0.318-0.711-0.711-0.711
				s-0.711,0.319-0.711,0.711v1.924C10.948,12.146,11.266,12.464,11.659,12.464z"/>
			<path fill="#17171D" d="M11.659,7.462c0.393,0,0.711-0.318,0.711-0.711V4.828c0-0.392-0.318-0.711-0.711-0.711
				s-0.711,0.319-0.711,0.711v1.923C10.948,7.144,11.266,7.462,11.659,7.462z"/>
			<path fill="#17171D" d="M41.348,17.269c0.393,0,0.711-0.318,0.711-0.711v-1.898c0-0.393-0.318-0.711-0.711-0.711
				s-0.711,0.318-0.711,0.711v1.898C40.637,16.951,40.956,17.269,41.348,17.269z"/>
			<path fill="#17171D" d="M41.348,22.204c0.393,0,0.711-0.317,0.711-0.711v-1.898c0-0.393-0.318-0.71-0.711-0.71
				s-0.711,0.318-0.711,0.71v1.898C40.637,21.887,40.956,22.204,41.348,22.204z"/>
			<path fill="#17171D" d="M41.348,12.333c0.393,0,0.711-0.318,0.711-0.711V9.723c0-0.393-0.318-0.711-0.711-0.711
				s-0.711,0.318-0.711,0.711v1.898C40.637,12.015,40.956,12.333,41.348,12.333z"/>
			<path fill="#17171D" d="M41.348,7.396c0.393,0,0.711-0.318,0.711-0.711V4.788c0-0.393-0.318-0.711-0.711-0.711
				s-0.711,0.318-0.711,0.711v1.898C40.637,7.078,40.956,7.396,41.348,7.396z"/>
		</g>
	</g>
	<path fill="#17171D" d="M51.752,9.709c0.393,0,0.711-0.317,0.711-0.71V0.861c0-0.393-0.318-0.711-0.711-0.711H16.665v1.422h23.59
		V1.75c0,0.393,0.319,0.711,0.712,0.711s0.711-0.318,0.711-0.711V1.572h9.364v6.749c-3.807,0.36-6.795,3.573-6.795,7.472
		s2.988,7.112,6.795,7.472v6.749h-9.364v-0.177c0-0.393-0.318-0.711-0.711-0.711s-0.712,0.318-0.712,0.711v0.177h-23.59v1.422
		h35.088c0.393,0,0.711-0.318,0.711-0.711v-8.138c0-0.393-0.318-0.711-0.711-0.711c-3.354,0-6.084-2.729-6.084-6.083
		S48.398,9.709,51.752,9.709z"/>
	<path fill="#17171D" d="M30.648,30.014H12.37v-0.177c0-0.393-0.318-0.711-0.711-0.711s-0.711,0.318-0.711,0.711v0.177H1.583v-6.749
		c3.807-0.36,6.794-3.574,6.794-7.472S5.39,8.681,1.583,8.321V1.572h9.364V1.75c0,0.393,0.318,0.711,0.711,0.711
		S12.37,2.143,12.37,1.75V1.572h18.278V0.15H0.873c-0.393,0-0.711,0.318-0.711,0.711v8.137c0,0.394,0.318,0.711,0.711,0.711
		c3.354,0,6.084,2.73,6.084,6.084s-2.729,6.083-6.084,6.083c-0.393,0-0.711,0.318-0.711,0.711v8.138
		c0,0.393,0.318,0.711,0.711,0.711h29.775V30.014z"/>
</g>
</svg>
