<?xml version="1.0" encoding="utf-8"?>
<!-- Generator: Adobe Illustrator 16.0.0, SVG Export Plug-In . SVG Version: 6.00 Build 0)  -->
<!DOCTYPE svg PUBLIC "-//W3C//DTD SVG 1.1//EN" "http://www.w3.org/Graphics/SVG/1.1/DTD/svg11.dtd">
<svg version="1.1" id="Layer_1" xmlns="http://www.w3.org/2000/svg" xmlns:xlink="http://www.w3.org/1999/xlink" x="0px" y="0px"
	 width="51.107px" height="51.235px" viewBox="0 0 51.107 51.235" enable-background="new 0 0 51.107 51.235" xml:space="preserve">
<g>
	<circle fill="#0593FC" cx="37.615" cy="13.562" r="13.257"/>
	<circle fill="#68CA44" cx="37.615" cy="13.562" r="13.257"/>
	<path fill="#0182FC" d="M50.872,13.562c0,7.322-5.936,13.257-13.257,13.257c-3.691,0-7.03-1.509-9.435-3.943
		c2.141,1.481,4.737,2.35,7.537,2.35c7.321,0,13.256-5.936,13.256-13.258c0-3.629-1.458-6.917-3.82-9.311
		C48.609,5.048,50.872,9.042,50.872,13.562z"/>
	<path fill="#4FC123" d="M50.872,13.562c0,7.322-5.936,13.257-13.257,13.257c-3.691,0-7.03-1.509-9.435-3.943
		c2.141,1.481,4.737,2.35,7.537,2.35c7.321,0,13.256-5.936,13.256-13.258c0-3.629-1.458-6.917-3.82-9.311
		C48.609,5.048,50.872,9.042,50.872,13.562z"/>
	<path fill="#EBEBEB" d="M42.338,8l-6.693,6.694c-0.207,0.207-0.544,0.207-0.751,0l-2.001-2.003c-0.736-0.735-1.928-0.735-2.664,0
		c-0.735,0.736-0.735,1.928,0,2.663l2.378,2.377l-0.002,0.001l1.433,1.433c0.679,0.679,1.781,0.679,2.46,0l8.503-8.503
		c0.735-0.735,0.735-1.928,0-2.663C44.266,7.265,43.074,7.265,42.338,8z"/>
	<path fill="#D3D1D1" d="M45.001,10.663l-8.503,8.503c-0.679,0.679-1.781,0.679-2.46,0l-0.451-0.451
		c0.504,0.055,1.027-0.113,1.414-0.5l8.503-8.502c0.612-0.611,0.714-1.542,0.307-2.259C44.245,7.486,44.67,7.668,45.001,8
		C45.737,8.735,45.737,9.928,45.001,10.663L45.001,10.663z"/>
	<path fill="#FAC600" d="M25.968,17.961h-8.419c-0.491,0-0.938,0.282-1.15,0.726l-1.823,3.819h7.183h7.184l-1.823-3.819
		C26.906,18.243,26.459,17.961,25.968,17.961z"/>
	<path fill="#E0AE10" d="M28.941,22.506h-1.789l-1.824-3.819c-0.211-0.443-0.66-0.726-1.15-0.726h1.791
		c0.491,0,0.938,0.282,1.151,0.726L28.941,22.506z"/>
	<path fill="#5A5A5A" d="M6.364,32.27H1.29c-0.578,0-1.046-0.468-1.046-1.045v-1.454c0-0.578,0.468-1.046,1.046-1.046h5.075V32.27z"
		/>
	<path fill="#5A5A5A" d="M37.326,32.27h5.075c0.577,0,1.045-0.468,1.045-1.045v-1.454c0-0.578-0.468-1.046-1.045-1.046h-5.075V32.27
		z"/>
	<path fill="#8AC9FE" d="M35.651,24.283c-0.62-1.217-1.87-1.981-3.235-1.981H21.845H11.274c-1.366,0-2.616,0.765-3.235,1.981
		L3.964,32.27h17.881h17.881L35.651,24.283z"/>
	<path fill="#60B7FF" d="M39.727,32.27h-2.318l-4.075-7.986c-0.621-1.217-1.87-1.981-3.235-1.981h2.318
		c1.365,0,2.614,0.764,3.234,1.981L39.727,32.27z"/>
	<path fill="#5A5A5A" d="M5.438,50.93H1.878c-0.908,0-1.643-0.736-1.643-1.643v-9.698h6.846v9.698
		C7.082,50.194,6.345,50.93,5.438,50.93z"/>
	<path fill="#5A5A5A" d="M41.812,50.93h-3.56c-0.907,0-1.643-0.736-1.643-1.643v-9.698h6.845v9.698
		C43.455,50.194,42.719,50.93,41.812,50.93z"/>
	<path fill="#444444" d="M7.082,39.589v9.698c0,0.907-0.736,1.643-1.644,1.643H3.609c0.908,0,1.643-0.735,1.643-1.643v-9.698H7.082z
		"/>
	<path fill="#444444" d="M43.455,39.589v9.698c0,0.907-0.735,1.643-1.643,1.643h-1.829c0.908,0,1.644-0.735,1.644-1.643v-9.698
		H43.455z"/>
	<path fill="#FAC600" d="M39.714,32.27H21.845H3.976L2.63,32.868c-1.456,0.647-2.395,2.092-2.395,3.685v3.133
		c0,0.843,0.318,1.655,0.891,2.274l5.261,5.682c0.494,0.533,1.187,0.836,1.913,0.836h13.545H35.39c0.726,0,1.42-0.303,1.913-0.836
		l5.262-5.682c0.572-0.619,0.89-1.431,0.89-2.274v-3.133c0-1.593-0.938-3.038-2.394-3.685L39.714,32.27z"/>
	<g>
		<path fill="#5A5A5A" d="M14.728,39.475c-0.409,0-0.741-0.332-0.741-0.742v-1.789c0-0.41,0.332-0.742,0.741-0.742
			c0.41,0,0.742,0.332,0.742,0.742v1.789C15.47,39.143,15.138,39.475,14.728,39.475z"/>
		<path fill="#5A5A5A" d="M17.575,39.475c-0.41,0-0.742-0.332-0.742-0.742v-1.789c0-0.41,0.332-0.742,0.742-0.742
			c0.41,0,0.742,0.332,0.742,0.742v1.789C18.317,39.143,17.985,39.475,17.575,39.475z"/>
		<path fill="#5A5A5A" d="M20.421,39.475c-0.409,0-0.742-0.332-0.742-0.742v-1.789c0-0.41,0.333-0.742,0.742-0.742
			c0.41,0,0.743,0.332,0.743,0.742v1.789C21.164,39.143,20.832,39.475,20.421,39.475z"/>
		<path fill="#5A5A5A" d="M23.269,39.475c-0.41,0-0.742-0.332-0.742-0.742v-1.789c0-0.41,0.332-0.742,0.742-0.742
			s0.742,0.332,0.742,0.742v1.789C24.01,39.143,23.678,39.475,23.269,39.475z"/>
		<path fill="#5A5A5A" d="M26.115,39.475c-0.41,0-0.741-0.332-0.741-0.742v-1.789c0-0.41,0.331-0.742,0.741-0.742
			c0.41,0,0.742,0.332,0.742,0.742v1.789C26.857,39.143,26.525,39.475,26.115,39.475z"/>
		<path fill="#5A5A5A" d="M28.962,39.475c-0.41,0-0.741-0.332-0.741-0.742v-1.789c0-0.41,0.332-0.742,0.741-0.742
			s0.741,0.332,0.741,0.742v1.789C29.703,39.143,29.372,39.475,28.962,39.475z"/>
	</g>
	<path fill="#E0AE10" d="M41.747,33.258c1.058,0.746,1.709,1.969,1.709,3.295v3.133c0,0.843-0.319,1.654-0.891,2.274l-5.262,5.682
		c-0.493,0.533-1.187,0.836-1.913,0.836H8.3c-0.726,0-1.419-0.303-1.913-0.836l-1.265-1.366c0.388,0.216,0.828,0.333,1.282,0.333
		h28.077c0.737,0,1.439-0.308,1.939-0.847c1.515-1.637,3.007-3.248,4.521-4.884c0.686-0.74,0.896-1.306,0.884-2.37L41.747,33.258z"
		/>
	<path fill="#5A5A5A" d="M14.739,41.854c-0.409,0-0.697,0.402-0.564,0.789l0.91,2.655c0.083,0.241,0.31,0.403,0.564,0.403h7.489
		h4.904c0.255,0,0.482-0.162,0.564-0.403l0.911-2.655c0.132-0.387-0.155-0.789-0.565-0.789H14.739z"/>
	<path fill="#444444" d="M29.517,42.643l-0.911,2.656c-0.083,0.241-0.31,0.402-0.565,0.402H15.649c-0.256,0-0.482-0.162-0.565-0.402
		l-0.354-1.034c0.011,0.002,0.023,0.002,0.034,0.002h12.054c0.249,0,0.469-0.157,0.55-0.392l0.692-2.021h0.891
		C29.361,41.854,29.648,42.256,29.517,42.643z"/>
	<circle fill="#EBEBEB" cx="7.872" cy="38.566" r="2.751"/>
	<circle fill="#EBEBEB" cx="35.818" cy="38.566" r="2.751"/>
</g>
</svg>
