<?xml version="1.0" encoding="utf-8"?>
<!-- Generator: Adobe Illustrator 16.0.0, SVG Export Plug-In . SVG Version: 6.00 Build 0)  -->
<!DOCTYPE svg PUBLIC "-//W3C//DTD SVG 1.1//EN" "http://www.w3.org/Graphics/SVG/1.1/DTD/svg11.dtd">
<svg version="1.1" id="Layer_1" xmlns="http://www.w3.org/2000/svg" xmlns:xlink="http://www.w3.org/1999/xlink" x="0px" y="0px"
	 width="37.442px" height="37.345px" viewBox="0 0 37.442 37.345" enable-background="new 0 0 37.442 37.345" xml:space="preserve">
<g>
	<linearGradient id="SVGID_1_" gradientUnits="userSpaceOnUse" x1="9.4697" y1="34.6973" x2="27.9729" y2="2.6488">
		<stop  offset="0" style="stop-color:#36CEE9"/>
		<stop  offset="1" style="stop-color:#3693E9"/>
	</linearGradient>
	<circle fill="url(#SVGID_1_)" cx="18.721" cy="18.672" r="18.5"/>
	<g>
		<path fill="#FFFFFF" d="M17.821,22.724c0,1.34-0.451,2.414-1.352,3.221c-0.9,0.811-2.021,1.213-3.359,1.213
			c-1.709,0-3.048-0.543-4.018-1.629c-0.97-1.084-1.455-2.527-1.455-4.328c0-1.846,0.288-3.417,0.866-4.709
			c0.577-1.292,1.27-2.367,2.078-3.221c0.808-0.854,1.651-1.524,2.528-2.009c0.877-0.485,1.639-0.842,2.285-1.074l2.218,3.741
			c-0.925,0.37-1.709,0.958-2.355,1.766c-0.646,0.809-1.017,1.674-1.108,2.598c0.923,0,1.767,0.405,2.528,1.212
			C17.439,20.312,17.821,21.386,17.821,22.724z M29.803,22.724c0,1.34-0.449,2.414-1.35,3.221c-0.9,0.811-2.021,1.213-3.36,1.213
			c-1.709,0-3.048-0.543-4.017-1.629c-0.971-1.084-1.456-2.527-1.456-4.328c0-1.846,0.289-3.417,0.866-4.709
			c0.577-1.292,1.27-2.367,2.078-3.221c0.808-0.854,1.65-1.524,2.528-2.009c0.876-0.485,1.64-0.842,2.286-1.074l2.217,3.741
			c-0.925,0.37-1.709,0.958-2.355,1.766c-0.647,0.809-1.016,1.674-1.107,2.598c0.923,0,1.766,0.405,2.527,1.212
			C29.422,20.312,29.803,21.386,29.803,22.724z"/>
	</g>
</g>
</svg>
