<?xml version="1.0" encoding="utf-8"?>
<!-- Generator: Adobe Illustrator 16.0.0, SVG Export Plug-In . SVG Version: 6.00 Build 0)  -->
<!DOCTYPE svg PUBLIC "-//W3C//DTD SVG 1.1//EN" "http://www.w3.org/Graphics/SVG/1.1/DTD/svg11.dtd">
<svg version="1.1" id="Layer_1" xmlns="http://www.w3.org/2000/svg" xmlns:xlink="http://www.w3.org/1999/xlink" x="0px" y="0px"
	 width="114.629px" height="97.758px" viewBox="0 0 114.629 97.758" enable-background="new 0 0 114.629 97.758"
	 xml:space="preserve">
<g>
	<g>
		<path fill="#36CEE9" d="M108.307,10.97L88.522,2.728c-1.77-0.738-3.781-0.738-5.551,0L63.186,10.97
			c-2.547,1.062-4.193,3.472-4.193,6.136v35.47l0.006,36.018v0.002c0.141,3.574,3.204,6.431,6.963,6.431h39.57
			c3.85,0,6.969-2.994,6.969-6.688V17.105C112.5,14.441,110.853,12.031,108.307,10.97z M85.411,22.527
			c-2.586,0-4.683-2.097-4.683-4.682c0-2.586,2.097-4.682,4.683-4.682c2.585,0,4.682,2.096,4.682,4.682
			C90.092,20.431,87.996,22.527,85.411,22.527z"/>
		<path fill="#34C7D6" d="M74.606,88.595v-0.002l-0.002-4.256c1.274-1.925,2.019-4.229,2.019-6.706c0-1.3-0.204-2.553-0.583-3.729
			c1.514-2.031,2.412-4.549,2.412-7.271c0-1.289-0.201-2.53-0.574-3.698c1.529-2.036,2.436-4.564,2.436-7.302
			c0-4.343-2.285-8.16-5.714-10.318V17.105c0-2.665,1.647-5.074,4.193-6.137L93.549,4.82l-5.027-2.094
			c-1.77-0.738-3.781-0.738-5.551,0l-19.785,8.242c-2.547,1.062-4.193,3.472-4.193,6.137v26.339v9.13v0.001l0.006,36.018v0.002l0,0
			c0.141,3.574,3.204,6.431,6.963,6.431h6.613l0,0h8.993C77.809,95.025,74.747,92.169,74.606,88.595L74.606,88.595z"/>
		<path fill="#FF7F00" d="M18.209,95.582H2.129V48.344h16.08V95.582z"/>
		<path fill="#FFF3DE" d="M59.456,83.13h2.75c3.037,0,5.498,2.462,5.498,5.499c0,3.038-2.461,5.5-5.498,5.5H32.708
			c-1.485,0-2.923-0.504-4.102-1.407c-3.109-2.384-6.399-2.889-10.397-3.126V54.624c9.403-10.745,21.321-11.755,20.487-27.812
			c-0.145-2.778,2.069-5.111,4.853-5.111c2.127,0,4.02,1.382,4.641,3.417c2.524,8.273,3.156,16.484-0.177,25.015h20.112
			c3.037,0,5.498,2.462,5.498,5.499s-2.461,5.5-5.498,5.5h-6.842h4.979c3.038,0,5.5,2.462,5.5,5.499s-2.462,5.499-5.5,5.499h-4.979
			h3.15c3.038,0,5.5,2.462,5.5,5.499c0,3.038-2.462,5.5-5.5,5.5L59.456,83.13L59.456,83.13z"/>
		<path fill="#F0A479" d="M59.456,83.13h2.75c3.037,0,5.498,2.462,5.498,5.499c0,3.038-2.461,5.5-5.498,5.5H32.708
			c-1.485,0-2.923-0.504-4.102-1.407c-3.109-2.384-6.399-2.889-10.397-3.126V54.624c9.403-10.745,21.321-11.755,20.487-27.812
			c-0.145-2.778,2.069-5.111,4.853-5.111c2.127,0,4.02,1.382,4.641,3.417c2.524,8.273,3.156,16.484-0.177,25.015h20.112
			c3.037,0,5.498,2.462,5.498,5.499s-2.461,5.5-5.498,5.5h-6.842h4.979c3.038,0,5.5,2.462,5.5,5.499s-2.462,5.499-5.5,5.499h-4.979
			h3.15c3.038,0,5.5,2.462,5.5,5.499c0,3.038-2.462,5.5-5.5,5.5L59.456,83.13L59.456,83.13z"/>
		<path fill="#E59770" d="M50.219,40.372c-3.66,4.267-9.222,7.058-14.375,12.11c-1.291,1.266-2.027,2.992-2.027,4.799v26.391
			c0,3.107,2.102,5.858,5.124,6.58c2.462,0.587,4.687,1.687,6.866,3.877H32.708c-1.485,0-2.922-0.504-4.101-1.407
			c-3.109-2.383-6.4-2.888-10.398-3.126v-34.97c9.411-10.753,21.34-11.757,20.485-27.847c-0.146-2.766,2.084-5.077,4.854-5.077
			c1.063,0,2.07,0.346,2.887,0.945s1.444,1.451,1.754,2.47C49.74,30.196,50.576,35.251,50.219,40.372z"/>
	</g>
	<g>
		<path fill="#303C42" d="M108.955,9.428l-19.79-8.245c-2.17-0.903-4.66-0.903-6.83,0.001l-9.502,3.957
			c-0.85,0.354-1.25,1.329-0.897,2.179c0.354,0.85,1.329,1.251,2.179,0.897l9.502-3.958c1.355-0.564,2.912-0.565,4.269,0
			l19.788,8.244c1.926,0.803,3.168,2.608,3.168,4.599V88.34c0,2.77-2.379,5.024-5.303,5.024h-2.701c-0.92,0-1.666,0.745-1.666,1.665
			c0,0.921,0.746,1.667,1.666,1.667h2.701c4.762,0,8.635-3.749,8.635-8.356V17.102C114.172,13.762,112.125,10.75,108.955,9.428z"/>
		<path fill="#303C42" d="M95.577,93.364H67.587c1.153-1.31,1.783-2.972,1.783-4.73c0-1.756-0.635-3.364-1.687-4.611
			c0.663-0.339,1.277-0.781,1.818-1.322c1.354-1.354,2.099-3.153,2.099-5.067c0-1.824-0.687-3.491-1.813-4.758
			c0.557-0.315,1.077-0.708,1.543-1.174c1.353-1.353,2.098-3.152,2.098-5.066c0-1.82-0.682-3.482-1.803-4.747
			c0.567-0.318,1.096-0.716,1.569-1.188c1.353-1.355,2.097-3.154,2.097-5.065c0-3.952-3.214-7.167-7.165-7.167h-7.47V17.102
			c0-1.99,1.244-3.796,3.168-4.599l3.03-1.262c0.849-0.354,1.251-1.328,0.897-2.178s-1.328-1.252-2.178-0.897l-3.031,1.262
			c-3.169,1.322-5.217,4.335-5.217,7.674v31.365h-6.961c2.318-7.324,2.12-14.968-0.584-23.839c-0.41-1.344-1.229-2.494-2.363-3.327
			c-1.131-0.828-2.469-1.268-3.871-1.268c-1.808,0-3.488,0.723-4.732,2.033c-1.245,1.311-1.878,3.025-1.785,4.83
			c0.521,10.016-4.099,13.464-10.493,18.235c-2.104,1.57-4.406,3.288-6.667,5.396v-2.183c0-0.92-0.746-1.666-1.666-1.666H2.124
			c-0.92,0-1.666,0.746-1.666,1.666v47.242c0,0.921,0.746,1.666,1.666,1.666h16.08c0.92,0,1.666-0.745,1.666-1.666v-4.19
			c3.164,0.302,5.475,0.932,7.719,2.652c1.475,1.129,3.291,1.752,5.116,1.752h29.377c1.2,0.585,2.53,0.896,3.88,0.896h29.615
			c0.92,0,1.665-0.746,1.665-1.667C97.242,94.109,96.497,93.364,95.577,93.364L95.577,93.364z M29.616,91.404
			c-3.141-2.406-6.498-3.075-9.746-3.355V68.598c0-0.92-0.746-1.666-1.666-1.666s-1.666,0.746-1.666,1.666v25.323H3.79v-43.91
			h12.748V61.34c0,0.921,0.746,1.666,1.666,1.666s1.666-0.745,1.666-1.666v-6.08c2.786-3.074,5.77-5.301,8.66-7.458
			c6.398-4.774,12.441-9.284,11.828-21.078c-0.046-0.883,0.264-1.723,0.873-2.364c0.609-0.641,1.432-0.994,2.316-0.994
			c0.689,0,1.346,0.215,1.899,0.621c0.553,0.406,0.95,0.965,1.149,1.615c2.755,9.036,2.711,16.639-0.135,23.926
			c-0.201,0.512-0.135,1.091,0.175,1.545c0.311,0.455,0.825,0.727,1.376,0.727h20.115c2.113,0,3.834,1.721,3.834,3.836
			c0,1.022-0.4,1.986-1.122,2.71c-0.726,0.724-1.688,1.124-2.712,1.124h-6.844c-0.92,0-1.665,0.745-1.665,1.665
			s0.745,1.666,1.665,1.666h4.98c2.113,0,3.833,1.72,3.833,3.835c0,1.025-0.398,1.988-1.122,2.711
			c-0.725,0.725-1.688,1.123-2.711,1.123h-4.98c-0.92,0-1.665,0.745-1.665,1.666c0,0.92,0.745,1.666,1.665,1.666h3.152
			c2.113,0,3.834,1.72,3.834,3.833c0,1.024-0.398,1.987-1.123,2.712s-1.688,1.123-2.711,1.123h-2.23h-2.75
			c-0.92,0-1.665,0.746-1.665,1.667c0,0.92,0.745,1.665,1.665,1.665h2.75c2.114,0,3.834,1.72,3.834,3.834
			c0,1.023-0.399,1.988-1.121,2.711c-0.676,0.676-1.745,1.106-2.545,1.12c-0.055,0.001-29.669,0.004-29.669,0.004
			C31.608,92.469,30.511,92.091,29.616,91.404L29.616,91.404z"/>
		<path fill="#303C42" d="M91.761,17.842c0-3.5-2.848-6.348-6.349-6.348c-3.5,0-6.348,2.848-6.348,6.348s2.848,6.348,6.348,6.348
			C88.914,24.189,91.761,21.342,91.761,17.842z M82.397,17.842c0-1.663,1.354-3.017,3.016-3.017c1.664,0,3.018,1.354,3.018,3.017
			s-1.354,3.017-3.018,3.017C83.75,20.858,82.397,19.505,82.397,17.842z"/>
		<path fill="#FFFFFF" d="M86.454,74.68h-2.988c-1.572,0-2.853-1.281-2.853-2.854c0-0.92-0.745-1.666-1.665-1.666
			c-0.921,0-1.666,0.746-1.666,1.666c0,3.354,2.682,6.09,6.013,6.181v3.688c0,0.92,0.745,1.664,1.665,1.664
			c0.921,0,1.666-0.744,1.666-1.664v-3.688c3.332-0.091,6.014-2.827,6.014-6.181v-2.307c0-2.139-1.367-4.02-3.401-4.682
			l-7.525-2.444c-0.657-0.214-1.1-0.821-1.1-1.514v-3.302c0-1.277,1.04-2.317,2.317-2.317h4.061c1.277,0,2.317,1.04,2.317,2.317
			c0,0.92,0.745,1.666,1.665,1.666c0.921,0,1.666-0.746,1.666-1.666c0-3.115-2.533-5.649-5.648-5.649h-0.365v-3.682
			c0-0.92-0.745-1.666-1.666-1.666c-0.92,0-1.665,0.746-1.665,1.666v3.682H82.93c-3.115,0-5.648,2.534-5.648,5.649v3.302
			c0,2.14,1.366,4.021,3.401,4.683l7.524,2.444c0.658,0.213,1.1,0.822,1.1,1.513v2.307C89.308,73.398,88.028,74.68,86.454,74.68z"/>
	</g>
</g>
</svg>
