<?xml version="1.0" encoding="utf-8"?>
<!-- Generator: Adobe Illustrator 16.0.0, SVG Export Plug-In . SVG Version: 6.00 Build 0)  -->
<!DOCTYPE svg PUBLIC "-//W3C//DTD SVG 1.1//EN" "http://www.w3.org/Graphics/SVG/1.1/DTD/svg11.dtd">
<svg version="1.1" id="Layer_1" xmlns="http://www.w3.org/2000/svg" xmlns:xlink="http://www.w3.org/1999/xlink" x="0px" y="0px"
	 width="116.483px" height="109.714px" viewBox="0 0 116.483 109.714" enable-background="new 0 0 116.483 109.714"
	 xml:space="preserve">
<g>
	<circle fill="#36CEE9" cx="58.179" cy="30.484" r="28.354"/>
	<path fill="#06B0F2" d="M36.062,30.485c0-14.605,11.043-26.629,25.234-28.182C44.39,0.454,29.826,13.691,29.826,30.485
		c0,16.8,14.57,30.029,31.471,28.181C47.105,57.114,36.062,45.09,36.062,30.485z"/>
	<path fill="#E59770" d="M11.689,34.789l6.39,15.354c0.541-1.097,0.377-0.431,1.44-15.189c0.187-2.576-1.751-4.814-4.326-5
		c-1.972-0.142-3.742,0.962-4.549,2.642C11.336,33.597,11.631,34.618,11.689,34.789z"/>
	<path fill="#DD855F" d="M15.292,34.359c-0.567-1.551,0.096-3.264,1.478-4.003c-2.377-1.067-5.054,0.009-6.125,2.239
		c0.692,1.001,0.988,2.022,1.045,2.193l6.39,15.354c0.517-1.047,0.438-1.264,0.849-6.966C14.586,32.744,15.656,35.355,15.292,34.359
		z"/>
	<path fill="#F0A479" d="M29.458,84.207l0.208,3.068l19.525-1.431c-0.322-4.158-1.007-8.507-2.092-12.535
		c-1.213-4.503-2.193-5.821-7.633-12.567l0,0c-1.818-2.169-3.246-2.729-13.762-8.597c-3.793-2.118-5.992,1.385-5.992,1.385
		l-7.799-18.741c-0.131-0.389-1.494-5.188-5.979-4.112c-4.117,1.129-3.486,5.557-3.31,6.396c0.004,0.012,7.228,26.575,7.231,26.587
		c0.873,4.135,3.814,6.415,5.231,7.297l8.425,4.701C26.744,77.461,29.191,80.56,29.458,84.207z"/>
	<path fill="#E59770" d="M33.947,84.207c-0.268-3.65-2.719-6.747-5.944-8.549l-8.425-4.701c-2.594-1.615-4.508-4.095-5.233-7.3
		L7.116,37.073c-0.16-0.757-0.686-4.421,2.216-5.967c-2.906-1.758-7.873,0.434-6.706,5.967c0,0.001,7.23,26.587,7.23,26.587
		c0.874,4.135,3.815,6.415,5.232,7.297l8.425,4.701c3.23,1.803,5.678,4.9,5.944,8.549l0.208,3.068l4.467-0.328L33.947,84.207z"/>
	<path fill="#FF7F00" d="M28.525,107.443h24.682c1.1,0,1.969-0.934,1.888-2.031l-1.337-18.251c-0.076-1.03-0.973-1.805-2.003-1.729
		l-24.618,1.805c-1.029,0.074-1.805,0.971-1.729,2.002l1.204,16.427C26.685,106.667,27.52,107.443,28.525,107.443z"/>
	<path fill="#E87207" d="M31.203,106.439l-1.305-17.805c-0.048-0.647,0.215-1.245,0.662-1.65l-3.424,0.252
		c-1.029,0.075-1.805,0.971-1.729,2.002l1.203,16.427c0.074,1.002,0.908,1.778,1.913,1.778h3.025
		C31.355,107.152,31.23,106.811,31.203,106.439z"/>
	<path fill="#E59770" d="M98.437,50.144c-0.541-1.097-0.377-0.431-1.441-15.189c-0.186-2.576,1.752-4.814,4.327-5
		c1.972-0.142,3.742,0.962,4.549,2.642C105.355,33.343,106.16,31.586,98.437,50.144z"/>
	<path fill="#DD855F" d="M101.44,34.954c-0.136-1.892,0.874-3.598,2.44-4.446c-3.23-1.755-7.149,0.764-6.885,4.446l0.971,13.459
		c0.045,0.622,0.211,1.204,0.471,1.73l3.493-8.394L101.44,34.954z"/>
	<path fill="#F0A479" d="M88.947,79.233c-1.994,2.615-1.883,4.874-2.098,8.042l-19.525-1.431c0.322-4.158,1.007-8.507,2.092-12.535
		c1.214-4.503,2.193-5.821,7.634-12.567l0,0c1.819-2.169,3.245-2.729,13.761-8.597c3.794-2.118,5.993,1.385,5.993,1.385
		l7.799-18.741c0.131-0.389,1.493-5.188,5.979-4.112c4.117,1.129,3.484,5.557,3.309,6.396l-7.229,26.584
		c0,0-0.001,0.001-0.001,0.003c-0.875,4.135-3.816,6.415-5.232,7.297C91.604,76.438,91.119,76.385,88.947,79.233z"/>
	<g>
		<path fill="#E59770" d="M100.394,54.332l7.799-18.741c0.107-0.323,1.066-3.676,3.947-4.198c-1.795-1.263-5.752-1.923-7.538,3.396
			l-7.29,17.518C99.294,52.586,100.394,54.332,100.394,54.332z"/>
		<path fill="#E59770" d="M73.006,74.111c1.213-4.504,2.193-5.822,7.634-12.567l0,0c1.818-2.169,3.245-2.729,13.761-8.597
			c0.474-0.264,0.921-0.44,1.343-0.547c-1.002-0.793-2.688-1.508-4.934-0.255c-10.514,5.868-11.941,6.428-13.761,8.597l0,0
			c-5.44,6.746-6.419,8.064-7.634,12.567c-1.084,4.028-1.77,8.377-2.091,12.535l3.638,0.267
			C71.299,82.115,71.966,77.967,73.006,74.111z"/>
	</g>
	<path fill="#FF7F00" d="M87.991,107.443H63.308c-1.1,0-1.967-0.934-1.887-2.031l1.336-18.251c0.076-1.03,0.973-1.805,2.004-1.729
		l24.617,1.805c1.03,0.074,1.805,0.971,1.729,2.002l-1.204,16.427C89.831,106.667,88.996,107.443,87.991,107.443z"/>
	<path fill="#E87207" d="M65.91,105.412l1.338-18.251c0.047-0.639,0.41-1.179,0.924-1.479l-3.41-0.25
		c-1.031-0.075-1.928,0.699-2.004,1.729l-1.336,18.252c-0.08,1.097,0.787,2.03,1.887,2.03h4.488
		C66.698,107.443,65.83,106.51,65.91,105.412z"/>
	<path fill="#303C42" d="M58.25,60.59c16.747,0,30.036-13.628,30.037-30.035l0,0l0,0l0,0c0-16.497-13.357-30.037-30.037-30.037
		c-16.644,0-30.036,13.526-30.036,30.037l0,0l0,0l0,0C28.213,47.035,41.585,60.59,58.25,60.59z M31.634,32.236H41.91
		c0.117,4.091,0.661,7.938,1.553,11.401c-2.436,0.737-4.68,1.659-6.66,2.749C33.835,42.379,31.964,37.514,31.634,32.236z
		 M36.802,14.722c1.98,1.088,4.225,2.011,6.66,2.748c-0.892,3.464-1.436,7.312-1.553,11.401H31.634
		C31.951,23.825,33.632,19.048,36.802,14.722z M84.864,28.871H74.589c-0.117-4.09-0.661-7.938-1.553-11.4
		c2.436-0.738,4.679-1.66,6.66-2.749C82.805,18.963,84.542,23.709,84.864,28.871z M79.697,46.387
		c-1.981-1.09-4.225-2.012-6.66-2.749c0.892-3.464,1.436-7.312,1.553-11.401h10.274C84.535,37.514,82.664,42.379,79.697,46.387z
		 M47.734,46.006c2.776-0.595,5.756-0.951,8.832-1.047v12.029C52.179,55.764,49.254,50.301,47.734,46.006z M49.105,5.502
		c-2.08,2.531-3.604,5.65-4.676,8.748c-1.959-0.595-3.779-1.316-5.408-2.157C41.81,9.184,45.272,6.903,49.105,5.502z M77.478,12.093
		c-1.629,0.841-3.449,1.563-5.408,2.156c-1.208-3.489-2.801-6.466-4.676-8.748C71.193,6.891,74.662,9.156,77.478,12.093z
		 M68.765,15.102c-2.776,0.596-5.756,0.952-8.832,1.048V4.119C63.519,5.121,66.698,9.261,68.765,15.102z M45.28,32.236h11.287v9.352
		c-3.412,0.102-6.726,0.51-9.813,1.193C45.862,39.346,45.394,35.771,45.28,32.236z M46.751,18.327
		c3.09,0.683,6.403,1.093,9.814,1.193v9.351H45.279C45.396,25.255,45.883,21.681,46.751,18.327z M59.933,44.959
		c3.076,0.096,6.056,0.452,8.832,1.047c-2.068,5.841-5.246,9.982-8.832,10.982V44.959L59.933,44.959z M59.933,41.588v-9.352H71.22
		c-0.121,3.76-0.642,7.335-1.473,10.545C66.658,42.098,63.344,41.689,59.933,41.588z M59.933,28.871v-9.351
		c3.412-0.102,6.725-0.511,9.814-1.193c0.83,3.21,1.352,6.785,1.473,10.544H59.933z M56.566,16.149
		c-3.076-0.097-6.057-0.452-8.832-1.048c1.514-4.274,4.467-9.762,8.832-10.982V16.149z M67.392,55.608
		c1.877-2.282,3.469-5.26,4.678-8.75c1.959,0.595,3.779,1.315,5.408,2.157C74.687,51.921,71.248,54.198,67.392,55.608z
		 M44.429,46.858c1.072,3.098,2.597,6.219,4.678,8.75c-3.854-1.411-7.295-3.688-10.086-6.594
		C40.65,48.174,42.47,47.452,44.429,46.858z"/>
	<path fill="#303C42" d="M105.796,30.075c-4.154-3.968-11.139-0.737-10.721,5.069l0.971,13.459c0.039,0.549,0.151,1.086,0.329,1.604
		l-0.214,0.513c-1.58-0.955-3.762-1.33-6.188,0.024c-1.74,0.971-3.23,1.797-4.514,2.508c-6.589,3.647-7.984,4.421-9.691,6.447
		c-0.016,0.018-0.032,0.036-0.047,0.055c-5.447,6.756-6.646,8.354-7.947,13.187c-0.948,3.518-1.617,7.192-1.996,10.948l-0.912-0.066
		c-0.946-0.069-1.863,0.233-2.582,0.854c-0.719,0.62-1.152,1.483-1.221,2.431l-1.338,18.252c-0.152,2.069,1.49,3.836,3.566,3.836
		h24.682c1.877,0,3.455-1.466,3.592-3.338l0.273-3.725c0.068-0.928-0.629-1.734-1.556-1.803c-0.927-0.067-1.733,0.629-1.802,1.557
		l-0.273,3.725c-0.008,0.121-0.111,0.217-0.234,0.217H63.292c-0.06,0-0.111-0.022-0.153-0.066c-0.041-0.045-0.059-0.098-0.055-0.157
		l1.337-18.252c0.004-0.052,0.025-0.095,0.064-0.128c0.04-0.033,0.085-0.049,0.136-0.045c10.101,0.74,12.939,0.947,24.618,1.803
		c0.103,0.008,0.181,0.099,0.173,0.201l-0.354,4.846c-0.068,0.928,0.628,1.734,1.556,1.802c0.926,0.069,1.734-0.628,1.802-1.556
		l0.355-4.846c0.143-1.955-1.331-3.661-3.285-3.805l-0.851-0.063l0.086-1.164c0.108-1.48,0.644-2.89,1.549-4.076
		c1.929-2.529,2.232-2.397,11.963-7.827c2.559-1.436,5.242-4.604,6.048-8.37c0.021-0.071,7.226-26.563,7.241-26.637
		C117.103,29.993,109.799,27.09,105.796,30.075z M103.652,32.698c0,0-4.581,11.03-4.581,11.031l-0.636-8.827
		C98.228,32.051,101.779,30.578,103.652,32.698z M112.235,36.751c-0.02,0.072-7.224,26.557-7.239,26.63
		c-0.745,3.529-3.328,5.495-4.441,6.195c-9.732,5.43-10.551,5.542-12.963,8.705c-1.302,1.708-2.072,3.738-2.229,5.871l-0.085,1.166
		l-16.139-1.183c0.361-3.542,0.994-7.006,1.887-10.319c1.096-4.068,1.855-5.175,7.295-11.919c1.271-1.579,2.869-2.433,8.77-5.7
		c1.288-0.713,2.781-1.54,4.524-2.513c1.403-0.783,2.778-0.596,3.785,0.867c0.174,0.254,0.973,1.574-0.429,2.637
		c-2.723,2.063-9.184,7.001-9.249,7.051c-0.738,0.564-0.88,1.621-0.315,2.359c0.564,0.739,1.621,0.88,2.36,0.315
		c0.064-0.05,6.521-4.982,9.237-7.042c2.513-1.904,2.432-4.577,1.645-6.365c7.776-18.688,7.494-17.995,7.559-18.19
		c0.655-2.049,1.852-3.427,3.938-2.94C112.792,33.122,112.375,36.056,112.235,36.751z"/>
	<path fill="#303C42" d="M55.419,87.107c-0.068-0.946-0.503-1.811-1.222-2.431c-0.718-0.62-1.636-0.923-2.582-0.854l-0.912,0.067
		c-0.378-3.756-1.048-7.431-1.995-10.948c-1.301-4.832-2.499-6.431-7.947-13.187c-1.949-2.419-4.066-3.326-14.252-9.01
		c-2.426-1.354-4.607-0.98-6.188-0.025l-0.213-0.513c0.362-1.056,0.233-0.282,1.299-15.063c0.419-5.807-6.564-9.037-10.72-5.069
		c-4.001-2.984-11.308-0.083-9.725,7.414c0.016,0.073,7.221,26.564,7.24,26.636c0.8,3.711,3.438,6.907,6.049,8.371
		c9.729,5.43,10.033,5.297,11.963,7.827c1.291,1.693,1.5,3.173,1.645,5.239l-0.861,0.063c-1.953,0.144-3.428,1.85-3.284,3.804
		l1.203,16.428c0.138,1.872,1.715,3.338,3.591,3.338h7.403c0.929,0,1.684-0.754,1.684-1.684s-0.755-1.683-1.684-1.683h-7.403
		c-0.121,0-0.224-0.096-0.232-0.218l-1.204-16.428c-0.007-0.103,0.07-0.192,0.173-0.199c2.663-0.195,21.607-1.584,24.618-1.805
		c0.05-0.003,0.097,0.012,0.136,0.045s0.061,0.077,0.064,0.129l1.337,18.252c0.005,0.06-0.015,0.113-0.056,0.157
		c-0.04,0.044-0.092,0.066-0.152,0.066h-9.424c-0.93,0-1.685,0.754-1.685,1.684c0,0.929,0.755,1.684,1.685,1.684h9.424
		c2.075,0,3.718-1.767,3.566-3.837L55.419,87.107z M18.048,34.902l-0.637,8.827c-5.104-12.268-4.206-10.297-4.581-11.031
		C14.706,30.576,18.253,32.055,18.048,34.902z M28.89,78.281c-2.412-3.163-3.234-3.277-12.962-8.705
		c-1.113-0.7-3.696-2.666-4.445-6.212c-0.006-0.025-0.013-0.054-0.021-0.079L4.248,36.751c-0.139-0.695-0.558-3.629,2.09-4.375
		C7.7,32.059,8.69,32.5,9.467,33.624c0.347,0.5-0.471-1.353,8.366,19.883c-0.785,1.789-0.867,4.461,1.645,6.365
		c2.718,2.06,9.174,6.993,9.238,7.043c0.74,0.565,1.797,0.422,2.36-0.316c0.564-0.738,0.423-1.794-0.315-2.358
		c-0.065-0.05-6.526-4.987-9.249-7.052c-1.48-1.122-0.714-2.833,0.62-3.63c0.828-0.493,1.697-0.453,2.736,0.127
		c10.356,5.779,11.701,6.311,13.291,8.207c5.807,6.928,6.427,8.688,7.299,11.926c0.893,3.313,1.525,6.775,1.887,10.317
		l-16.129,1.181C31.05,82.973,30.75,80.72,28.89,78.281z"/>
</g>
</svg>
