<?xml version="1.0" encoding="utf-8"?>
<!-- Generator: Adobe Illustrator 16.0.0, SVG Export Plug-In . SVG Version: 6.00 Build 0)  -->
<!DOCTYPE svg PUBLIC "-//W3C//DTD SVG 1.1//EN" "http://www.w3.org/Graphics/SVG/1.1/DTD/svg11.dtd">
<svg version="1.1" id="Layer_1" xmlns="http://www.w3.org/2000/svg" xmlns:xlink="http://www.w3.org/1999/xlink" x="0px" y="0px"
	 width="113.878px" height="113.386px" viewBox="0 0 113.878 113.386" enable-background="new 0 0 113.878 113.386"
	 xml:space="preserve">
<g>
	<path fill="#303C42" d="M85.108,23.829H71.023V9.745c0-5.179-4.21-9.39-9.389-9.39H33.465c-5.179,0-9.39,4.211-9.39,9.39v14.084
		H9.992c-5.179,0-9.39,4.212-9.39,9.39v44.6c0,1.298,1.05,2.349,2.347,2.349h23.474h42.253H92.15c1.297,0,2.347-1.051,2.347-2.349
		v-44.6C94.497,28.041,90.286,23.829,85.108,23.829z"/>
	<path fill="#E6E6E6" d="M24.076,75.472H5.297V33.219c0-2.588,2.106-4.694,4.695-4.694h14.084V75.472L24.076,75.472z"/>
	<path fill="#303C42" d="M17.034,33.219h-4.695c-1.297,0-2.347,1.05-2.347,2.348v4.695c0,1.297,1.05,2.347,2.347,2.347h4.694
		c1.297,0,2.348-1.05,2.348-2.347v-4.695C19.381,34.269,18.331,33.219,17.034,33.219z"/>
	<rect x="42.855" y="56.693" fill="#BBDEFB" width="9.39" height="18.778"/>
	<g>
		<polygon opacity="0.4" fill="#FFFFFF" enable-background="new    " points="42.855,68.43 52.245,59.041 52.245,56.693 
			50.786,56.693 42.855,64.624 		"/>
		<polygon opacity="0.4" fill="#FFFFFF" enable-background="new    " points="42.855,75.472 52.245,66.082 52.245,61.874 
			42.855,71.264 		"/>
	</g>
	<path fill="#E6E6E6" d="M61.634,5.051H33.465c-2.588,0-4.695,2.106-4.695,4.694v65.727h9.389V54.346
		c0-1.298,1.05-2.348,2.348-2.348h14.084c1.297,0,2.347,1.05,2.347,2.348v21.126h9.39V9.745C66.329,7.157,64.222,5.051,61.634,5.051
		z"/>
	<g>
		<path fill="#303C42" d="M42.855,9.745h-7.042c-1.297,0-2.348,1.05-2.348,2.348v4.694c0,1.298,1.05,2.348,2.348,2.348h7.042
			c1.297,0,2.347-1.05,2.347-2.348v-4.695C45.202,10.795,44.152,9.745,42.855,9.745z"/>
		<path fill="#303C42" d="M59.286,9.745h-7.042c-1.298,0-2.348,1.05-2.348,2.348v4.694c0,1.298,1.05,2.348,2.348,2.348h7.042
			c1.298,0,2.348-1.05,2.348-2.348v-4.695C61.634,10.795,60.584,9.745,59.286,9.745z"/>
		<path fill="#303C42" d="M42.855,23.829h-7.042c-1.297,0-2.348,1.051-2.348,2.349v4.693c0,1.299,1.05,2.348,2.348,2.348h7.042
			c1.297,0,2.347-1.049,2.347-2.348v-4.693C45.202,24.88,44.152,23.829,42.855,23.829z"/>
		<path fill="#303C42" d="M59.286,23.829h-7.042c-1.298,0-2.348,1.051-2.348,2.349v4.693c0,1.299,1.05,2.348,2.348,2.348h7.042
			c1.298,0,2.348-1.049,2.348-2.348v-4.693C61.634,24.88,60.584,23.829,59.286,23.829z"/>
		<path fill="#303C42" d="M42.855,37.914h-7.042c-1.297,0-2.348,1.049-2.348,2.348v4.694c0,1.298,1.05,2.347,2.348,2.347h7.042
			c1.297,0,2.347-1.049,2.347-2.347v-4.694C45.202,38.963,44.152,37.914,42.855,37.914z"/>
	</g>
	<path fill="#E6E6E6" d="M71.023,75.472h18.779V33.219c0-2.588-2.106-4.694-4.694-4.694H71.023V75.472z"/>
	<g>
		<path fill="#303C42" d="M59.286,37.914h-7.042c-1.298,0-2.348,1.049-2.348,2.348v4.694c0,1.298,1.05,2.347,2.348,2.347h7.042
			c1.298,0,2.348-1.049,2.348-2.347v-4.694C61.634,38.963,60.584,37.914,59.286,37.914z"/>
		<path fill="#303C42" d="M17.034,47.303h-4.695c-1.297,0-2.347,1.051-2.347,2.348v4.695c0,1.297,1.05,2.348,2.347,2.348h4.694
			c1.297,0,2.348-1.051,2.348-2.348V49.65C19.381,48.354,18.331,47.303,17.034,47.303z"/>
		<path fill="#303C42" d="M17.034,61.388h-4.695c-1.297,0-2.347,1.05-2.347,2.347v4.695c0,1.298,1.05,2.348,2.347,2.348h4.694
			c1.297,0,2.348-1.05,2.348-2.348v-4.695C19.381,62.438,18.331,61.388,17.034,61.388z"/>
		<path fill="#303C42" d="M78.065,33.219h4.695c1.298,0,2.348,1.05,2.348,2.348v4.695c0,1.297-1.05,2.347-2.348,2.347h-4.695
			c-1.297,0-2.347-1.05-2.347-2.347v-4.695C75.718,34.269,76.768,33.219,78.065,33.219z"/>
		<path fill="#303C42" d="M78.065,47.303h4.695c1.298,0,2.348,1.051,2.348,2.348v4.695c0,1.297-1.05,2.348-2.348,2.348h-4.695
			c-1.297,0-2.347-1.051-2.347-2.348V49.65C75.718,48.354,76.768,47.303,78.065,47.303z"/>
		<path fill="#303C42" d="M78.065,61.388h4.695c1.298,0,2.348,1.05,2.348,2.347v4.695c0,1.298-1.05,2.348-2.348,2.348h-4.695
			c-1.297,0-2.347-1.05-2.347-2.348v-4.695C75.718,62.438,76.768,61.388,78.065,61.388z"/>
		<path fill="#303C42" d="M85.108,37.914c-15.795,0-28.169,12.373-28.169,28.168c0,20.964,25.473,45.281,26.557,46.306
			c0.452,0.429,1.032,0.643,1.612,0.643c0.579,0,1.16-0.214,1.611-0.643c1.084-1.024,26.558-25.342,26.558-46.306
			C113.276,50.287,100.902,37.914,85.108,37.914z M85.108,75.472c-5.179,0-9.39-4.211-9.39-9.39c0-5.178,4.211-9.389,9.39-9.389
			c5.178,0,9.389,4.211,9.389,9.389C94.497,71.262,90.286,75.472,85.108,75.472z"/>
	</g>
	<path id="SVGCleanerId_0" fill="#E53935" d="M85.108,42.608c-13.164,0-23.474,10.312-23.474,23.474
		c0,16.093,17.928,35.633,23.474,41.29c5.545-5.657,23.474-25.197,23.474-41.29C108.582,52.92,98.27,42.608,85.108,42.608z
		 M85.108,80.167c-7.767,0-14.085-6.318-14.085-14.085s6.318-14.084,14.085-14.084c7.766,0,14.084,6.317,14.084,14.084
		S92.874,80.167,85.108,80.167z"/>
	<g>
		<path id="SVGCleanerId_0_1_" fill="#36CEE9" d="M85.108,42.608c-13.164,0-23.474,10.312-23.474,23.474
			c0,16.093,17.928,35.633,23.474,41.29c5.545-5.657,23.474-25.197,23.474-41.29C108.582,52.92,98.27,42.608,85.108,42.608z
			 M85.108,80.167c-7.767,0-14.085-6.318-14.085-14.085s6.318-14.084,14.085-14.084c7.766,0,14.084,6.317,14.084,14.084
			S92.874,80.167,85.108,80.167z"/>
	</g>
	<path opacity="0.1" enable-background="new    " d="M85.108,42.608c9.214,0,16.431,10.312,16.431,23.474
		c0,16.093-12.55,35.633-16.431,41.29c5.545-5.657,23.474-25.197,23.474-41.29C108.582,52.92,98.27,42.608,85.108,42.608z"/>
	<path opacity="0.1" enable-background="new    " d="M85.108,42.608c-13.164,0-23.474,10.312-23.474,23.474
		c0,16.093,17.928,35.633,23.474,41.29c-3.882-5.657-16.432-25.197-16.432-41.29C68.676,52.92,75.894,42.608,85.108,42.608z"/>
</g>
</svg>
